<?xml version="1.0" encoding="UTF-8"?>
<!DOCTYPE svg PUBLIC "-//W3C//DTD SVG 1.1//EN" "http://www.w3.org/Graphics/SVG/1.1/DTD/svg11.dtd">
<!-- Creator: CorelDRAW 2020 (64-Bit) -->
<svg xmlns="http://www.w3.org/2000/svg" xml:space="preserve" width="5.25033in" height="6in" version="1.1" style="shape-rendering:geometricPrecision; text-rendering:geometricPrecision; image-rendering:optimizeQuality; fill-rule:evenodd; clip-rule:evenodd"
viewBox="0 0 5956.9 6807.46"
 xmlns:xlink="http://www.w3.org/1999/xlink"
 xmlns:xodm="http://www.corel.com/coreldraw/odm/2003">
 <defs>
  <style type="text/css">
   <![CDATA[
    .fil0 {fill:red}
   ]]>
  </style>
 </defs>
 <g id="Layer_x0020_1">
  <metadata id="CorelCorpID_0Corel-Layer"/>
  <path class="fil0" d="M3865.54 6280.34c0,17.13 0.72,31.62 1.42,45.91 1.47,29.86 2.89,58.98 -0.92,88.13 -0.32,2.45 -0.34,5.97 -0.35,9.43l0 0.13c-0.04,7.88 -0.07,15.61 -2.14,24.21l0 0.13c-2.18,9.04 -4.47,12.86 -6.89,16.9l0 0.13c-0.16,0.26 -0.34,0.57 -1.36,7.01 -4.69,29.53 -4.93,30.16 -13.11,39.02l-1.21 2.04 -1.69 3.98c-7.52,18.22 -9.66,20.1 -17.59,27.03 -1.49,1.3 -3.79,3.31 -9.52,10.47l-0.06 -0.06c-7.51,9.39 -11.56,15.35 -14.4,19.54 -10.89,16.03 -11.29,16.63 -45.37,38.67 -38.31,24.79 -49.66,26.47 -64.1,28.59 -4.17,0.61 -8.83,1.3 -16.14,4.03l-5.2 2.25c-9.92,4.27 -17.03,7.34 -34.52,7.34l-3243.51 0c-13.19,0 -20.87,-3.39 -29.9,-7.37 -3.67,-1.62 -7.9,-3.49 -12.67,-4.27l-0.2 -0.03c-18.81,-3.08 -25.38,-4.17 -30.01,-5.74 -8.53,-2.93 -12.86,-5.98 -15.82,-9.64 -23.51,-10.98 -47.03,-26.03 -66.81,-44.92 -18.32,-17.49 -33.55,-38.31 -42.94,-62.33l0 -0.13c-0.69,-1.8 -1.23,-3.46 -1.71,-5.06 -3.69,-3.51 -7.42,-8.63 -11.24,-16.07 -1.29,-2.57 -2.41,-5.21 -3.51,-7.87 -1.3,-3.49 -2.11,-7.11 -2.39,-10.72 -1.84,-7.89 -3.88,-14.79 -5.7,-20.92 -3.9,-13.2 -7.07,-23.91 -7.07,-34.87l0 -471.52c1236.56,-0.29 2473.13,-0 3709.71,-0l0.08 191.23c0.05,13.42 -0.97,21.2 -2,28.86 -0.68,5.01 -1.34,10.02 -1.42,16.57l-0.16 9.07c-0.24,11.44 -0.49,23.31 0.95,33.44 2.59,18.22 1.61,25.22 0.36,34.08l0 0.13c-0.42,2.97 -0.9,6.39 -0.9,13.2zm-1563.1 -1799.25c-15.81,0 -3.81,-13.27 -9.58,-6.88 -2.17,2.4 -5.04,5.58 -10.34,9.43l-0.78 4.38c-0.48,2.61 -0.96,5.21 -1.04,9.2l-0.13 2.35c-1.03,11.43 -3.19,20.72 -5.34,29.98 -2.05,8.84 -4.1,17.72 -4.25,24.96 -0.74,36.12 -6.62,46.49 -11.94,55.87 -0.32,0.56 -0.63,1.11 -0.81,2.58 -1.04,8.37 -0.7,17.48 -0.36,26.54 0.5,13.23 0.99,26.47 -1.3,40.86 -2.06,13.01 -4.69,20.78 -7.14,28.06 -2.2,6.54 -4.18,12.42 -4.16,25.89 0.12,95.26 -35.31,95.01 -101.08,94.58l-283.25 0.13 -6.91 0.22c-18.71,0.75 -23.57,0.94 -40.97,-13.06 -29.53,-23.76 -30.73,-49.58 -32.01,-78.07 -0.37,-8.02 -0.76,-16.43 -2.51,-24.42 -0.47,-2.14 -1.13,-3.54 -1.73,-4.82 -2.69,-5.66 -5.15,-10.87 -6.68,-21.99 -1.42,-10.32 -1.68,-21.18 -1.93,-32.15 -0.25,-11 -0.51,-22.23 -2.48,-31.29 -0.42,-1.95 -1.02,-3.12 -1.55,-4.2 -3.18,-6.37 -6.02,-12.06 -7.37,-26.9 -0.98,-10.85 -0.78,-21.79 -0.58,-32.49 0.21,-11.15 0.41,-22.02 -1,-27.56 -0.97,-3.83 -2.15,-6.29 -3.27,-8.65 -2.1,-4.41 -4.15,-8.72 -6.24,-16.09 -2.01,-7.06 -3.36,-13.42 -4.19,-20.15l-0.02 -0.17 -0.78 -0.51c-4.17,-2.78 -9.95,-3.91 -18.12,-5.48l-9.73 -1.83c-3.6,-0.59 -5.28,-0.87 -8.65,-2.2 -5.99,-2.37 -8.08,-4.13 -11.09,-7.02 0.27,0.3 0.68,0.8 -0.17,0.32 -3.06,-1.72 -5.19,-1.99 -7.29,-2.25 -7.1,-0.88 -14.19,-1.78 -25.22,-6.92l0 -0.13c-5.36,-2.51 -8.92,-4.73 -11.5,-6.7 -2.59,-0.56 -4.37,-0.73 -5.97,-0.87 -9.89,-0.89 -17.7,-1.64 -34.53,-10.82l0.13 -0.23c-2.51,-0.35 -5.81,-1 -10.35,-2.28 -12.03,-3.4 -19.14,-7.85 -26.43,-12.41 -2.92,-1.83 -5.93,-3.71 -8.9,-4.88l-14.02 -6.74c-1.76,-0.66 -3.98,-1.16 -6,-1.61l-7.57 -1.75 -4.9 -1.4c-4.57,-1.33 -6.37,-1.84 -9.79,-3.61 -4.86,-2.5 -7.49,-4.52 -9.42,-6.66l-13.6 -6.65c-1.85,-1.03 -3.43,-1.93 -5.15,-3.07l-0.06 0.1 -5.97 -3.85c-11.52,-7.37 -27.39,-17.53 -37.87,-19.31 -1.87,-0.31 -6.33,3.04 -10.89,6.49 -3.48,2.62 -7.02,5.3 -12.14,8.53l-5.03 3.11c-0.76,0.49 -0.78,0.5 -4.68,3.71 -5.37,2.53 -28.87,23.52 -36.31,29.21l-3.17 2.16 -154.59 117.84 -3.14 2.09c-28.4,17.09 -54.5,11.9 -76.53,-1.57 -16.74,-10.23 -29.69,-25.26 -38.41,-36.26 -5.74,-7.12 -21.04,-20.77 -34.72,-32.96 -7.04,-6.28 -13.66,-12.18 -20.27,-18.53l-125.87 -122.41 -1.96 -2.09 -7.94 -9.18c-12.25,-14.09 -18.6,-21.41 -23.37,-32.05 -5.82,-12.95 -5.8,-21.78 -5.75,-40.08l0.05 -30.67 24.67 -6.61c3.86,-1.04 -1.95,-2.28 0,-5.63l4.28 -7.23 46.76 -65.64 2.09 -2.62c3.6,-4.12 6.42,-7.02 9.08,-9.75 4.25,-4.36 8,-8.22 9.99,-12.59 0.71,-1.55 0.15,-0.46 0.55,-1.45 1.63,-3.83 2.01,-4.7 6.29,-11.26 15.18,-21.61 30.82,-44.09 47.25,-64.81l26.78 -40.09 -48.81 -89.57c-3.73,-6.39 -4.98,-9.82 -6.66,-14.46l-1.22 -3.37c-1.05,-2.49 -2.08,-4.12 -3.01,-5.59 -3.89,-6.15 -7.26,-11.47 -10.65,-25.58 -1.1,-4.57 -1.47,-6.78 -1.76,-8.62l-0.01 -0.12c-2.62,-3.12 -5.04,-6.44 -8.17,-14.72 -0.79,-2.09 -1.43,-4.04 -1.95,-5.87l-15.14 -4.05 0 -25.65c0,-3.79 0.25,-9.75 0.46,-14.74 0.13,-3.35 0.17,-4.2 -2.11,-7.61l-0.13 -0.13c-9.1,-13.67 -10.15,-23.79 -11.18,-34.21 -0.24,-2.35 -0.49,-4.82 -1.03,-5.8 -8.99,-16.46 -10.38,-23.25 -13.29,-37.57l0 -0.13c-0.21,-1.07 0.21,1.15 -1.76,-7.86 -1.35,-6.17 -5.12,-6.7 -9.18,-7.23 -9.38,-1.26 -19.06,-2.56 -30.58,-7.95 -7.05,-3.3 -19.18,-3.78 -31.16,-4.27 -16.78,-0.67 -33.44,-1.34 -50.32,-8l-0.13 0c-9,-3.55 -23.55,-3.64 -37.9,-3.73 -15.31,-0.08 -30.5,-0.17 -44.91,-3.3 -7.12,-1.55 -12.57,-3.3 -18.01,-5.05 -4.98,-1.59 -9.99,-3.23 -18.57,-4.59 -10.68,-1.7 -19.12,-1.81 -26.01,-1.89 -28.87,-0.34 -43.73,-0.54 -68.8,-34.81 -20.94,-28.61 -16.09,-72.81 -11.69,-112.84 1.77,-16.08 3.45,-31.32 2.89,-41.04 -0.29,-4.98 -0.86,-8.63 -1.38,-12.03 -1.79,-11.53 -3.35,-21.54 -0.17,-41.9 2.36,-15.18 0.84,-54.08 -0.5,-88.47 -0.67,-16.97 -1.3,-32.9 -1.38,-46.3 -0.1,-14.82 0.11,-23.2 3.15,-32.5 3.7,-11.29 8.79,-17.48 18.16,-27.06l3.02 -3.12c15.31,-15.99 21.06,-21.99 53.66,-22.38 8.22,-0.09 14.61,-0.18 21.88,-0.64 5.6,-0.35 10.89,-1 17.31,-2.21 4.11,-0.78 7.49,-1.94 10.74,-3.07 9.13,-3.15 17.91,-6.18 32.73,-6.87l0.13 0c9.52,-0.44 19.53,-0.2 29.46,0.04 6.92,0.17 13.85,0.34 20.01,0.22l6.87 -0.19c4.99,-3.87 9.94,-7.72 20.82,-10.78 16.31,-4.61 27.09,-3.57 38.99,-2.43 9.62,0.92 20.69,1.98 43.93,-7.09 9.8,-3.83 16.77,-5.17 22.65,-6.29l0.97 -0.22 6.09 -16.82 0.74 -5.19c0.8,-3.68 1.31,-7.21 2.17,-10.95 1.37,-4.5 1.99,-5.31 3.51,-7.9l0.8 -1.55c2.33,-4.5 4.46,-7.52 6.46,-9.85l3.75 -27.01 3.92 -11.64c1.86,-3.36 2.58,-7.16 3.18,-10.37 2.43,-12.84 4.4,-23.28 15.2,-33.38 1.19,-15.31 4.31,-20.04 9.41,-27.73 0.65,-0.85 1.43,-2.09 2.7,-5.88l1.3 -3.39 34.69 -74.83 2.75 -4.84 0.8 -1.13 22.98 -42.26c-1.19,-0.94 -2.81,-2.39 -4.93,-4.94l-101.37 -132.43c-2.52,-3.17 -3.72,-5.14 -5.1,-7.43l-0.88 -1.25c-1.62,-2.29 -3.64,-4.72 -5.77,-7.28l0.08 -0.06c-16.46,-19.74 -36.21,-44.22 -50.08,-64.8 -40.43,-54.38 -14.31,-81.01 15.67,-111.59 3.95,-4.02 8.04,-8.2 11.76,-12.6 35.8,-47.25 105.89,-107.89 145.99,-149.21 3.48,-3.63 6.66,-6.95 10.56,-10.39 15.96,-14.04 19.37,-18.35 22.53,-22.32 3.43,-4.33 6.72,-8.46 14.79,-16.09 49.12,-46.35 72.65,-28.08 107.11,-1.21l0.06 -0.08 7.92 6.16 5.4 3.72c1.82,1.07 3.5,2.06 5.47,3.42l1.7 1.18 75.66 59.62 1.61 1.42c2.09,1.14 4.21,2.36 6.34,3.42 3.5,2.02 5.08,3.18 6.97,4.55l2.94 1.83 55.52 37.88c2.55,1.97 4.77,3.75 7.22,5.85l7.37 5.82c14.04,11.27 28.08,22.53 39.57,18.97 2.52,-0.77 4.26,-2.01 6.1,-3.32 3.19,-2.26 6.53,-4.62 11.97,-7.48l41.72 -24.28c6.13,-3.27 9.48,-4.39 12.66,-5.45l1.26 -0.54c2.49,-3.25 6.11,-5.89 12.9,-8.79 4.07,-1.8 5.61,-2.05 9.09,-2.64l8.41 -1.68c4.65,-1.01 8.47,-2.35 12.08,-3.98 3.97,-1.76 8.77,-4.49 14.32,-7.7l0.7 -0.54c4.48,-4.17 8.34,-7.74 19.29,-12.04 9.39,-3.7 14.79,-4.14 20.2,-4.54l0.33 -0.03c3.73,-3.25 8.55,-6.42 19.7,-9.88 7.33,-2.27 12.33,-2.81 17.07,-3.32l1.63 -0.19c3.87,-3.88 8.95,-7.24 20.42,-10.35 13.7,-3.72 21.33,-3.2 27.94,-2.76l5.42 -3.24c10.06,-6.06 19.79,-7.99 29.67,-9.95l8.83 -1.82 4.31 -3.03c0.25,-1.82 1.02,-5.07 1.02,-6.66 2.52,-12.8 5.73,-20.82 8.66,-28.23 2.54,-6.37 4.74,-11.92 4.66,-28.68l-0.25 -10.61c-0.46,-15.87 -0.95,-32.89 3.83,-48.59 4.69,-15.37 5.51,-29.98 6.27,-43.89 0.82,-14.79 1.6,-28.99 5.92,-45.41l9.34 -41.17c0.36,-3.24 0.57,-6.33 0.76,-9.45 2.43,-38.27 5.07,-79.45 74.81,-79.44l309.66 0.01c22.04,0.03 38.89,6.28 51.76,17.69 12.85,11.38 20.13,26.5 23.4,44.57l0.17 0.9c1.63,9.07 2.66,14.71 2.92,27.68 0.29,13.63 3.02,25.21 5.71,36.67 3.69,15.61 7.32,31.1 7.13,54.46 -0.19,22.91 3.14,35.56 6.2,47.15 3.22,12.23 6.23,23.63 6.7,41.99 0.2,7.84 0.6,14.61 1.41,20.73 0.65,4.88 1.72,9.66 3.41,14.75l-0.12 0.04c6.01,18.11 7.68,24.51 8.14,38.02 3.91,2.26 3.98,2.27 4.2,2.27 4.58,0.09 11.1,0.25 20.81,1.28 13.6,1.46 21.47,5.68 29.32,9.87 1.99,1.06 4.01,2.14 4.93,2.27 19.15,2.75 26.37,6.49 33.73,10.31 2.22,1.14 4.52,2.34 11.46,3.53l0.72 0.1c9.33,1.63 13,2.26 18.21,4.5 5.21,2.29 7.3,3.96 10.69,6.69 0.65,0.53 1.6,1.29 3.47,2.52 1.75,1.16 2.7,1.5 3.85,1.91 3.07,1.09 6.55,2.35 12.06,5.02 5.3,2.57 8.25,4.4 10.35,5.72 1.6,0.94 -1.85,-1.21 2.05,-0.51 18.52,3.32 27.62,8.07 39.42,14.25 2.39,1.25 5.03,2.63 10.21,5.07l47.66 25.56c5.32,2.7 9.21,4.88 12.88,6.93 9.92,5.61 17.94,10.05 26.4,3.78l82.62 -59.86 4.02 -4.16 0.06 0.06c2.96,-3.15 5.53,-5.89 9.82,-9.65l1.96 -1.7 125.45 -93.74 8.24 -4.44c1.7,-0.64 8.46,-2.26 13.31,-3.18 3.76,-0.72 7.91,-1.37 10.62,-1.45l6.14 0.39 18.89 2.98 6.66 1.7c17.2,6.5 26.35,17.9 35.53,29.33 3.07,3.82 6.18,7.69 8.19,9.31 29.57,23.96 55.89,50.62 82.11,77.18 13.16,13.33 26.31,26.66 39.91,39.6 29.68,29.68 59.73,59.11 89.58,88.64l3.66 4.19c29.55,41.27 -1.51,80.53 -23.42,108.24l-5.23 6.66 -88.76 116.99c-0.7,1.45 -1.49,2.98 -3.91,7.1l-1.3 2.09 -36.97 53.58c-1.34,4.42 -4.06,9.96 -8.47,17.07l30 54.77c14.86,23.29 24.55,49.05 31.79,68.34 3.45,9.05 6.16,16.26 6.66,17l0.13 0c2.71,4.02 3.31,4.79 3.64,5.23 2.4,3.08 3.63,4.69 5.49,8.59l0.14 0.13c0.92,1.97 1.59,4.02 2.86,7.98l3.2 9.62 6.66 12.62 1.44 3.01c3.05,7.5 4.13,13.74 5.18,19.94 0.46,2.6 0.92,5.19 1.23,5.99 0.54,1.35 0.91,1.95 1.22,2.42 4.06,6.01 7.32,10.94 10.3,26.1 1.04,5.26 1.48,9.2 1.82,12.34 0.07,0.59 0.1,0.92 1.29,3.49l2.18 4.41c4.77,8.94 7.71,14.39 8.84,31.68 0,2.47 0.42,5.1 0.42,7.56 0.25,4.74 0.36,6.69 1.92,9.47 6.33,0.21 11.62,0.63 17.25,1.48 10.32,1.55 19.13,4.27 35.04,9.46 6.43,2.1 15.35,1.84 24.32,1.56 12.31,-0.38 24.7,-0.75 38.55,2.25 7.27,1.56 12.14,3.31 16.99,5.03 3.16,1.16 6.34,2.3 9.46,2.89 7.42,1.4 16.6,1.62 25.78,1.83 13.46,0.3 27,0.63 40.84,3.73 10.34,2.3 14.58,3.99 18.8,5.66 2.14,0.89 4.36,1.76 8.54,2.71 7.67,1.76 15.79,2.09 23.31,2.39 29.11,1.18 53.33,2.17 77.2,37.5 10.96,16.2 10.5,27.53 9.84,43.52l-0.24 6.89 -0.03 282.99c0.41,49.64 0.26,49.79 -31.38,76.07l0.05 0.06 -0.77 0.54c-17.7,14.71 -38.25,15.28 -58.86,15.83 -6.23,0.17 -12.5,0.34 -17.78,1.28 -6.66,1.18 -12.61,2.71 -18.17,4.13 -13.8,3.52 -25.79,6.59 -48.38,6.46 -14.68,-0.08 -27.32,3.41 -41.09,7.21l-10.1 2.77c-15.64,4.12 -30.29,3.41 -45.07,2.68 -9.32,-0.45 -18.76,-0.91 -25.09,0.37 -2.93,0.59 -5.61,1.86 -8.22,3.09 -9.29,4.4 -18.28,8.66 -39.41,9.66l-1.45 0c-1.36,1.19 -1.73,1.01 -1.93,1.57l0 0.13c-0.1,0.29 -0.18,2.75 -0.26,7.38 -0.44,23.95 -5.15,32.84 -10.05,42.1 -1.01,1.89 -2.05,3.88 -2.6,7.68 -0.64,4.47 -0.66,5.81 -0.68,6.66 -0.07,3.85 -0.1,6.26 -1.34,10.77 -1.54,5.79 -3.11,8.42 -7.2,15.35l-1.34 2.13c-1.14,1.94 -1.91,5.2 -2.81,9.01 -1.09,4.6 -2.28,9.63 -4.59,16.44l-1.3 3.27 -29.62 63.79 -5.36 8.11 -0.4 0.45c-0.13,3.82 -0.75,8.58 -2.55,14.99l-2.74 6.8c-13.99,25.93 -27.77,52.15 -42.1,77.87l38.91 52.87c8.89,11.08 14.22,19.44 19.01,26.92 4.65,7.29 8.59,13.45 17.98,22.68 6.16,6.08 11.78,13.31 16.67,19.6l0.96 1.24 -0.08 0.07c5.62,7.21 8.96,11.98 12.25,16.65 4.1,5.82 8.08,11.48 13.12,17.49 19.19,22.96 36.07,46.76 54.1,70.84l3 4.58c2.93,5.64 4.83,13.2 5.99,20.61 1.34,8.53 1.85,18.53 1.75,21.8 -1.01,30.02 -12.91,40.21 -27.56,52.74 -2.09,1.79 -4.34,3.71 -6.03,5.4 -11.71,11.75 -16.71,16.21 -20.47,19.55 -5.04,4.49 -7.37,6.57 -23.7,25.91 -18.14,21.48 -38.95,41.78 -59.65,61.96 -14.87,14.5 -29.7,28.98 -41.59,41.82l-11 12.32c-14.73,16.61 -30.63,34.55 -49.48,47.29l-3.69 2.58c-17.96,12.35 -42.21,28.99 -72.4,19.09 -14.92,-4.84 -20.48,-11.28 -24.23,-18.14 -52.67,-37.64 -101.81,-72.41 -154.07,-110.93l0.05 -0.07c-8.08,-5.61 -15.23,-11.3 -22.95,-17.43 -16.97,-13.5 -37.11,-29.52 -45,-31.12 -4.5,-0.91 -17.24,7.77 -27.87,15.02l-8.49 5.66c-19.56,12.72 -36.93,20.53 -55.52,28.9 -6.57,2.96 -13.32,6 -19.22,8.8l-10.55 5.14c-13.58,6.73 -25.65,12.7 -42.6,17.2 -10.47,2.78 -13.72,4.92 -16.33,6.66 -5.97,3.95 -11,7.29 -22.33,10.08 -10.47,2.58 -14,4.39 -16.8,5.81 -6.95,3.54 -12.19,6.23 -27.81,8.38 -5.82,0.81 -9.14,2.48 -12.09,3.97 -8.94,4.51 -16.82,8.5 -33.68,8.88l-0.66 0.13zm-609.31 -10.9l-0.11 -0.11c-0.13,-0.13 -0.03,-0.03 0.11,0.11zm-84.7 -27.39c0.17,-0.04 8.73,0.41 4.99,0.21 -1.27,-0.06 -2.81,-0.15 -4.87,-0.43l-0.13 0.23zm-553.91 -1601.01l0.59 0.31c-0.17,-0.32 -0.43,-0.58 -0.8,-0.85l0.22 0.54zm0.59 0.31l-0.59 -0.31c0.79,1.99 1.35,3.85 0.78,0.89l-0.19 -0.58zm449.53 -2341.7l17.85 55.54 39.82 31.56c3.37,0.42 8.82,-0.29 14.54,-1.05 7.52,-0.99 15.28,-2.02 23.12,-2.02 23.03,0 31.58,1.18 38.19,2.08 5.12,0.7 8.12,1.11 42.99,-1.77 19.96,-1.66 59.11,-1.86 101.98,-1.32 58.21,0.73 122.36,2.85 153.62,4.49 6.28,0.32 12.8,-0.47 19.79,-1.31l0.13 0c8.61,-1.05 17.8,-2.17 29.82,-2.17 12.02,0 21.2,1.12 29.81,2.17l0.13 0c6.99,0.84 13.51,1.63 19.79,1.31 40.93,-2.15 88.54,-4.02 137.1,-4.46 48.92,-0.44 97.35,0.58 138.36,4.2 9.01,0.79 15.78,-0.05 22.96,-0.96 8.81,-1.11 18.05,-2.27 28.7,-2.27 10.95,0 20.71,1.02 30.01,1.99 10.22,1.06 19.69,2.05 31.31,0.26 20.16,-3.08 31.16,-2.26 39.12,-1.68 1.55,0.11 2.29,0.17 7.94,-3.56 4.04,-2.66 6.95,-4.43 9.79,-6.13 9.41,-5.75 20.09,-12.18 27.12,-23.53 0.34,-0.55 -0.02,-0.19 0.21,-0.74l0.9 -2.06 0.52 -0.78c1.3,-2.68 2.8,-6.13 4.46,-8.59 6.41,-10.92 6.24,-16.33 5.77,-31.63l0 -0.13c-0.24,-7.82 -0.53,-17.01 -0.58,-23.43l-1.27 -2.16c-5.14,-9 -7.02,-13.51 -8.5,-17.06 -0.64,-1.51 -1.08,-2.57 -3.56,-5.94l-15.99 -17.38c-5.07,-1.22 -11.04,-3.07 -20.61,-8.65l-0.13 0c-2.53,-1.48 -4.58,-2.84 -6.26,-4.09l-899.04 -0.02c-3.9,0 -4.78,0.58 -6.12,1.45 -3.56,2.33 -7.71,5.07 -14.08,8.24l-0.13 0c-8.65,4.29 -12.72,8.29 -19.69,15.14 -4.15,4.07 -8.27,7.96 -12.53,11.94 -2.46,3.81 -4.13,8.48 -5.27,13.61 -1.35,6.09 -1.93,13.31 -2.09,20.9zm-106.33 5783.16c0,5.9 -0.26,18.02 -0.45,27.03 -0.15,7.09 -0.23,10.88 -0.04,12.06 0,0.35 8.28,18.13 9.04,19.76 2.3,5.24 -4.14,2.14 -2.37,2.99 8.35,4.06 13.86,6.73 17.47,13.89 4.69,2.85 7.3,6.74 10.18,12l0.21 -0.44c-0.05,-0.27 -0.02,-0.4 0.15,-0.32l0.13 0c8.63,4.06 14.7,8 19.1,11.62l1125.43 0c3.02,-2.33 6.94,-4.94 12.18,-7.79l17.72 -13.78c4.31,-4.72 9.28,-10.49 13.63,-16.39 4.12,-5.58 7.53,-10.84 8.52,-14.12l-0.46 -17.82c-0.42,-13.49 -1.4,-27.62 -2.27,-33.09l-2.51 -4c-3.4,-5.78 -4.31,-7.75 -5.35,-9.99l-1.95 -4.13c-3.16,-6 -10.01,-13.12 -17.96,-19.63 -7.48,-6.14 -15.08,-11.05 -20.9,-13.53l-143.45 -4.25c-3.21,-0.28 -13.75,0.41 -26.69,1.26 -24.06,1.57 -55.24,3.63 -79.11,1.65 -14.49,-1.19 -22.2,-2.18 -26.42,-2.77 -4.22,0.59 -11.93,1.58 -26.41,2.77l-0.13 0c-5.01,0.41 -53.12,0.63 -100.69,0.63 -47.55,0 -95.67,-0.21 -100.69,-0.63l-0.13 0c-31.26,-2.59 -38.23,-2.08 -49.3,-1.26 -9.5,0.69 -21.44,1.57 -44.77,1.57 -22.87,0 -33.34,-1.21 -41.38,-2.14 -7.33,-0.84 -11.69,-1.34 -35.94,1.38l-3.66 0.13 -201.8 0.31c-31.27,-2.59 -38.24,-2.08 -49.3,-1.26 -9.5,0.69 -21.44,1.57 -44.76,1.57 -11.5,0 -23.02,-0.89 -34.24,-1.76 -14.66,-1.12 -28.76,-2.21 -39.96,-0.5 -14.13,2.18 -28.69,1.59 -43.4,1.01 -12.79,-0.5 -25.8,-1.01 -35.75,1.1 -2.31,0.52 -8.88,4.84 -16.6,10.64 -9.13,6.84 -17.96,14.83 -22.8,21.15 -3.03,3.95 -6.86,10.33 -9.64,16.94 -1.46,3.48 -2.5,6.55 -2.5,8.14zm33.82 87.74l0.07 0.13 0.18 -0.38 -0.05 -0.18 -0.21 0.44zm0.07 0.13l1.78 3.33c0.75,1.42 -1.2,-2.28 -1.59,-3.71l-0.18 0.38zm2436.51 -3743.62l-0.58 19.41c-0.78,24.1 -1.26,38.4 13.9,55.32 4.29,4.13 9.29,9.6 13.82,13.21 5.4,4.78 12.61,9.59 20.85,13.01 5.91,2.46 12.23,4.05 18.47,4.05 60.04,0 38.53,0.17 153.99,0.38 352.9,0.68 1148.66,2.23 1167.19,-1.75 0.91,-0.2 0.74,0.28 0.2,0.94l0.13 0.57c2.18,-1.58 5.49,-3.69 11.63,-6.44 4.95,-2.21 8.58,-3.68 11.31,-4.69 2.09,-2.29 5.18,-5.61 10.19,-10.79l4.71 -5.26 0.13 0c1.38,-1.59 2.66,-3.17 3.58,-4.5l0 -0.13c1.28,-1.84 2.21,-3.8 3.19,-5.89 1.55,-3.3 3.19,-6.78 5.34,-10.52l0.13 0c3.69,-6.43 5.87,-17.95 6.09,-30.24 0.19,-11.05 -1.25,-21.38 -4.62,-27.29l-3.77 -6.63 -0.2 0.07 -0.54 -1.37 -9.42 -16.78c-3.29,-4.05 -6.14,-7.8 -9.72,-11.52 -3.4,-3.6 2.75,-1.98 0.14,-2.67 -4.6,-1.22 -11.32,-3 -24.23,-10.14l-1.37 -0.88c-4.25,-1.27 -31.95,-0.51 -61.24,0.29 -28.89,0.79 -59.1,1.63 -80.72,-0.8 -22.49,-2.52 -40.9,-1.62 -61.18,-0.64 -13.68,0.67 -28.08,1.38 -41.92,1.38 -15.7,0 -28.96,-0.96 -41.88,-1.87 -11.78,-0.85 -23.29,-1.68 -34.99,-1.62l-181.32 3.48c-11.35,-0.13 -17.65,-1.13 -23.96,-2.13 -3.97,-0.63 -7.98,-1.26 -14.44,-1.35 -13.98,-0.2 -26.98,0.71 -40.26,1.61 -13.5,0.92 -27.3,1.88 -43.22,1.88 -15.7,0 -28.97,-0.96 -41.88,-1.87 -11.91,-0.86 -23.54,-1.69 -35.38,-1.62 -6.67,0.05 -11.53,0.79 -16.35,1.51 -5.42,0.82 -10.84,1.65 -21.32,1.95l-140.06 0.02c-11.35,-0.13 -17.64,-1.14 -23.95,-2.13l-0.13 0c-3.98,-0.63 -8,-1.26 -14.33,-1.36 -13.98,-0.2 -26.98,0.71 -40.25,1.61 -13.5,0.92 -27.31,1.88 -43.22,1.88 -15.71,0 -28.97,-0.96 -41.89,-1.87 -11.52,-0.83 -22.76,-1.64 -34.19,-1.63l-81.75 3.5c-9.42,0 -31.44,-0.58 -55.5,-1.19 -42.11,-1.08 -91.54,-2.35 -114.65,-0.43l-55.67 43.7c-1.86,3.42 -3.49,6.09 -4.9,8.24zm1387.83 104.57c-1.15,1.4 -3.96,3.59 -1.63,1.78l0.06 0.08 1.69 -1.29 -0.13 -0.57zm-1390.99 1193.44c0,12.16 1.01,30.22 4.65,45.34l0 0.13c1.8,7.5 3.98,13.86 6.49,16.88 13.77,13.06 24.49,18.34 41.75,29.58l2.96 1.77c1.69,0.6 3.35,1.02 5.1,1.26 2.07,0.3 4.97,0.41 8.66,0.41 59.45,0 38.89,0.17 154.58,0.39 344.72,0.66 1108.84,2.13 1161.18,-1.49l29.99 -13.07 9.33 -8.07 0.13 0c6.43,-6.4 8.22,-9.93 10.48,-14.45 1.36,-2.89 2.94,-6.05 6.01,-11.39 3.82,-6.63 6.38,-18.81 6.48,-31.96 0.07,-10.67 -1.5,-20.84 -5.38,-27.26 -0.75,-0.74 -2.77,-4.56 -3.46,-5.86 -2.14,-4.08 -3.54,-7 -4.69,-9.42 -1.9,-3.95 -2.33,-4.84 -14.18,-15.37l-27.88 -18.47c-18.85,-4.66 -139.7,-2.08 -224.68,-0.27 -34.24,0.74 -63.35,1.36 -73.64,1.36 -18.4,0 -45.78,-0.54 -72.43,-1.06 -18.32,-0.35 -36.23,-0.7 -62.85,-0.7l0 -0.13 -241.44 1.76 -0.13 0.13c-16.37,0 -36.41,-0.68 -56.03,-1.34 -25.02,-0.84 -49.35,-1.66 -75.61,-0.62 -7.25,0.28 -15.13,-0.16 -23.83,-0.64 -12.04,-0.66 -26.06,-1.45 -35.69,-0.13l-4.18 0.26 -239.06 2.17 -3.14 -0.13 -11.04 -0.97c-13.37,-1.22 -26.44,-2.43 -43.52,-1.94l-52.23 -0.01c-11.47,0 -20.78,0.85 -29.68,1.66l-0.13 0c-8.83,0.79 -17.37,1.58 -27.65,1.7 -9.42,0.11 -18.67,-0.06 -27.89,-0.24 -10.19,-0.19 -20.4,-0.38 -30.09,-0.15l-2.13 -0.01c-2.46,1.68 -5.54,3.53 -9.45,5.57l-0.13 0c-4.88,2.54 -8.21,4 -10.6,4.95l-6.09 5.5c-7.09,6.28 -15.95,16.58 -22.43,27.74 -3.78,6.52 -6.43,12.59 -6.43,16.58zm215.82 -637.75l-0.28 12.06c-0.21,10.49 -0.35,18.12 2.43,23.88l30.5 41.65c2.42,0.64 5.31,1.59 8.95,3.09l4.15 1.83c4.37,2.15 7.71,4.16 10.28,6.05l0.13 -0.59c-0.11,-0.27 -0.09,-0.4 0.08,-0.36 8.28,1.79 452.48,2.71 893.63,2.71 421,0 837.36,-0.86 867.62,-2.6l25.24 -10.4 1.18 -1.34c4.51,-4.99 5.82,-6.13 7.39,-7.5l0 -0.13 1.31 -1.2c4.51,-4.66 9.65,-11.64 13.9,-19.14 3.25,-5.74 5.73,-11.23 6.45,-15.15 1.81,-9.77 2.6,-15.54 2.6,-20.4 0,-4.68 -0.88,-11.11 -2.35,-21.49l-0.73 -5.42c-2.29,-3.79 -3.74,-6.37 -5.74,-10.37l-3.86 -9.57c-1.49,-1.34 -3.3,-3.06 -5.59,-5.46 -2.59,-2.73 -3.69,-4.02 -4.62,-5.15l-0.42 -0.5c-2.13,-1.46 -25.7,-18.03 -26.81,-18.03 -5.37,-3.01 -3.61,-3.69 -5.54,-3.94l-6.36 0.34c-6.22,0.31 -15.13,0.76 -30.48,0.75 -12.24,-0.02 -20.52,-0.88 -29,-1.76 -7.72,-0.8 -15.71,-1.63 -25.66,-1.63l0 0.13c-10.65,0 -16.54,0.53 -21.76,1 -12.07,1.08 -21.9,1.96 -38.52,-0.4 -8.38,-1.2 -34.43,-0.08 -60.31,1.02 -19.37,0.84 -38.65,1.67 -50.1,1.67 -31.91,0 -22.03,-0.04 -25.22,-0.03 -48.61,0.27 -132.17,0.73 -157.25,-2.69 -16.1,-2.22 -31.36,-0.49 -43.02,0.83 -7.37,0.84 -13.74,1.55 -19.3,1.55 -5.55,0 -11.93,-0.72 -19.3,-1.55 -11.65,-1.31 -26.92,-3.05 -43.02,-0.83 -15.42,2.11 -72.18,3.18 -127.98,3.18 -55.57,0 -111.96,-1.06 -127.45,-3.18 -12.87,-1.76 -25.55,-0.43 -37.14,0.79 -6.92,0.73 -13.56,1.43 -21.23,1.65 -6.74,0.19 -12.63,-0.61 -19.77,-1.57 -9.93,-1.34 -23.46,-3.17 -41.25,-1.17 -18.26,2.05 -79.38,3.28 -138.4,3.38 -55.19,0.08 -109.21,-0.84 -125.51,-3.08 -11.98,-1.64 -22.52,-0.36 -32.59,0.87l-0.13 0c-6.7,0.82 -13.27,1.62 -22.46,1.85 -10.64,0.25 -18.71,-0.75 -27.2,-1.8 -9.45,-1.18 -19.63,-2.44 -30.55,-1.21l-3.4 0.13 -244.8 2.29 -3.92 -0.13c-37.38,-4.2 -46.09,-2.64 -53.07,-1.38 -6.28,1.12 -11.85,2.12 -21.78,1.84 -8.84,-0.25 -12.87,-1.13 -17.17,-2.05 -1.9,-0.41 -3.95,-0.86 -7.33,-1.05l-98.15 5.04 -0.99 0.59 0 0.13c-6.13,3.58 -10.64,5.83 -14.01,7.27l-0.12 0.25c-3.74,3.46 -11.02,9.31 -14.16,12.65 -5.74,4.97 -5.86,5.08 -10.31,15.14l-8.5 16.47c-0.37,1.2 -0.63,2.38 -0.8,3.57 -0.29,2.05 -0.4,4.93 -0.4,8.66zm56.03 88.56l0.85 0.64 -0.73 -1.23 -0.13 0.59zm-2121.93 505.36c-11.88,0 -40.73,-0.76 -65.48,-2.24 -18.09,-1.09 -34.36,-2.78 -42.06,-5.31 -6.95,-2.27 -11.1,-4.54 -15.13,-6.73 -0.8,-0.43 -1.6,-0.88 -2.78,-1.26 -4.86,-1.6 -7.78,-2.11 -10.51,-2.57l-0.13 0c-8.73,-1.5 -16.58,-2.84 -33.11,-10.71 -1.41,-0.7 -3,-1.1 -4.59,-1.49 -4.79,-1.15 -9.63,-2.35 -16.69,-5.56 -8.18,-3.75 -11.07,-6.1 -14.4,-8.79l-0.13 -0.13c-0.5,-0.4 -1.1,-0.89 -2.87,-1.82 -11.39,-5.58 -22.44,-12.85 -33.88,-18.58 -4.63,-2.54 -6.5,-3.98 -8.41,-5.6 -9.07,-3.74 -37.86,-25.03 -48.12,-31.86 -6.14,-3.93 -9.91,-7.36 -13,-10.43l-25.71 -2.14 -1.84 -22.1 -2.2 -2.08 -21.81 -2.39 -1.93 -23.23c-1.65,-1.61 -3.44,-3.52 -5.37,-5.91 -9.06,-11.65 -17.36,-24.53 -25.85,-36.74l-48.47 -86.8 -3.14 -7.46 -1.48 -5.91 -1.94 -2.97c-1.56,-2.43 -2.16,-3.2 -2.49,-3.63 -3.18,-4.11 -4.68,-6.04 -6.53,-12.24 -1.39,-4.75 -1.44,-7.04 -1.4,-10.93l-0.13 0c0,-0.96 0,-2.84 -0.48,-6.48 -0.41,-2.97 -2.28,-7.73 -4.12,-12.42 -3.2,-8.12 -6.39,-16.2 -7.87,-27.15 -3.12,-23.02 -4.69,-58.21 -4.69,-92.71 0,-34.51 1.57,-69.69 4.69,-92.71 1.31,-9.71 4.25,-17.81 7.38,-26.41 2.06,-5.68 4.27,-11.73 5.19,-17.08l1.96 -6.93 15.87 -38.89c3.09,-7.81 5.82,-12.45 8.45,-16.96l0.13 0c1.56,-2.66 3.07,-5.25 4.1,-8.56l4.06 -8.5 67.66 -103.05 3.4 -4.44 3.11 -3.34 4.44 -4.06 110.71 -82.54 2.35 -1.57c1.96,-1.23 2.38,-1.57 2.69,-1.83 4.62,-3.82 7.32,-6.05 17.67,-10.09l27.42 -13.06 1.96 -0.78c3.15,-1.27 6.02,-2.01 9.08,-2.79l0.13 -0.13 2.17 -0.54c6,-2.09 8.57,-3.43 10.81,-4.6l0 -0.13c6.99,-3.64 12.61,-6.57 32.81,-11.11 3.07,-0.69 5.91,-1.88 9.76,-3.49l0.05 0.11 6.58 -2.7c15.79,-6.28 51.52,-9.45 88.78,-10.14 41.13,-0.78 86.42,1.14 107.39,4.95 17.43,3.18 21.49,5.98 27.53,10.13l1.22 0.7c4.13,1.92 10.24,2.67 16.36,3.41 11.02,1.34 22.06,2.67 35.65,8.79 4.98,0.44 11.74,2.22 22.3,7.17l2.31 1.08c5.73,2.69 7.49,3.39 11.24,6.48l7.07 6.16 10.6 4.38c12.09,4.98 25.33,10.43 35.73,17.22l13.15 8.39c5.53,3.86 7.06,5.16 8.2,6.28l61.18 50.53 3.4 3.27c7.41,8.17 20.18,22.28 32.35,36.84 13.28,15.9 26.01,32.63 31.76,44.7l-0.1 0.04c2.38,4.99 4.03,8.79 5.77,12.8l0.13 0 2.65 6.2 19.26 33.33 -0.13 0.07c2.45,2.3 4.31,4.39 6.89,9.55l0.27 0.26c1.96,4.02 2.61,6.64 4.49,13.99l0.45 1.92c1.13,4.34 2.66,7.85 4.12,11.2 4.77,10.98 9.26,21.35 9.47,38.75 0.09,7.85 0.98,9.42 1.97,11.15 3.27,5.73 6.79,11.9 9.62,24.18 8.66,37.41 7.04,72.47 5.47,106.31 -0.54,11.65 -1.09,23.17 -1.14,32.85l-0.02 4.68c-0.03,14.83 -0.07,28.89 -4.49,45.45l-0.67 2.41c-0.58,2.09 -0.67,2.66 -1.61,5.15 -1.33,3.56 -1.98,4.67 -3,6.33 -2.14,4.22 -4.07,7.04 -5.87,9.22l-0.03 5.24 -0.13 0c-0.01,7.83 -0.02,15.3 -3.34,24.71l-3.66 7.32c-6.35,9.58 -4.67,5.55 -6.88,16.69 -1.63,8.36 -3.15,15.99 -7.74,23.92 -8.59,16.68 -20.78,36.15 -31.73,52.18 -22.2,27.07 -40.71,59.3 -63.23,86.29l-4.31 4.32 -61.71 51.01 -0.08 -0.1 -1.54 1.32 -7.32 4.7 -97.27 45.61c-4.31,4.59 -10.29,8.79 -24.04,12.17 -5.94,1.46 -10.44,1.56 -15.03,1.66l-2.16 0.17c-7.24,0.61 -9.42,1.8 -11.64,3.01 -10.68,5.82 -21.88,11.93 -58.47,12.74 -6.76,0.14 -13.28,0.75 -20.02,1.36 -10.92,1 -22.41,2.05 -35.33,2.05zm166.32 -923.07l0.08 0.04 -0.08 -0.04zm262.9 242.86l-0.61 -0.51 0.61 0.51zm-791.93 -324.44l0 16.37 -30.73 2.54c-1.74,0.14 0.51,0.86 -0.85,1.96 -2.94,2.39 -6.01,4.88 -10.05,7.52l-59.23 54.07c-23.38,30.06 -47.28,63.3 -71.84,92 -12.51,15.48 -16.28,24.05 -20.51,33.68l0 0.13c-3.76,8.55 -7.8,17.76 -16.19,31.55 -1.96,3.08 -3.5,5.37 -4.74,7.08 0,0.29 -0.11,0.89 -0.64,2.43l-0.31 0.9c-4.04,11.75 -9.22,21.98 -14.31,32.04 -5.16,10.22 -10.23,20.23 -12.15,29.68 -3.49,17.18 -6.99,23.08 -10.38,28.8 -0.4,0.67 -0.8,1.34 -1.58,4.88 -4.43,13.36 -7.43,28.91 -11.3,42.75 -1.18,3.18 -1.42,9.51 -1.64,15.96 -0.55,15.64 -1.13,31.79 -10.41,48.99 -1.2,2.22 -2.33,4.01 -3.39,5.53l0 143.55c2.53,3.6 5.26,7.96 7.97,15.21 4.14,11.07 4.96,20.75 5.86,31.42 0.74,8.81 1.58,18.72 4.98,26.66 5.77,13.54 6.19,19.45 6.72,27.3 0.15,2.2 0.34,4.8 1.06,8.06 0.52,2.36 1.29,3.92 2.14,5.69 3,6.2 6.52,13.46 10.82,32.88l-0.47 0.1 4.72 7.01c1.28,2.74 3.08,6.02 4.03,8.81 0.18,0.56 -0.5,-1.58 1.37,3.6l20.42 46.29c5.57,9.19 10.89,20.15 16.22,31.14 6.47,13.34 13.01,26.81 16.17,30.31l-0.08 0.07 10.6 11.58c17.73,21.27 34.54,44.4 51.57,66.35l20.32 2.2 2.29 27.48c0.35,4.25 0.81,-3.28 3.02,-1.41 4.83,4.09 10.78,9.12 18.61,16.95l6.79 5.92 0 0.13 5.54 4.86c5.71,5.01 10.65,9.35 18.13,14.56 19.06,16.27 46.08,32.32 66.18,45.76 5.23,3.5 7.5,5.7 9.33,7.59l0.25 -0.5 59.5 29.62c4.99,2.18 10.81,4.87 16.58,7.55 13,6.03 25.19,11.69 39.03,14.95 14.11,3.34 19.58,6.62 24.81,9.76 0.85,0.51 1.69,1.03 6.73,1.95 20.01,3.7 27.37,6.36 33.92,8.72 5.03,1.82 9.29,3.35 38.32,6.89 19.32,2.35 31.07,4.63 41.02,6.57 16.27,3.14 26.83,5.19 78.16,5.19 53.96,0 51.36,2.43 52.24,1.61l0.13 0c5.45,-5.04 11.05,-10.24 29.04,-13.51 10.18,-1.85 17.68,-2.47 24.96,-3.06 9.98,-0.82 19.54,-1.61 28.55,-5.38 8.25,-3.45 17.19,-4.98 26.27,-6.52 5.65,-0.96 11.44,-1.94 12.05,-2.27l4.05 -1.83 69.84 -26.45c4.6,-2.64 6.44,-3.69 10.04,-5.13 3,-1.19 4.42,-1.54 6.79,-2.13 0.89,-0.21 2.26,-0.55 6,-1.72 0.16,-0.05 0.21,0 0.18,0.13 1.99,-1.53 4.48,-3.2 7.66,-5.03l0.13 0c8.62,-4.97 14.25,-6.96 19.67,-8.86 2.53,-0.88 5,-1.76 7.91,-3.59l3.42 -2.03 1.69 -20.51 30.81 0c3.45,0 5.89,-2.13 10.26,-5.96l6.57 -5.63 -0.06 -0.07 72.35 -61.27c17.91,-20.05 37.06,-37.9 54.65,-58.47l0 -0.13c16.75,-19.58 22.66,-28.68 30.58,-40.9 4.82,-7.43 10.27,-15.83 17.35,-25.89l1.44 -1.96 5.11 -6.24c10.85,-16.67 22.23,-47.24 25.72,-56.64 0,-0.41 1.45,-3.9 1.78,-4.69 3.05,-7.02 5.77,-10.94 8.28,-13.89 5.95,-23.5 10.62,-29.53 14.43,-34.43 0.88,-1.02 -1.77,2.32 -0.75,-3.55 2.87,-16.29 6.7,-22.88 10.39,-29.22l0 -0.13c0.68,-1.17 1.35,-2.33 2.03,-7.81 2.38,-19.2 7.22,-27.64 12.12,-36.18 1.28,-2.24 2.6,-4.51 3.26,-7.37 0.9,-3.86 0.63,-10.13 0.36,-16.39 -0.45,-10.37 -0.89,-20.79 1.37,-32.13 1.2,-5.93 2.51,-9.38 4.02,-13.31l0 -0.13c0.71,-1.85 1.53,-3.99 2.27,-7.21l0 -0.13c2.93,-12.57 3.96,-41.31 3.4,-70.8 -0.57,-29.7 -2.75,-58.92 -6.2,-71.96 -3.05,-11.48 -3.8,-22.58 -4.56,-33.87 -0.6,-8.99 -1.22,-18.23 -3.08,-24.62 -1.92,-2.69 -3.84,-6.15 -5.83,-10.59 -1.56,-3.51 -1.85,-4.8 -2.98,-9.05l-1.09 -4.19c-1.34,-5.03 -1.79,-9.39 -2.31,-14.44 -0.21,-2.1 -0.47,-4.48 -1.09,-8.09 -0.17,-1.01 0.69,0.21 0.4,-0.2l0.08 -0.06c-3.8,-5.3 -7.84,-10.95 -11.26,-25.42 -3.24,-13.76 -4.78,-16.74 -6.02,-19.18l0 -0.13c-3.18,-6.22 -5.79,-11.28 -8.57,-26.05l-13.91 -35.73c-1.15,-1.37 -2.26,-2.79 -3.29,-4.26 -1.61,-2.21 -2.37,-3.33 -4.36,-7.37l-63.44 -92.79 -0.13 0c-1.85,-2.55 -3.29,-4.86 -4.44,-6.74l-1.98 -2.39c-3.09,-3.61 -6.15,-7.37 -9.17,-11.1 -2.8,-3.45 -5.56,-6.83 -8.71,-10.47l-50.1 -50.46 -6.88 -5.93 -155.95 -101.84 -33.64 -13.33 -3.93 -1.83 -3.23 -1.91 -73.72 -20.18 -4.06 -1.3c-5.24,-2.19 -10.92,-3.64 -17.1,-4.72 -8.31,-1.47 -15.99,-2.25 -24.3,-3.06 -18.38,-1.79 -27.18,-6.13 -32.81,-11.36l-3.16 0.39c-8.72,1.12 -18.93,2.41 -31.84,0.92 -56.3,-6.55 -94.75,1.12 -119.43,6.05 -12.52,2.49 -22.25,4.44 -31.77,4.44 -19.27,0 -15.48,-2.6 -17.04,-1.53 -4.56,3.11 -10.75,7.29 -26.06,11.86 -9.42,2.81 -15.41,3.32 -21.44,3.83 -2.22,0.19 -4.47,0.39 -6.3,0.74 -3.78,3.09 -9.43,6.29 -20.19,9.53l-128.88 58.98c-6.74,4.95 -16.21,11.3 -26.41,16.31l-0.55 0.27zm-240.69 749.61l-1.9 -2 1.43 2.1 0.47 -0.1zm275.31 329.85c0.36,0.41 0.22,0.26 0,0zm-238.8 -1701.39c-27.46,0 -41.11,-11.8 -56.05,-24.72l-6.62 -5.62 -22.44 -15.65c-0.8,-0.46 -0.84,-0.42 -2.97,-1.84l-2.01 -1.19c-2.65,-1.99 -5.54,-3.98 -8.08,-6.07l-0.13 -0.26 -3.07 -2.55c-13.31,-10.16 -48.65,-36.64 -77.81,-56.88l-0.13 0c-16.96,-11.78 -31.25,-21.23 -36.16,-23.25 -9.89,-4.08 -15.65,-7.08 -20.21,-9.44l-0.13 0c-5.81,-3.02 -7.53,-3.91 -34.76,-3.91l-3.45 0 0 -0.13c-19.84,-0.03 -53.83,-0.06 -62.21,4.51l-3.79 1.84 -24.3 9.46 -1.62 1.08c-1.15,0.73 -0.85,0.48 -0.94,0.56 -2.38,1.91 -4.15,3.32 -9.75,6.33l-47.07 30.26 -36.76 31.99 -0.06 -0.08c-6.23,5.46 -10.99,8.84 -15.35,11.96 -4.51,3.2 -8.35,5.93 -12.15,11.16l-2.75 3.4 -150.97 159.27c-5.63,5.68 -11.17,10.51 -16.47,15.15 -6.99,6.1 -13.49,11.79 -18.14,18.67l-27.83 35.89c-5.57,7.58 -13.82,21.19 -20.74,35.1 -4.81,9.56 -8.53,18.31 -9.31,23.14l-0.46 2.85c-1.62,10.17 -3.06,19.22 -6.95,29.78l0 0.13c-3.53,9.54 -4.82,20.89 -4.69,32.59 0.2,16.96 3.26,34.67 6.92,49.83 2.1,8.7 2.37,13.58 2.66,18.81l0.15 2.51 29.61 60.45 33.46 43.04 1.57 2.22c4.7,7.19 11.12,14.44 17.47,21.61 8.05,9.1 16.06,18.15 22.79,28.45l3.08 4.93c2.3,3.3 5.35,7.11 8.25,10.72 23.29,29.08 40.45,50.54 5.81,98.95l-1.14 5.33c-1.89,8.51 -3.85,17.42 -10.04,27.9 -2.26,3.74 -2.33,5.84 -2.36,7.26 -0.98,32.56 -1.2,39.45 -58.48,44.76l-17.97 4.65c-13.02,3.68 -25.18,5.09 -38.28,6.62 -13.24,1.54 -27.73,3.23 -42.52,7.71 -12.07,3.65 -24.31,3.54 -36.86,3.42 -8.88,-0.08 -18.13,-0.16 -19.86,0.99 -12.48,8.27 -19.52,10.24 -28.15,12.61 -4.04,1.12 -8.84,2.45 -17.84,7.18 -3.73,1.95 -6.55,3 -9.66,4.16 -4.99,3.04 -10.01,6.01 -14.87,9.24l-53.58 45.39 -20.93 30.75 -3.19 4.09 -0.96 2.41c-5.11,12.82 -8.76,17.88 -11.88,22.2 -0.46,0.64 -0.84,1.18 -2.28,6.7 -1.6,6.52 -2.03,6.93 -5.25,13.74 0.34,-0.09 0.35,0.28 -0.09,1.26l-1.06 2.23c-0.35,0.67 -1.24,1.42 -1.55,2.43 -3.17,10.32 -4.71,104.05 -4.87,202.78 -0.18,110.04 1.37,223.23 4.24,233.21l0 0.13c0.65,2.26 1.38,3.74 2.01,5 3.35,6.82 5.9,11.95 7.94,30.37l0.22 2.2 21.79 33.09 0.4 0.38c7.41,11.65 14.97,21.73 23.3,30.74 8.34,9.03 17.69,17.3 28.68,25.37l15.45 11.35c4.13,2.7 6.71,4.86 9.03,6.78 0.34,0 30.89,13.53 34.08,14.91 12.94,2.71 20.12,5.74 26.65,8.5 5.15,2.18 9.52,4.02 26.93,4.29 19.07,0.32 31.36,4.27 43.54,8.19 7.02,2.26 14.01,4.51 21.67,4.84 15.01,0.65 30.84,1.42 45.56,3.2 16.88,2.05 33.6,5.44 49.07,11.35l3.02 1.04c7.21,2.38 10.59,3.42 17.11,10.65l0.13 0.13c6.59,7.4 7.2,11.11 8.57,18.35l0.53 2.13c1.64,5.75 2.02,9.49 2.16,12.71l0.06 2.07 -0.06 -2.07 10.81 28.91 1.31 4.44c0.05,0.27 0.48,0.88 0.88,1.47 4.23,6.12 8.41,12.19 11.16,25.91l0.13 0c1,4.98 -1.01,3.11 -0.4,3.69 9.44,8.88 16.14,15.2 15.37,45.94 -0.64,24.83 -16.79,42.45 -30.5,57.39 -2.74,2.99 -5.38,5.86 -6.82,7.66l-6.37 7.61 -78.83 126.42c-4.17,15.26 -8.64,20.71 -12.7,25.68 -0.15,0.18 0.27,-0.33 -1.59,24.26 -1.16,15.2 -3.6,23.53 -5.59,30.34l0 0.13c-1.26,4.3 -1.99,6.83 3.98,30.82 3.1,12.44 3.52,17.99 4.15,26.72l0.72 9.33c0.1,1.1 4.05,10.35 8.96,21.45 6.4,14.46 13.82,29.45 17.43,34.96l28.08 40.81c2.58,3.47 4.33,5.9 5.43,7.12 1.08,1.19 2.47,2.43 4.74,4.16 28.27,21.6 55.77,49.09 82.19,75.53l0.06 -0.07c10.97,10.97 21.79,21.79 26.98,26.81 47.42,47.42 98.64,93.4 147.58,139.5l25.15 14.34c11.53,8.04 32.38,13.05 46.18,17.97 11.52,1.26 22.52,3.59 33.94,6l0.13 0c15.33,3.24 31.64,6.7 49.05,6.79 0.41,0 0.25,0.26 0,0.51l0 0.21c3.85,-2.55 8.11,-5.31 15.59,-7.88 6.91,-2.41 14.05,-3.43 21.02,-4.4l5.47 -0.69 122.9 -76.14c6.24,-4.06 13.78,-10.53 21.53,-17.15 34.39,-29.42 71.6,-61.27 124.97,-31.29 2.37,1.34 4.53,2.66 6.5,3.98 3.07,0.32 6.58,0.74 11.48,1.97 15.15,3.79 19.76,7.66 24.28,11.71l0.04 -0.17c-0.46,-0.61 -0.8,-1.34 0.28,-1.19l4.64 1.05c15.24,3.57 22.49,5.32 31.93,20.9 4.6,7.59 6.34,14.8 9.6,28.4l4.03 16.04c3.5,13.65 3.57,31.18 3.64,49.18 0.06,16.59 0.12,33.84 2.44,38.44l0 0.13c11.53,22.94 11.95,36.32 12.33,49.07 0.11,3.76 0.23,7.41 1.86,11.52l-0.12 0.05c4.1,10.34 6.21,17.19 8.08,23.29 2.18,7.08 3.93,12.78 8.68,20.97 5.29,9.1 7.71,14.06 9.82,18.39 2.92,5.98 5.07,10.41 14.44,22.99 7.44,10.01 15.45,19.52 24.15,28.21 8.55,8.54 17.75,16.31 27.72,23.01 6.13,4.12 9.38,6.48 12.41,8.68 9.97,7.24 17.97,13.04 32.1,15.35l2.73 0.47 0.02 -0.09c4.84,0.71 9.25,1.38 15.66,3.45 8.11,2.65 13.98,5.07 18.79,7.05 7.6,3.13 10.23,4.21 48.1,4.21l45.48 0.54c98.32,1.1 308.38,3.44 334.13,-4.09l62.22 -29.52 9.8 -6.69c11.6,-7.89 23.58,-16.06 31.94,-25.14l53.04 -87.98c4.03,-14.59 8.77,-20.44 13.44,-25.55 0.47,-3.23 0.15,-9.29 -0.17,-15.26 -0.35,-6.33 -0.7,-12.6 -0.34,-19.48 0.82,-15.77 3.52,-22.21 6.57,-29.49 0.85,-1.92 1.76,-4.09 2.42,-7.85 9.88,-30.23 17.09,-89.88 23.79,-125.27l15.3 -7.35c11.87,-5.71 18.74,-6.19 25.26,-6.57l0.5 -0.54c4.55,-4.84 6.1,-5.68 17.97,-9.88l46.32 -21.46c9.51,-5.07 22.09,-8.96 35.12,-9.2 12.71,-0.24 25.89,2.81 37.7,11.04l25.6 20.57c1.16,0.65 2.69,1.59 4.96,3.13l81.33 55.25c4.83,3.48 11.38,7.13 17.91,10.76 10.83,6.03 21.67,12.07 31.74,20.55l-0.05 0.06c4.94,4.07 19.76,8 37.01,11.17 26.06,4.79 54.24,6.46 67.47,4.93 6.97,-0.8 14.7,-1.26 22.84,-1.72 5.41,-0.3 11.03,-0.63 16.08,-1.04l42.55 -14.74c2.97,-2.51 6.63,-5 15.6,-8.85 4.23,-1.82 7.07,-2.72 9.37,-3.43l0.23 -0.03c-0.12,0.01 -0.52,0.08 -0.16,-0.23l18.98 -13.36c6.22,-4.35 9.84,-6.71 12.81,-8.65 7.1,-4.63 9.73,-6.37 20.74,-19.48 47.27,-51.01 99.48,-103.63 148.76,-152.91 5.4,-5.12 10.56,-9.17 15.46,-13.01 5.37,-4.31 10.4,-8.26 13.98,-13.23l1.7 -2.22 68.07 -79.11 29.33 -71.57c0.97,-4.87 2.25,-9.9 3.64,-15.53 5.22,-20.89 13.14,-52.65 4.54,-68.3 -6.77,-12.33 -7.94,-22.7 -9.15,-33.36 -0.52,-4.63 -1.08,-9.45 -2.29,-11.48 -8.08,-13.52 -15.58,-27.58 -23.52,-41.21l-1.84 -3.92 -75.56 -100.23 -0.26 -0.52c-2.08,-2.85 -4.82,-6.28 -7.75,-9.93l-0.06 0.05c-9.82,-12.26 -21.42,-26.73 -26.24,-39.75l0.08 -0.03c-9.18,-24.99 4.11,-51.33 14.69,-72.23 2.28,-4.53 4.43,-8.76 5.22,-10.64 4.41,-10.43 6.45,-13.09 9.41,-16.35l-0.1 -0.06 0.34 -0.36c0.99,-1.86 0.99,-3.92 0.99,-10.51l-0.13 0 0 -32.05 30.73 -2.56c14.04,-1.17 19.91,-3.54 25.55,-5.82 13.29,-5.39 26,-10.53 64.29,-10.27 21.46,0.14 22.68,-0.71 23.74,-1.46 8.28,-5.86 15.83,-11.19 39.84,-11.62 19.64,-0.36 23.63,-1.92 28.97,-4.07 6.36,-2.62 13.82,-5.64 28.25,-8.81l4.17 -0.71 0 -0.13c1.56,-0.28 2.39,-0.28 2.87,-0.43 0.3,-0.3 2.05,-1.19 2.53,-1.47l59.15 -37.79c12.78,-10.56 19.59,-19.07 26.81,-28.1 6.1,-7.62 12.44,-15.55 20.48,-23.94l0.06 0.06 4.15 -4.27c0.89,-5.76 2.37,-12.53 7.72,-22.57 2.25,-4.22 3.88,-6.75 5.15,-8.54l-0.21 -0.05c-0.13,0.1 -0.2,0.1 -0.17,-0.03 2.24,-11.16 5.37,-19.15 8.34,-26.7 1.93,-4.92 3.76,-9.57 4.1,-12.47 1.75,-14.69 1.1,-33.67 0.45,-52.48 -0.57,-16.67 -1.14,-33.27 -0.34,-48.12 0.4,-7.62 1.05,-13.26 1.68,-18.89 0.92,-8.26 1.87,-16.65 1.7,-27.31 -0.1,-6.78 -0.78,-13.13 -1.47,-19.61l0 -0.13c-0.99,-9.44 -2.02,-19.16 -2.02,-32.19 0,-13.28 1.03,-22.79 2.04,-32.07 0.63,-5.74 1.24,-11.4 1.42,-17.17 0.36,-11.5 -0.65,-20.67 -1.64,-29.7 -0.64,-5.79 -1.29,-11.57 -1.7,-19.19 -0.6,-11.09 -0.05,-27.63 0.54,-45.71 0.97,-29.76 2.12,-64.55 -1.29,-73.83 -0.04,-0.1 0,-0.1 0.08,-0.04l0.08 -0.03c-2.82,-3.71 -5.48,-7.76 -8.98,-19.64 -2.12,-7.2 -3.28,-12.09 -4.45,-17 -2.51,-10.59 -4.98,-20.97 -9.15,-26.44 -0.88,-0.79 -1.82,-1.64 -3.17,-3.14 -11.48,-14.78 -22.61,-29.85 -34.12,-44.6l-0.07 0.05c-5.78,-6.78 -13.82,-13.53 -22.54,-19.91 -9.89,-7.26 -20.36,-13.91 -29.85,-19.87l-2.74 -0.95c-3.26,-1.16 -6.66,-2.36 -12.82,-5.6l-0.13 0c-9.71,-5.11 -15.47,-6.56 -19.9,-7.67 -2.89,-0.72 -5.53,-1.39 -7.99,-2.2 -2.54,-1.09 -5,-1.95 -7.56,-3.1 -5.01,-2.13 -9.6,-3.8 -14.31,-4.9 -5.26,-1.21 -11.13,-1.97 -18.27,-2.22l-5.95 -0.2c-7.61,-0.23 -10.77,-0.35 -15.29,-1.63 -8.18,-2.38 -11.53,-4.82 -14.99,-8.49 -10.32,-1.68 -21.77,-1.68 -32.98,-1.68 -18.3,0.01 -36.18,0.01 -54.87,-5.38 -6.87,-1.99 -12.29,-3.89 -17.71,-5.78 -6.59,-2.29 -13.22,-4.62 -22.32,-6.74l-25.2 -5.87 -0.55 -26.02c-0.05,-2.89 -0.29,-4.84 -0.73,-6.29 -0.4,-1.36 -1.26,-3 -2.51,-5.11l-1.83 -3.53 -21.47 -49.39 -1.7 -4.84c-1.76,-6.6 -4.35,-10.97 -6.42,-14.46 -14.15,-23.59 -20.94,-35 8.51,-77.53l16.39 -21.78c11.83,-15.16 42.88,-56.74 66.65,-91.45 13.22,-19.31 23.39,-34.77 24.09,-37.59 3.27,-13.02 7.3,-18.43 11.38,-23.96 0.23,-0.32 0.49,-0.66 0.86,-2.2 0.51,-2.15 0.36,-6.94 0.2,-11.72 -0.19,-5.87 -0.39,-11.77 0.05,-17.32 0.79,-9.92 2.16,-15.98 3.53,-22.08 1.26,-5.64 2.58,-11.4 2.69,-30.5l-10.39 -53.58c-1.26,-2.01 -2.6,-4.43 -4.01,-7.4l-11.26 -26c-3.1,-5.03 -3.89,-6.95 -5.27,-10.27l-0.89 -2.02 -3.46 -5.5c-1.21,-1.38 -2.77,-3.34 -4.94,-6.41l0.08 -0.06 -18.74 -25.41 -4.4 -4.73 0 -0.13c-5.38,-5.8 -8.88,-9.57 -14.96,-17.96l-0.09 -0.13c-4.17,-5.75 -6.41,-8.84 -10.14,-11.3l-0.14 0c-28.3,-18.68 -52.98,-44.99 -76.71,-70.27 -8.28,-8.81 -16.47,-17.54 -23.91,-25.01 -15.08,-14.84 -31.35,-29.87 -45.81,-45.16l-23.39 -1.93 -0.98 -11.9 -11.89 -0.98 -2.35 -28.26c-0.06,-0.79 -4.69,-2.72 -9.17,-6.04 -2.93,-2.26 -5.87,-4.44 -8.75,-6.81l-50.49 -38.51 -46.91 -22.55 -60.12 -11.31c-9.48,0.03 -17.06,0.2 -23.29,0.86 -7.02,0.75 -13.82,2.12 -21.83,4.55l0 0.13c-10.49,3.18 -19.97,3.42 -29.4,3.64 -5.26,0.13 -10.55,0.27 -11.34,0.78 -0.07,0.05 -0.08,0.02 -0.04,-0.06l-0.17 -0.27 -17.23 10.06 -2.72 0.47 -2.56 0.65c-3.94,1.05 -0.59,-1.98 -1.97,-0.74 -2.67,2.42 -6.25,5.66 -14.01,10.47 -13.63,8.44 -27.59,19.13 -41.47,29.76 -11.22,8.58 -22.4,17.13 -35,25.65l-41.33 31.86c-4.52,3.42 -7.1,4.97 -9.68,6.49l-2.51 1.55 -4.29 3.22c-27.42,20.01 -39.44,28.7 -83.16,8.41 -4.5,-2.46 -8.99,-5.07 -13.4,-7.67l-35.48 -14.11 -4.54 -1.03c-12.12,-2.64 -17.46,-3.8 -25.72,-13.29l0 -0.13c-7.16,-8.23 -7.94,-13.18 -9.16,-21.82 -0.27,-1.79 -0.65,-4.43 -1.55,-7.68 -0.84,-3.02 -2.12,-6.22 -3.34,-9.28 -3.07,-7.53 -5.93,-14.69 -7.2,-24.2l0 -0.13c-1.51,-11.33 -1.84,-22.06 -2.16,-32.44 -0.34,-11.35 -0.68,-22.2 -3.01,-30.03 -1.18,-3.81 -1.84,-5.52 -2.39,-6.98 -3.55,-9.12 -5.75,-14.86 -6.05,-33.72 -0.37,-22.7 -1.26,-24.37 -2.55,-26.8 -3.18,-5.97 -7,-13.14 -10.8,-29.32 -4.05,-17.27 -11.71,-34.1 -21.59,-49.78 -11.73,-18.62 -26.38,-35.57 -41.92,-49.95l-0.13 0 -2 -1.83 -36.78 -24.47c-4.51,-1.29 -8.59,-2.77 -16.97,-8.84 -2.44,-1.77 -4.65,-3.5 -6.65,-5.19l-53.61 -10.82c-22.77,-2.62 -98.8,-3.62 -179.7,-3.44 -91.67,0.2 -189.39,2.02 -222.62,4.73 -3.99,0.33 -7.33,1.78 -10.87,3.32 -6.53,2.85 -13.4,5.83 -24.5,8.13l-6.12 1.23 -5.17 2.64c-21.94,10.73 -31.04,9.95 -36.44,9.49l-2.06 -0.18 0.45 0.41c2.37,0.76 7.49,2.59 6.34,5.91l0.32 0.3c-23.24,24.87 -51.11,52.08 -72.57,77.78l-2.61 3.98c-9.08,17.71 -11.68,27.14 -13.66,34.34 -2.23,8.1 -4.02,14.58 -8.43,22.75l0 0.13c-2.18,4.02 -2.58,11.58 -2.96,18.97 -0.76,14.76 -1.51,29.26 -10.32,45.31 -3.46,6.32 -4.44,25.22 -5.3,42.03l-1.04 19.04c-0.26,4.93 -0.38,7.25 -1,10.43 -0.83,4.08 -1.6,6.02 -3.03,9.58 -0.39,0.85 -0.92,2.2 -2.06,5.47 -0.54,1.55 -1.11,3.75 -1.61,6.16 -0.64,2.95 -1.05,5.4 -1.18,7l0 0.13c-3.95,43.75 -6.86,44.46 -39.54,52.15 -2.97,0.7 -6.71,1.58 -9.22,2.37 -1.22,0.43 -2.19,1 -3.05,1.49 -4.32,2.51 -8.23,4.78 -16.65,6.95 -6.4,1.66 -9.2,2.21 -11.58,2.68 -1.81,0.35 -2.67,0.53 -6.4,2.94l-0.44 0.31c-1.09,0.74 -2.04,1.45 -4.46,2.75l-4.22 2.14c-3.72,1.68 -5.46,1.93 -8.64,2.58l-0.13 0.13c-1.98,0.4 -7.08,1.42 -9.86,3.29l-1.79 1.51c-9.38,7.77 -15.61,12.94 -37.06,12.94zm-363.28 -136.44l-1.06 0.68 1.06 -0.68zm-0.01 -0.04l0.54 -0.34 -0.54 0.34zm118.8 2598.83c-0.31,0.31 -0.75,0.6 -0.36,0.34l0.36 -0.14 0 -0.21zm354.07 -119.4l0.09 0.08c0.46,0.41 0.25,0.22 -0.07,-0.16l-0.02 0.08zm915.95 -0.55l0.27 -0.01c0.21,-0.01 -0.1,0 -0.13,-0.13l-0.13 0.14zm484.16 79.42l-0.98 0.9 0.07 0.08 0.97 -0.85 -0.06 -0.13zm246.6 -810.05l-0.1 -0.06 0.1 0.06zm0.04 -0.05l0.75 -0.82 0 -0.13 -0.75 0.95zm375.53 -215.44l0.83 -1.13 -1.04 1.08 0.21 0.05zm1.75 -2.23c0.49,-0.61 0.37,-0.44 0,0zm9.74 -453.47l0.72 0.79 -0.63 -0.82 -0.08 0.03zm1.04 1.17c0.15,0.19 0.22,0.28 0,0zm-822.15 -1089.66l0.35 -0.57 -0.51 0.3 0.17 0.27zm1097.97 -1367.2l0 117.22 -3709.85 0 0 -471.52c0,-7.32 4.55,-27.68 10.16,-45.5l0 -0.13c4.4,-13.95 10.05,-28.15 15.65,-36.46 0.95,-6.66 4.28,-16.2 14.58,-32.61l10.46 -16.09 2.36 -3.14 5.11 -5.95 4.96 -5.1 53.54 -45.05c9.24,-7.16 20.48,-13.24 31.96,-17.87 12.08,-4.95 25,-8.45 36.36,-10.11 3.73,-0.56 6.32,-1 8.01,-1.41 1.46,-0.39 2.96,-0.92 4.86,-1.68l0.04 0.1 1.71 -0.93c7.81,-4.26 14.71,-8.02 30.22,-8.02l3243.51 0c17.34,0 26.8,3.98 37.07,8.32 3.42,1.44 7.07,2.98 11.64,3.75l0.13 0c10.51,1.79 22.11,4.83 33.71,9.15 10.42,3.87 20.78,8.83 30.25,14.89l2.74 1.96 48.57 38.39c4.29,4.01 8.92,8.36 11.57,13.71l26.91 39.1 2.74 4.7c2.95,6.26 4.68,9.15 5.95,11.28 4.37,7.3 6.47,10.82 9.55,24.37 1.35,5.98 1.8,9.92 2.21,13.68 0.25,2.24 0.49,4.37 0.93,5.82 0.07,0.22 -0.03,0.21 -0.21,0.06l-0.16 0.04c4.64,5.73 7.42,10.18 9.22,27.72 1.87,30.87 3.56,66.47 3.56,97.27 -0.13,11.48 -1.14,17.76 -2.13,24.02 -0.63,3.98 -1.27,7.97 -1.34,14.37 -0.09,7.94 0.51,20.1 1.11,32.06 0.92,18.35 1.81,36.33 0.25,47.57 -1.47,10.58 -2.18,22.46 -2.12,34.13 0.04,11.46 0.89,23.23 2.49,33.76 3.08,20.36 2.53,41.84 2,62.84 -0.12,4.81 -0.25,9.54 -0.25,21.28zm-12.63 -395.06c-0.54,-0.43 -1.83,-2 -1.27,-1.31l1.12 1.36 0.16 -0.04zm-3852.53 172.83c0,23.37 0.24,36.74 0.47,49.85 0.61,34.55 1.23,69.24 -0.6,103.24 -0.5,9.46 -1.36,13.85 -2.21,18.15 -0.53,2.61 -1.04,5.26 -1.2,10.14 -0.35,10.37 0.71,24.06 1.8,38.11 1.52,19.64 3.1,39.96 1.43,60.08 -2.36,28.71 -1.76,39.68 -0.97,53.94l0 0.13c0.59,10.81 1.28,23.22 1.28,39.98l-0.13 0 0.1 149.19c-0.31,10.47 -1.27,15.76 -2.24,21.07l0 0.13c-0.51,2.84 -1.05,5.73 -1.23,10.96 -0.38,10.8 0.47,20.38 1.38,30.39 1.04,11.51 2.13,23.53 2.13,36.28 0,14.55 -1.01,26.41 -1.97,37.76 -0.88,10.46 -1.73,20.47 -1.59,29.41 0.1,5.78 0.72,9.35 1.36,12.96 0.78,4.46 1.59,9.02 2.07,18l0.09 179.88c-0.31,10.45 -1.23,15.83 -2.12,21.22 -0.63,3.78 -1.27,7.58 -1.37,13.63 -0.2,11.31 0.84,25.5 1.89,39.95 1.55,21.26 3.16,43.13 1.33,65.26 -2.36,28.71 -1.76,39.68 -0.97,53.93l0 0.13c0.59,10.81 1.28,23.24 1.28,39.99 0,23.04 0.23,36.05 0.46,48.78 0.6,33.85 1.21,67.82 -0.58,101.11 -0.48,8.98 -1.29,13.53 -2.07,17.98 -0.63,3.63 -1.26,7.21 -1.36,12.98 -0.17,10.35 0.84,23.96 1.88,37.94 1.54,20.89 3.14,42.58 1.38,64.01 -0.47,5.79 -1.23,10.15 -1.95,14.37 -0.71,4.17 -1.39,8.17 -1.34,14.76l3.56 214.11c-0.32,10.66 -1.27,15.92 -2.25,21.21 -0.52,2.76 -1.04,5.6 -1.22,11.08 -0.37,10.75 0.48,20.29 1.38,30.26 1.04,11.51 2.13,23.53 2.13,36.27 0,14.55 -1.01,26.41 -1.97,37.76 -0.88,10.46 -1.73,20.47 -1.59,29.42 0.1,5.78 0.72,9.35 1.36,12.96 0.78,4.46 1.59,9.02 2.07,18l0.13 1.7 0 183.62 -0.13 1.7c-0.5,9.47 -1.36,13.86 -2.21,18.16 -0.53,2.61 -1.04,5.26 -1.2,10.14 -0.3,9.01 0.52,17.37 1.4,26.18 1.04,10.47 2.14,21.49 2.14,34.01 0,15.08 -0.99,27.77 -1.94,39.96 -0.84,10.84 -1.65,21.32 -1.6,30.8 0.04,7.38 0.7,11.6 1.36,15.8 0.82,5.08 1.65,10.25 2.06,18.01l0.09 179.89c-0.32,10.65 -1.27,15.93 -2.25,21.21 -0.52,2.76 -1.04,5.61 -1.22,11.09 -0.37,10.75 0.48,20.28 1.38,30.26 1.04,11.51 2.13,23.53 2.13,36.27 0,14.55 -1.01,26.42 -1.97,37.76 -0.88,10.45 -1.73,20.46 -1.59,29.41l3.53 214.08c-0.32,10.65 -1.27,15.91 -2.25,21.21 -0.52,2.76 -1.04,5.61 -1.22,11.08 -0.4,11.33 0.7,25.57 1.81,40.07 1.53,19.95 3.11,40.42 1.38,61.25 -2.36,28.7 -1.76,39.67 -0.97,53.92l0 0.13c0.59,10.81 1.28,23.23 1.28,39.99l-0.13 0 0.1 149.19c-0.31,10.45 -1.23,15.83 -2.12,21.22 -0.63,3.78 -1.27,7.58 -1.37,13.63 -0.18,10.24 0.69,20.82 1.59,31.83l0 0.13c0.95,11.64 1.94,23.71 1.94,38.47 0,17.53 -0.71,29.08 -1.3,38.86 -0.75,12.26 -1.29,21.17 0.99,48.75 1.24,15 1.72,42.99 1.77,73.79 0.06,42.14 -0.76,88.88 -1.49,113.4 -0.32,10.66 -1.27,15.92 -2.25,21.22 -0.52,2.77 -1.04,5.64 -1.22,10.96l0 0.13c-0.4,11.32 0.7,25.55 1.81,40.06 1.53,19.95 3.11,40.43 1.38,61.24 -2.36,28.7 -1.76,39.68 -0.97,53.93l0 0.14c0.59,10.81 1.28,23.23 1.28,39.99 0,23.37 0.24,36.74 0.47,49.86 0.61,34.55 1.23,69.24 -0.6,103.24 -0.5,9.47 -1.36,13.85 -2.21,18.15 -0.53,2.61 -1.04,5.26 -1.2,10.13 -0.37,10.81 0.71,25 1.81,39.55 1.53,20.28 3.12,41.26 1.42,61.87 -2.34,28.27 -1.68,42.52 -0.88,59.68 0.57,12.25 1.19,25.74 1.19,40.82l-0.13 0 0.1 142.74c-0.32,10.65 -1.27,15.93 -2.25,21.22 -0.52,2.76 -1.04,5.61 -1.22,11.07 -0.37,10.75 0.48,20.29 1.38,30.27 1.04,11.5 2.13,23.52 2.13,36.26 0,14.77 -0.99,26.84 -1.94,38.47l0 0.13c-0.9,11.02 -1.77,21.6 -1.59,31.84l3.49 210.82c-0.31,10.64 -1.27,15.92 -2.25,21.22 -0.52,2.75 -1.04,5.61 -1.22,11.08 -0.37,10.74 0.48,20.28 1.38,30.25 1.04,11.51 2.13,23.53 2.13,36.28 0,14.54 -1.01,26.4 -1.97,37.75 -0.85,10.06 -1.67,19.7 -1.6,28.38l3.57 69.15c0,23.38 0.24,36.76 0.47,49.87 0.61,34.55 1.23,69.23 -0.6,103.23 -0.49,9.27 -1.36,13.68 -2.2,18.01l0 0.13c-0.52,2.69 -1.05,5.36 -1.21,10.15 -0.35,10.36 0.71,24.05 1.8,38.1 1.52,19.64 3.1,39.96 1.43,60.08 -0.45,5.51 -1.22,9.94 -1.95,14.24l0 0.13c-0.71,4.18 -1.4,8.18 -1.34,14.77l3.56 214.11c-0.32,10.65 -1.27,15.92 -2.25,21.21 -0.52,2.75 -1.04,5.61 -1.22,11.09 -0.37,10.75 0.48,20.29 1.38,30.27 1.04,11.5 2.13,23.52 2.13,36.26 0,14.55 -1.01,26.42 -1.97,37.76 -0.85,10.05 -1.67,19.69 -1.6,28.37l3.57 69.15c0,19.31 0.3,32.12 0.61,44.98 1,41.77 2.03,85.63 -3.34,124.62l0 0.13c-1.58,11.39 -0.46,19.94 0.67,28.61 0.77,5.99 1.56,12.08 1.94,18.96 0.62,11.53 -0.02,23.43 -0.66,35.56 -0.81,15.12 -1.64,30.72 0.59,41.56 2.52,3.74 5.29,8.21 8.23,17.26 2.3,7.09 2.91,12.1 3.52,17.48 0.23,1.92 0.47,3.98 0.92,5.96 2.56,2.94 5.35,6.91 8.55,14.27 3.09,7.13 3.97,11.96 4.86,16.85 0.19,1.07 0.4,2.18 0.94,3.22l42.61 74.75c13.84,21.98 34.47,42.47 54.77,62.63l2.67 2.65c7.03,7 17.77,16.05 29.02,24.4 9.66,7.16 19.42,13.59 26.94,17.34 4.43,2.57 36.28,22.12 36.7,22.12 0.72,0.43 2.08,0.88 3.48,1.34 3.48,1.13 7.08,2.3 12.32,4.9l28.03 10.72c2.7,0.66 4.1,1.03 6.9,2.17 3.4,1.28 4.54,2 6.58,3.27l1.34 0.86c4.74,2.64 10.14,3.55 15.56,4.45 7.57,1.26 15.22,2.54 25.35,6.45 6.71,2.62 5.54,2.14 5.95,2.3l0 0.13c1.4,0.59 2.12,0.89 4.88,0.91l0 -0.13 3363.2 0 -0.08 -0.16c-0.05,-0.05 -0.08,-0.09 0,-0.13l0.06 0.11c7.05,-3.53 15.22,-7.6 32.21,-9.26 8.24,-0.8 9.13,-1.18 10.16,-1.75 3.11,-1.8 6.83,-3.85 12.97,-6.33l117.33 -63.59 5.5 -3.7c0.88,-0.57 1.68,-1.09 4.02,-3.08l5.26 -4.66 0.06 0.07 6.7 -5.95 32.61 -29.78 63.43 -100.55c2.35,-5.61 4.67,-9.24 6.97,-12.8 0.92,-1.42 1.84,-2.86 2.01,-3.57 2.28,-9.44 5.19,-15.9 8.09,-22.36 1.81,-4.03 3.64,-8.11 4.44,-11.98l9.72 -37.45 1.31 -4.19c1.35,-3.34 2.47,-7.53 3.26,-12.18 0.86,-5.03 1.32,-10.68 1.32,-16.53l0 -2163.45c-3.99,0.17 -8.06,0.32 -12.66,0.19 -11.99,-0.32 -16.58,-1.34 -21.25,-2.36 -1.64,-0.35 -3.35,-0.73 -6.01,-0.92 -3.83,-0.27 -6.83,0.32 -9.95,0.92 -4.06,0.79 -8.25,1.61 -13.94,2.09 -24.41,2.05 -55.84,1.36 -85.31,0.73l-10.1 -0.21c-0.31,9.35 0.59,20 1.48,30.5 1.44,17.17 2.87,34.09 0.28,51.42l0 0.13c-1.72,11.46 -0.59,52.28 0.71,99.47 1.86,67.45 4.06,147.22 -1.3,186.3 -1.03,7.52 -0.89,16.33 -0.76,25.04l0.09 11.68c-0.03,6.45 0.82,13.57 1.57,19.86 0.78,6.51 1.49,12.37 1.49,18.62 0,8.13 -0.75,18.32 -1.52,29.12 -1.18,16.24 -2.5,34.24 -0.87,46.08 3.18,23.22 4.31,61.75 4.18,102.15 -0.15,51.53 -2.23,105.63 -4.63,134.77 -0.38,4.62 -0.55,9.2 -0.58,13.35 -0.05,7.32 0.12,15.42 0.3,21.57 0.09,3.18 0.77,7.01 1.4,10.69 1.56,9 3.02,17.49 1.43,31.85 -4.3,38.78 -2.28,86.96 -0.25,135.53 2.32,55.75 4.69,112.05 -1.86,159.82 -0.95,6.93 -0.84,15.12 -0.74,23.21l0.07 10.29c-0.03,8.09 0.78,14.5 1.52,20.32 0.72,5.66 1.4,10.95 1.59,17.42 0.32,11.5 -0.59,22.43 -1.53,33.88 -1.16,14.12 -2.42,29.21 -1.2,40.03 5.06,45.06 4.23,95.9 3.44,144.55 -0.21,12.95 -0.42,25.51 -0.42,49.63l0 33.47 -3709.85 0 0 -4779.2c1236.62,-0.29 2473.24,-0.01 3709.85,-0.01l0 33.47c0,12.57 -0.55,45.91 -1.14,82.58 -1.2,72.45 -2.64,160.13 0.54,191.75 1.15,11.62 0.07,24.09 -1.12,37.77 -1.13,13.21 -2.4,27.86 -1.46,39.29 2.39,28.94 4.48,83.15 4.63,134.81 0.12,40.35 -1.01,78.88 -4.18,102.11 -1.05,7.64 -0.92,16.64 -0.79,25.5l0.08 11.26c-0,6.33 0.82,12.17 1.56,17.42 0.96,6.86 1.84,13.09 1.59,21.75 -0.2,6.48 -0.88,11.77 -1.59,17.43 -0.72,5.65 -1.51,11.87 -1.52,19.68l3.27 122.44 0.13 0.78c0,15.14 0.35,26.01 0.71,36.95 0.99,30.83 2.03,62.9 -1.98,92.24 -2.46,17.99 -2.3,74.35 -2.19,116.55l0.03 30.11 3.31 80.37 0.13 1.3c0,15.68 -0.5,35.28 -0.88,51 -0.5,20.28 -13.55,19.19 -7.15,24.07 4.72,3.6 0.2,-3.94 8.81,-4.52 22.03,-1.48 56.03,-3.78 108.37,2.09 14.48,1.62 30.92,0.87 46.16,-0.33l0 -1930.79c0,-11.86 -0.4,-22.41 -1.61,-31.32 -1.13,-8.42 -2.99,-16.13 -5.9,-23.19 -4.89,-11.85 -5.75,-19.52 -6.72,-28.09 -0.34,-3.1 -0.72,-6.41 -1.3,-9.16 -3.93,-5.35 -8.15,-11.58 -11.77,-27.19 -1.46,-6.33 1.09,-3.23 0.15,-4.37 -2.71,-3.28 -5.89,-7.17 -10.05,-16.92 -2.63,-6.14 -3.59,-10.09 -4.09,-13.35 -12.47,-19.56 -25.36,-39.15 -37.51,-58.88 -6.8,-11.01 -12.15,-19.68 -19.87,-26.68l-0.13 0c-5.99,-5.45 -11.75,-10.74 -17.54,-16.41l-54.33 -44.65 0.19 -0.23 -2.15 -1.22 -0.2 0.25c-14.29,-11.38 -35.11,-22.21 -51.07,-32.01l-2.15 -0.65c-3.51,-1.09 -7.04,-2.18 -12.15,-4.62l-50.68 -20.43 -2.18 -0.12c-4.5,-0.2 -8.75,-0.4 -14.21,-1.65 -16.1,-3.69 -21.63,-8.12 -26.1,-11.72 -2.57,-2.05 4.1,3.3 -18.47,3.34l-3311.16 0.01c-35.08,0 -34.55,-0.37 -34.73,-0.25 -5.62,3.71 -11.52,7.55 -28.94,9.68 -5.01,0.62 -8.63,0.57 -11.67,0.53 0.12,0.07 0.29,0.17 -0.57,0.42 -2.03,1.33 -4.28,2.65 -6.87,3.97 -10.64,5.45 -17.51,6.81 -24.13,8.12 -1.95,0.38 -3.85,0.77 -5.11,1.37 -3.14,2.81 -5.85,4.9 -16.28,9.33l-0.14 0c-12.72,5.39 -25.13,11.57 -37.36,18.68 -11.99,6.96 -23.2,14.4 -33.71,22.4 -2.29,1.91 -6.62,5.04 -8.68,7.11 -4.56,3.34 -7.31,5.43 -9.76,7.38l-7.58 6.33 -83.72 102.88 -0.55 1.08c-1.64,3.6 -2.8,6.12 -6.33,11.59 -9.22,14.29 -13.16,25.1 -17.2,36.2 -3.35,9.22 -6.78,18.63 -11.91,29.17 -0.8,1.62 -1.09,3.8 -1.34,5.87 -0.88,7.15 -1.76,14.12 -6.65,24.38l-0.13 0c-3.72,7.78 -6.6,11.46 -8.93,14.41l0.25 0c0.77,-0.63 1.91,-1.3 2.15,-0.01l0.38 81.39c-0.16,13.36 -0.74,21.03 -1.26,27.99 -0.84,11.33 -1.54,20.62 0.54,39.17 1.16,10.47 0.94,22.89 0.75,34.39l-0.01 10.67zm3693.19 6289.28c0.47,0 0.14,-0.05 -0.06,-0.14l0.06 0.14zm159.78 -6732.79l0.74 0.21 -0.63 -0.36 -0.1 0.15z"/>
 </g>
</svg>
