<?xml version="1.0" encoding="UTF-8"?>
<!DOCTYPE svg PUBLIC "-//W3C//DTD SVG 1.1//EN" "http://www.w3.org/Graphics/SVG/1.1/DTD/svg11.dtd">
<!-- Creator: CorelDRAW 2020 (64-Bit) -->
<svg xmlns="http://www.w3.org/2000/svg" xml:space="preserve" width="6in" height="6in" version="1.1" style="shape-rendering:geometricPrecision; text-rendering:geometricPrecision; image-rendering:optimizeQuality; fill-rule:evenodd; clip-rule:evenodd"
viewBox="0 0 6128.08 6128.08"
 xmlns:xlink="http://www.w3.org/1999/xlink"
 xmlns:xodm="http://www.corel.com/coreldraw/odm/2003">
 <defs>
  <style type="text/css">
   <![CDATA[
    .fil0 {fill:red;fill-rule:nonzero}
   ]]>
  </style>
 </defs>
 <g id="Layer_x0020_1">
  <metadata id="CorelCorpID_0Corel-Layer"/>
  <path id="Shape" class="fil0" d="M1997.14 3861.18c-18.4,0 -35.06,7.45 -47.09,19.48l-0.13 0c-11.94,11.93 -19.33,28.57 -19.33,47.07 0,18.45 7.41,35.1 19.36,47.04 12.04,12.03 28.73,19.49 47.19,19.49 18.36,0 35.02,-7.46 47.05,-19.49l0.13 0c11.96,-11.95 19.37,-28.59 19.37,-47.03 0,-18.49 -7.39,-35.13 -19.33,-47.06l-0.13 0c-12.04,-12.04 -28.7,-19.49 -47.09,-19.49zm3194.6 167.21c-16.49,-16.66 -38.93,-25.61 -61.84,-26.58 -23.19,-0.98 -46.62,6.03 -64.73,21.25l0 0.13c-94.78,79.59 -210.95,119.41 -327.08,119.41 -116.13,0 -232.29,-39.82 -327.06,-119.41 -128.65,-108.01 -279.19,-162.03 -429.54,-162.03 -150.34,0 -300.86,54.02 -429.49,162.03 -94.79,79.59 -201.56,119.41 -308.67,119.41 -107.11,0 -213.88,-39.82 -308.66,-119.41 -42.94,-36.02 -88.36,-66.28 -135.88,-90.54 -47.4,-24.2 -96.84,-42.43 -147.93,-54.51 -24.39,-5.77 -48.82,-1.99 -68.57,8.75 -19.06,10.38 -33.75,27.21 -39.54,48 0,0.75 -0.63,2.06 -0.63,2.82 -4.59,19.35 -0.69,38.71 9.49,54.67 10.68,16.73 28.23,29.98 50.3,36.12l3.65 0.99 0.02 -0.1c37.03,8.75 73.18,22.24 108.14,40.34 34.74,17.99 68.21,40.44 100.1,67.19 63.77,53.55 132.81,93.83 204.41,120.8 73,27.5 149,41.25 225.11,41.25 76.1,0 152.11,-13.76 225.11,-41.25 71.61,-26.97 140.65,-67.24 204.39,-120.76 94.8,-79.6 201.55,-119.41 308.66,-119.41 107.11,0 213.86,39.8 308.64,119.41 62.31,52.32 133.23,92.89 209.04,120.34 75.69,27.41 156.56,41.79 238.91,41.79 82.35,0 163.21,-14.38 238.91,-41.79 75.81,-27.45 146.74,-68.03 209.09,-120.35 1.99,-1.68 3.74,-3.26 5.19,-4.69 13.96,-13.88 21.46,-31.24 22.32,-48.68 0.86,-17.58 -4.85,-35.49 -17.31,-50.31l-0.13 0c-1.59,-1.89 -3.08,-3.54 -4.42,-4.9zm-4363.1 -573.66c-88.38,0 -168.54,35.96 -226.59,94.01l-0.13 0c-57.98,57.96 -93.88,138.11 -93.88,226.57 0,88.37 35.96,168.52 94.01,226.57 58.04,58.04 138.2,94 226.59,94 88.37,0 168.51,-35.96 226.55,-94 58.04,-58.04 94,-138.19 94,-226.57 0,-88.37 -35.96,-168.53 -94,-226.57 -58.04,-58.04 -138.19,-94.01 -226.55,-94.01zm0 474.2c-42.36,0 -80.77,-17.23 -108.58,-45.04 -27.81,-27.81 -45.04,-66.21 -45.04,-108.57 0,-42.35 17.23,-80.76 45.04,-108.57 27.81,-27.81 66.21,-45.04 108.58,-45.04 42.26,0 80.67,17.29 108.54,45.17 27.8,27.81 45.02,66.18 45.02,108.44 0,42.26 -17.22,80.63 -45.02,108.44 -27.87,27.89 -66.28,45.18 -108.54,45.18zm237.06 1253.19l-474.17 0c-24.18,0 -45.77,8.13 -61.1,21.27 -13.82,11.84 -22.39,27.88 -22.39,45.26 0,17.4 8.57,33.43 22.39,45.28 15.33,13.13 36.92,21.27 61.1,21.27l474.17 0c24.19,0 45.78,-8.13 61.11,-21.27 13.82,-11.85 22.38,-27.88 22.38,-45.28 0,-17.38 -8.56,-33.41 -22.39,-45.26 -15.32,-13.13 -36.91,-21.26 -61.1,-21.26zm0 -508.08l-474.17 0c-24.18,0 -45.76,8.14 -61.09,21.28 -13.83,11.85 -22.4,27.9 -22.4,45.28 0,17.4 8.57,33.43 22.39,45.29 15.32,13.14 36.92,21.27 61.1,21.27l474.17 0c24.19,0 45.79,-8.13 61.1,-21.26 13.83,-11.85 22.39,-27.89 22.39,-45.29 0,-17.39 -8.57,-33.44 -22.4,-45.29 -15.32,-13.12 -36.91,-21.27 -61.09,-21.27zm0 -1930.56l-474.17 0c-24.18,0 -45.77,8.13 -61.1,21.27 -13.82,11.84 -22.39,27.88 -22.39,45.26 0,17.4 8.57,33.43 22.39,45.28 15.32,13.14 36.92,21.28 61.1,21.28l474.17 0c24.19,0 45.79,-8.13 61.1,-21.27 13.83,-11.85 22.39,-27.89 22.39,-45.29 0,-17.38 -8.56,-33.41 -22.39,-45.26 -15.32,-13.13 -36.91,-21.26 -61.1,-21.26zm0 -508.07l-474.17 0c-24.18,0 -45.76,8.14 -61.09,21.27 -13.83,11.85 -22.4,27.89 -22.4,45.27 0,17.4 8.56,33.43 22.39,45.29 15.33,13.13 36.92,21.26 61.1,21.26l474.17 0c24.19,0 45.78,-8.13 61.11,-21.26 13.82,-11.85 22.38,-27.89 22.38,-45.29 0,-17.39 -8.57,-33.43 -22.4,-45.28 -15.32,-13.12 -36.91,-21.26 -61.09,-21.26zm4734.25 -746.39l-269.82 0 -24.79 -59.85 455.76 -455.69c53.81,-53.76 95.59,-116.49 123.92,-184.86 28.24,-68.14 43.05,-142.05 43.05,-218.38 0,-76.42 -14.81,-150.36 -43.05,-218.49 -28.25,-68.2 -70,-130.86 -123.86,-184.65l-0.13 -0.13c-53.79,-53.8 -116.54,-95.59 -184.9,-123.92 -68.15,-28.24 -142.02,-43.05 -218.29,-43.05 -76.34,0 -150.21,14.8 -218.32,43 -68.33,28.38 -131.07,70.15 -184.83,123.94l-170.75 170.61 -0.57 0.73 -1140.55 1140.47 -24.79 10.28 -3489.93 0c-90.45,0 -172.49,36.81 -231.91,96.22 -59.41,59.41 -96.22,141.45 -96.22,231.9l0 3982.81c0,90.46 36.8,172.5 96.21,231.91 59.41,59.41 141.45,96.21 231.91,96.21l5471.83 0c90.46,0 172.5,-36.8 231.91,-96.21 59.41,-59.41 96.21,-141.45 96.21,-231.91l0 -3982.81c0,-90.45 -36.81,-172.49 -96.22,-231.9 -59.41,-59.41 -141.45,-96.22 -231.91,-96.22zm-523.47 -1200.32c37.62,-37.6 81.37,-66.75 128.94,-86.47l0.14 0c47.82,-19.82 99.38,-30.21 152.3,-30.21 53.03,0 104.62,10.39 152.46,30.23 47.58,19.72 91.35,48.9 129,86.53l0.13 0.13c37.52,37.52 66.66,81.3 86.42,129.01 19.81,47.83 30.19,99.38 30.19,152.33 0,53.04 -10.39,104.67 -30.21,152.5 -19.71,47.55 -48.85,91.31 -86.47,128.92l-110.45 110.5 -280.22 -280.23c-85.33,-94.49 -191.17,-191.35 -282.71,-282.87l110.49 -110.38zm170.48 391.28l-0.41 -0.42 0.41 0.42zm0.01 -0.01l0.19 0.19 -0.19 -0.19zm-377.96 -134.46l538.39 538.41c-611.12,610.92 -1222.05,1222.03 -1833.14,1833l-17.82 -54.07c-38.16,-115.73 -103.09,-219.44 -187.42,-303.78 -84.33,-84.34 -188.03,-149.26 -303.75,-187.43l-54.07 -17.83c611.01,-611.01 1222.1,-1221.97 1833.02,-1833.09l24.79 24.79zm-2105.56 1812.71l-5.74 6.49c-3.57,4.73 -6.05,8.62 -9.11,13.7l0.1 0.05c-1.22,2.2 -2.11,4.08 -3.2,6.34l-1.25 3.12c-121.67,349.61 -230.4,714.68 -344.21,1068.09 -5.03,15.63 -5.37,32.12 -1.47,47.58 3.88,15.35 12,29.64 23.88,41.03 8.05,7.74 17.37,13.68 27.35,17.69 10.06,4.04 21.01,6.13 32.21,6.13 5.54,0 10.61,-0.4 15.1,-1.2l0 -0.13c5.09,-0.9 10.04,-2.23 14.72,-3.96 251.35,-92.69 849.29,-269.92 1044.95,-387.86l7.6 -5.52 2.69 -2.34c336.26,-338.21 674.66,-674.62 1011.93,-1011.87l24.79 -10.28 668.11 0 0 3290.28 -3810.83 0 0 -3290.28 1515.46 0 -212.79 212.81 -0.27 0.14zm152.31 153.68c129.28,19.89 245.04,81.29 333.22,170.11 88.15,88.79 148.75,204.96 167.75,334.42l4.11 28.09 -802.67 295.99 268.27 -833.11 29.31 4.5zm2840.31 3288.05c0,43.05 -17.51,82.07 -45.77,110.34 -28.26,28.26 -67.29,45.77 -110.34,45.77l-5471.83 0c-43.05,0 -82.07,-17.51 -110.34,-45.77 -28.26,-28.26 -45.77,-67.29 -45.77,-110.34l0 -3982.81c0,-43.03 17.51,-82.07 45.77,-110.33l0.13 0c28.26,-28.25 67.26,-45.76 110.2,-45.76l3247.87 0 24.79 59.85 -242.1 242.09 -24.79 10.28 -1758.88 0c-23.75,0 -45.26,9.63 -60.81,25.18l-0.07 -0.07c-15.51,15.55 -25.11,37.09 -25.11,60.9l0 3462.24c0,23.81 9.61,45.34 25.11,60.89l0.07 -0.07c15.55,15.55 37.06,25.18 60.81,25.18l3982.84 0c23.82,0 45.34,-9.58 60.8,-25.05 15.55,-15.56 25.18,-37.11 25.18,-60.94l0 -3462.24c0,-23.84 -9.63,-45.4 -25.18,-60.96 -15.47,-15.48 -36.98,-25.06 -60.8,-25.06l-512 0 -24.65 -59.85 242.15 -242.09 24.65 -10.28 511.95 0c42.94,0 81.94,17.52 110.2,45.76l0.13 0c28.26,28.26 45.77,67.3 45.77,110.33l0 3982.81z"/>
 </g>
</svg>
