<?xml version="1.0" encoding="UTF-8"?>
<!DOCTYPE svg PUBLIC "-//W3C//DTD SVG 1.1//EN" "http://www.w3.org/Graphics/SVG/1.1/DTD/svg11.dtd">
<!-- Creator: CorelDRAW 2020 (64-Bit) -->
<svg xmlns="http://www.w3.org/2000/svg" xml:space="preserve" width="6in" height="5.11836in" version="1.1" style="shape-rendering:geometricPrecision; text-rendering:geometricPrecision; image-rendering:optimizeQuality; fill-rule:evenodd; clip-rule:evenodd"
viewBox="0 0 5805.34 4952.3"
 xmlns:xlink="http://www.w3.org/1999/xlink"
 xmlns:xodm="http://www.corel.com/coreldraw/odm/2003">
 <defs>
  <style type="text/css">
   <![CDATA[
    .fil0 {fill:red}
   ]]>
  </style>
 </defs>
 <g id="Layer_x0020_1">
  <metadata id="CorelCorpID_0Corel-Layer"/>
  <path class="fil0" d="M1480.1 3449.09c-94.06,-21.91 -150.32,-57.97 -150.32,-178.5 0,-368.22 -48.38,-587.49 169.16,-836.11 17.72,-20.25 55.15,-50.95 80.26,-70.05 37.79,-28.74 57.71,-36.68 101.2,-58.52 150.26,-75.48 344.46,-77.98 495.08,-3.17 34.39,17.08 65.11,30.22 96.72,53.6 25.44,18.82 65.77,50.59 86.65,73.07 219.63,236.56 173.48,483.5 173.48,841.18 0,119.11 -55.18,156.33 -150.32,178.5l0 -676.44 -150.31 0 0 1897.79c0,36.43 -12.41,71.46 -30.16,91.97 -64.03,74.01 -195.32,37.1 -195.32,-91.97l0 -1371.67 -150.32 0 0 1371.67c0,36.43 -12.41,71.46 -30.15,91.97 -43.51,50.29 -121.66,50.29 -165.17,0 -17.75,-20.51 -30.15,-55.54 -30.15,-91.97l0 -1897.79 -150.32 0 0 676.44zm4325.18 -2976.99c0.19,29.01 -0.31,58.43 -1.06,88 -0.07,7.55 -0.11,15.08 -0.11,22.6l0.02 3297.12c0.03,11.91 0.53,27.59 -0.18,44.3 2.44,113.96 0.11,231.33 -37.7,308.78 -49.11,100.61 -157.12,200.19 -300.02,207.7 -159.99,8.41 -345.2,0.1 -508,0.1 -116.96,0 -2396.79,10.08 -2434.86,-6.26 -26.08,-11.18 -47.51,-44.26 -43.91,-84.33 7.43,-82.7 100.39,-70.73 182.14,-70.86l2311.79 0.04c115.87,0 407.58,13.95 500.77,-4.83 186.04,-37.47 164.31,-219.74 164.31,-341.6l0.23 -3547.57c-1.02,-190.94 -140.76,-219.54 -286.33,-219.48l-331.5 0 -5.03 0.01 -4562.9 0c-145.57,-0.07 -285.3,28.54 -286.33,219.48l0.04 591.26 0 -82.91 5472 0 0 150.32 -5472 0 0.15 2405.11 1050.22 0c-14.73,-27.83 -37.58,-80.32 -37.58,-122.13l0 -516.72c0,-279.49 245.49,-600.39 450.96,-648.25 -45.5,-67.94 -225.47,-128.98 -225.47,-469.75 0,-256.02 241.91,-497.94 497.93,-497.94l56.37 0c370.05,0 636.54,446.76 423.44,799.24 -29.42,48.64 -67.57,96.7 -112.15,132.14 -18.63,14.8 -25.68,16.66 -38.83,36.32 100.2,23.34 225.31,139.79 284.83,213.1 84.22,103.74 122.03,192.24 156.74,341.2 219.79,-116.3 194.36,-156.76 351.73,-166.54 29.07,-1.8 484.49,-2.57 528.74,-2.57l0 -1202.56 450.97 0 0 1202.56 150.31 0 0 -751.59 450.97 0 0 751.59 150.32 0 0 -1352.88 450.96 0 0 1352.88 150.31 0 0 150.54 -1803.83 0 -523.47 0c-38.28,0 -314.7,175.04 -347.62,197.08 0,100.22 0,200.43 0,300.64 0,127.11 8.55,166.49 -37.58,253.66l2993.42 0 0 150.33 -3256.49 0 0 1118c0,110.13 -124.75,234.88 -234.86,234.88 -142.69,0 -124.17,-13.6 -216.09,-75.16 -95.4,63.88 -76.12,75.16 -216.09,75.16 -110.13,0 -234.87,-124.75 -234.87,-234.88l0 -1118 -1313.27 0 0.02 333.45c0.01,121.86 -21.73,304.13 164.31,341.6 93.19,18.76 384.9,4.83 500.77,4.83l389.06 -0.04c81.75,0.12 174.72,-11.85 182.15,70.86 3.6,40.07 -17.84,73.14 -43.92,84.33 -38.09,16.33 -395.17,6.25 -512.13,6.25 -162.8,0 -348.02,8.32 -508,-0.09 -142.91,-7.5 -250.91,-107.07 -300.01,-207.7 -37.81,-77.45 -40.14,-194.83 -37.7,-308.78 -0.7,-16.71 -0.21,-32.4 -0.18,-44.31l0.02 -3297.12c0,-7.51 -0.05,-15.04 -0.11,-22.57 -0.74,-29.57 -1.25,-59 -1.06,-88.01 -1.08,-173.03 13.33,-340.5 212.46,-435.91 63.52,-30.44 125.59,-32.92 205.57,-33.17 245.04,-6.78 771,-0.04 891.36,-0.04l3186.45 0c120.36,0 646.32,-6.74 891.36,0.04 79.97,0.27 142.05,2.75 205.57,33.18 199.12,95.4 213.54,262.87 212.46,435.9zm-539.84 2826.68l151.32 0 -1.01 -150.32 -150.31 0 0 150.32zm-4705.75 0l150.32 0 0 -150.32 -150.32 0 0 150.32zm4647.58 -300.64l150.31 0 0 -150.32 -150.31 0 0 150.32zm-4647.58 0l150.32 0 0 -150.32 -150.32 0 0 150.32zm0 -300.64l150.32 0 0 -150.33 -150.32 0 0 150.33zm601.28 -1954.16l150.32 0 0 -150.32 -150.32 0 0 150.32zm-300.64 0l150.32 0 0 -150.32 -150.32 0 0 150.32zm-300.64 0l150.32 0 0 -150.32 -150.32 0 0 150.32zm3745.66 2555.44l751.6 0 0 -150.32 -751.6 0 0 150.32zm0 -300.64l751.6 0 0 -150.32 -751.6 0 0 150.32zm601.28 -1653.53l150.32 0 0 1202.56 -150.32 0 0 -1202.56zm-601.28 601.28l150.32 0 0 601.28 -150.32 0 0 -601.28zm-601.28 -450.95l150.31 0 0 1052.24 -150.31 0 0 -1052.24zm-2148.81 225.48c0,-44.93 19.45,-118.4 34.55,-153.35 34.62,-80.16 107.75,-153.27 187.9,-187.9 102.73,-44.37 203.96,-44.37 306.7,0 235.54,101.74 295.71,422.81 111.95,606.56 -20.83,20.83 -81.99,63.01 -111.95,75.95 -197.58,85.33 -416.75,-7.66 -494.6,-187.9 -15.1,-34.95 -34.55,-108.41 -34.55,-153.35z"/>
 </g>
</svg>
