<?xml version="1.0" encoding="UTF-8"?>
<!DOCTYPE svg PUBLIC "-//W3C//DTD SVG 1.1//EN" "http://www.w3.org/Graphics/SVG/1.1/DTD/svg11.dtd">
<!-- Creator: CorelDRAW 2020 (64-Bit) -->
<svg xmlns="http://www.w3.org/2000/svg" xml:space="preserve" width="5.97343in" height="5.97428in" version="1.1" style="shape-rendering:geometricPrecision; text-rendering:geometricPrecision; image-rendering:optimizeQuality; fill-rule:evenodd; clip-rule:evenodd"
viewBox="0 0 4756.13 4756.8"
 xmlns:xlink="http://www.w3.org/1999/xlink"
 xmlns:xodm="http://www.corel.com/coreldraw/odm/2003">
 <defs>
  <style type="text/css">
   <![CDATA[
    .fil0 {fill:red}
   ]]>
  </style>
 </defs>
 <g id="Layer_x0020_1">
  <metadata id="CorelCorpID_0Corel-Layer"/>
  <path class="fil0" d="M130.86 4378.43c-5.75,-44.45 -2.99,-741.72 -1.83,-1034.92 0.22,-56.83 0.38,-96.83 0.38,-122.7l0 -1160.96c0,-18.71 -0.34,-34.8 -0.67,-51.07 -2.92,-141.62 -6.08,-295.58 174,-370.07 64.66,-26.74 71.66,-19.45 100.22,10.32 3.27,3.41 6.87,7.16 10.84,11.1 0.03,0 205.36,201.88 219.4,219.37 36.94,38.75 85.25,85.7 133.84,132.91 57.57,55.94 115.54,112.26 155.69,156.01l291.09 290.71c66.25,64.56 134.97,134.59 203.7,204.62 77.66,79.13 155.34,158.29 229.34,229.46 48.22,46.38 92.85,91.91 139.47,139.47l5.27 5.38c20.56,20.98 41.23,41.13 61.83,61.21 27.89,27.19 55.69,54.29 83.1,83.31 22.05,23.34 44.92,45.31 67.74,67.24 26.16,25.12 52.28,50.22 77.08,77.21 3.63,3.95 7.27,7.73 10.91,11.33l0.04 0.04c67.35,66.63 165.49,107.23 269.39,110.49 103.97,3.26 213.65,-30.95 303.99,-113.96 5.22,-4.79 10.56,-9.95 16.02,-15.47l0.04 0c29.99,-30.31 67.21,-66.72 106.26,-104.91l0.04 0c67.82,-66.33 141.09,-137.99 182.78,-183.46 24.2,-26.39 50.09,-51.2 75.96,-76.01 24.13,-23.14 48.28,-46.29 71.07,-70.79 97.01,-95.96 193.24,-193.01 289.74,-289.51 22.55,-21.56 44.01,-43.81 65.42,-66.02 25.76,-26.72 51.5,-53.41 79.05,-78.87 26.75,-24.71 51.37,-50.41 76.07,-76.18 22.82,-23.8 45.7,-47.69 70.32,-70.92l288.76 -288.84c40.99,-41.41 88.88,-88.28 137.96,-136.3 79.82,-78.11 162.8,-159.31 223.53,-224.32l1.75 -1.87c27.34,-29.33 39.46,-42.33 112.77,-8.29 35.07,16.28 64.03,36.41 88.04,61.71 23.97,25.26 42.9,55.6 57.94,92.35 25.36,61.95 21.12,319.56 18.51,477.61 -0.6,36.79 -1.12,67.96 -1.12,92.72l0 1739.1c0,29.35 0.93,57.47 1.86,85.55 5.05,152.73 10.06,304.28 -124.95,388.09 -74.65,46.37 -125.28,45.99 -215.35,45.32 -8.46,-0.06 -17.26,-0.13 -35.85,-0.13l-3767.27 0c-53.02,0 -95.66,-0.11 -134.37,-6.69 -39.37,-6.7 -74.02,-19.99 -109.97,-46.36 -27.16,-19.91 -51.61,-45.05 -70.83,-77.01 -19.12,-31.8 -32.98,-70.29 -39.02,-117.02zm1895.74 -3587.84l249.77 -0.07c56.04,-0.36 112.1,-0.13 168.14,-0.1l0.39 305.6 -230.07 0c-17.19,0 -37.53,-0.49 -58.05,-0.97 -52.91,-1.26 -107.33,-2.56 -154.7,5.22l-12.29 2.02 0.51 -310.91c12.05,-0.26 24.3,-0.78 36.31,-0.78zm1567.08 411.39c-23.9,5.4 -38.74,16.15 -46.82,29.1 -4.27,6.84 -6.73,14.31 -7.69,21.92 -0.99,7.86 -0.44,15.97 1.33,23.79 4.1,18.17 14.57,34.37 27.21,42.26 22.43,14 113.41,11.72 174.12,10.2 15.58,-0.39 29.22,-0.73 39.57,-0.73l228.46 0c13.71,-0.01 33.19,0.43 55.33,0.93 62.03,1.4 145.18,3.28 174.91,-2.83 17.65,-3.63 30.47,-13.64 38.35,-26.51 4.43,-7.23 7.34,-15.4 8.71,-23.87 1.39,-8.55 1.21,-17.39 -0.54,-25.91 -3.41,-16.58 -12.83,-31.93 -28.37,-41.44 -25.49,-15.59 -108.72,-13 -168.37,-11.14 -17.15,0.53 -32.51,1.01 -42.71,1.01 -64.1,0 -18.83,-0.04 -77.34,-0.08 -50.39,-0.03 -100.71,-0.07 -151.13,0.03 -13.72,0.03 -32.22,-0.35 -52.97,-0.77 -60.83,-1.24 -141.36,-2.89 -172.06,4.05zm-0.39 -597.05c-14.69,3.45 -26.78,8.51 -35.62,15.95 -8.38,7.05 -14.1,16.61 -16.67,29.43 -10.01,50.02 16.39,70.97 57.26,79.15 35.9,7.18 82.55,5.4 127.22,3.7 19.77,-0.76 39.18,-1.5 55.95,-1.5 7.91,0 37.77,0.23 75.31,0.5 128.23,0.96 358.21,2.68 383.4,-2.45 17.69,-3.6 30.51,-13.6 38.37,-26.45 4.4,-7.2 7.3,-15.32 8.67,-23.75 1.39,-8.52 1.22,-17.32 -0.5,-25.8 -3.39,-16.65 -12.83,-32.08 -28.41,-41.61 -25.6,-15.65 -108.74,-13.09 -168.44,-11.26 -17.11,0.53 -32.42,1 -42.65,1l-55.02 -0.24c-121.56,-0.54 -377.52,-1.68 -398.86,3.32zm-0.37 298.22c-2.47,0.55 -4.83,1.18 -7.08,1.86 -15.69,4.78 -29.51,13.43 -38.14,25.85 -8.44,12.15 -11.97,28.29 -7.43,48.45 0.54,2.41 1.18,4.82 1.9,7.18 6.39,20.97 17.5,31.76 33.27,37.23 17.49,6.07 41.39,6.45 70.75,6.4 27.11,-0.05 91.09,0.26 173.99,0.66 276.21,1.32 762.94,3.65 792.99,-2.63 2.66,-0.55 5.38,-1.37 8.11,-2.41 13,-4.95 24.65,-14.84 32.21,-27.57 7.52,-12.67 10.95,-28.13 7.57,-44.28 -0.67,-3.21 -1.65,-6.55 -2.96,-9.98 -7.76,-20.38 -19.02,-31.15 -34.5,-36.72 -16.94,-6.1 -39.64,-6.76 -68.21,-6.65 -28.94,0.11 -99.19,-0.22 -189.37,-0.65 -277.18,-1.31 -743.02,-3.51 -773.1,3.26zm-271.8 2443.55c0,31.82 30.26,59.94 63.4,90.72 13.26,12.32 26.95,25.04 39.65,38.81l666.72 666.35c7.07,7.33 14.66,15.64 22.11,23.78 36.91,40.37 69.9,76.45 111.63,60.51 13.16,-5.03 23.74,-12.08 31.33,-20.6 6.96,-7.81 11.43,-16.89 13.07,-26.78 1.67,-10.05 0.47,-21.11 -3.96,-32.7 -5.96,-15.6 -17.71,-32.09 -36.03,-48.41 -80.7,-81.31 -162.82,-161.42 -243.84,-242.45 -48.78,-50.74 -103.9,-104.68 -158.5,-158.11 -62.24,-60.91 -123.84,-121.19 -174.82,-175.51l-210.87 -211.96c-16.32,-14.65 -33.62,-26.67 -51.24,-28.94 -16.87,-2.17 -35.15,4.83 -54.98,27.7 -4.14,4.77 -7.77,10.5 -10.25,17.27 -2.16,5.87 -3.44,12.62 -3.44,20.32zm-2007.09 -60.69c-22.11,6.82 -34.2,20.67 -46.91,35.21 -5.11,5.85 -10.32,11.81 -16.25,17.58 -7.04,6.85 -14.21,13.55 -21.45,20.31 -13.92,13 -28.09,26.23 -39.55,38.83l-605.67 607.22c-11.05,12.16 -23.31,23.66 -35.5,35.1 -8.9,8.35 -17.78,16.68 -25.78,24.85 -5.82,6 -12.98,13.04 -19.97,19.92 -13.3,13.09 -25.98,25.56 -39.27,41.03 -11.18,13.01 -15.61,27.61 -14.96,41.67 0.55,11.99 4.8,23.71 11.67,33.8 6.92,10.16 16.48,18.6 27.59,23.97 13.76,6.64 29.99,8.57 46.68,3.18 6.28,-2.03 35.57,-28.92 71.78,-63.86 65.66,-63.35 151.92,-151.98 170.57,-171.45 61.23,-61.23 182.46,-196.2 243.43,-242.22 10.55,-10.1 20.96,-21.02 31.41,-31.99 9.16,-9.62 18.38,-19.29 28.39,-29.07l303.06 -303.13c10.48,-12.1 14.73,-26.2 14.2,-39.99 -0.45,-11.84 -4.42,-23.54 -11.01,-33.66 -6.58,-10.11 -15.77,-18.58 -26.65,-23.96 -13.2,-6.54 -29.01,-8.51 -45.81,-3.34zm1039.62 -2037.32c5.35,27.08 4.01,86.14 2.97,131.98 -0.33,14.75 -0.64,28.01 -0.64,40.43 0,13.7 0.33,29.55 0.72,48.19 1.87,89.01 5,237.98 -17.6,277.33 -10.92,19.01 -27.42,37.46 -49.17,50.26 -18.35,10.79 -40.37,17.57 -65.85,17.29 -24.73,-0.27 -47.22,-7.68 -65.98,-19.22 -21.11,-12.99 -37.65,-31.29 -47.48,-50.58 -17.83,-35.01 -16.74,-83.59 -15.73,-128.86 0.24,-10.74 0.47,-21.29 0.45,-31.22 -0.02,-9.36 -0.13,-24.59 -0.25,-43.47 -0.6,-90.3 -1.75,-264.28 2.1,-292.69l1.25 -9.21 253.52 1.27 1.68 8.5zm224.17 -397.34c102.18,-69.58 230.83,-151.94 349.41,-227.86 41.36,-26.48 81.51,-52.18 118.86,-76.27l172.11 -110.24c0,350.52 -0.06,701.04 -0.14,1051.57l-13.72 -4.33c-13.89,-4.38 -50.43,-28.5 -72.79,-43.26 -173.91,-114.1 -348.8,-226.96 -523.16,-340.39 -2.62,-1.69 -5.23,-3.2 -7.8,-4.68 -13.8,-7.94 -27.03,-15.55 -27.03,-33.8l0.04 0 -0.39 -207.6 4.61 -3.14zm-11.83 -159.01l-3.41 -3.76c-12.4,-13.73 -22.35,-24.76 -49.74,-26.28 -18.19,-1.01 -38.73,-0.65 -58.64,-0.29 -11.32,0.2 -22.45,0.4 -29.58,0.4 -14.91,0 -46.89,-0.38 -86.03,-0.85 -152.6,-1.81 -420.77,-5.01 -444.55,8.85 -34.34,20.02 -33.61,58.26 -32.67,107.89 0.18,9.87 0.38,20.12 0.38,27.35l0 181.84c0,30.25 -0.85,59.41 -1.6,85.51 -0.68,23.52 -1.29,44.49 -1.1,62.78 0.76,72.56 14.9,104.04 94.73,103.21l9.07 -0.09 1.46 8.97c7.27,44.58 4.99,134.35 2.63,227.12 -2.53,99.71 -5.16,202.96 3.94,254.7 15.09,85.75 64.04,145.83 126.12,179.45 38.87,21.06 82.87,31.83 126.92,32.12 44.06,0.29 88.22,-9.9 127.44,-30.75 62.59,-33.27 112.55,-93.9 129.24,-182.68 7.59,-40.37 5.5,-140.7 3.39,-242.58 -1.88,-90.84 -3.8,-182.92 1.12,-236.5l0.87 -9.47c5.01,-0.08 10.07,-0.24 15.08,-0.24 11.43,-0.16 21.59,-0.3 29.96,-2.98 5.02,-1.61 6.82,-2.84 8.4,-3.92 3.72,-2.55 6.85,-4.69 18.49,-6.82l7.88 1.66c47.01,32.05 94.29,61.93 141.78,91.94 52.2,32.98 104.66,66.14 157.07,102.33 52.12,36 115.51,75.92 178.75,115.74 70.06,44.12 139.96,88.14 194.55,126.82 14.86,10.55 32.05,16.61 48.31,16.51 8.4,-0.05 16.57,-1.79 24,-5.47 7.36,-3.65 14.07,-9.28 19.65,-17.14 10.39,-14.66 16.88,-37 16.69,-68.63 -0.29,-50.04 -0.82,-102.49 -1.36,-155.92 -1.55,-154.09 -3.18,-316.3 0.35,-455.21 3.4,-133.97 2.55,-273.75 1.7,-412.41 -0.43,-69.71 -0.85,-139.16 -0.74,-207.45l0.06 -11.55c0.26,-35.77 0.42,-57.85 -21.08,-77.53 -39.79,-36.44 -85.24,-4.84 -129.84,26.19 -6.66,4.63 -13.29,9.25 -20.7,14.16 -49.76,33.04 -99.1,64.73 -148.23,96.27 -49.74,31.94 -99.29,63.76 -148.6,96.54 -21.99,14.62 -44.32,28.93 -66.67,43.24 -28.31,18.13 -56.66,36.29 -82.95,54.14 -20.01,13.59 -37.28,24.54 -55.57,36.13l-18.39 11.64c-6.49,4.14 -14.21,9.43 -22.04,14.78 -18.05,12.35 -36.73,25.13 -54.48,32.88l-6.95 3.03 -5.12 -5.65zm987.15 1561.75l-1.96 3.16 9 5.49 -1.65 2.72 -9.12 -5.35 4.44 9.62 -5.9 2.7c-3.86,1.75 -5.7,2.59 -6.54,3.2 -0.58,0.42 -1.57,1.55 -3.45,3.69 -1.22,1.39 -2.75,3.13 -5.57,6.2 -2.32,2.52 -4.47,4.66 -6.36,6.53 -4.35,4.31 -6.86,6.8 -10.12,15.45l-4.69 5.47c-8.58,4.87 -11.43,7.61 -18.81,14.71l-7.46 7.23c-2.18,2.15 -4.2,4.2 -4.92,5.06 -1.3,1.61 -2.57,2.92 -3.77,3.99l-1.11 3.42 -2.66 4.15 -34.13 32.96 -218.23 215.43c-8.2,7.34 -14.31,13.73 -20.38,20.07l0 0.04c-6.52,6.81 -13.02,13.6 -21.98,21.56 -8.71,7.74 -17.37,16.57 -26.17,25.56 -5.09,5.2 -10.24,10.46 -15.58,15.68 -43.32,42.38 -86.09,85.9 -128.94,129.49 -55.87,56.85 -111.91,113.86 -169.62,168.83l-169.06 171.01c-6.87,6.89 -14.07,14.23 -21.28,21.58 -53.6,54.61 -107.63,109.67 -176.83,132.19 -85.32,27.78 -153.34,17.64 -211.55,-11.47 -57.44,-28.72 -104.51,-75.62 -149.32,-122.53l-257.34 -256.31c-8.55,-9.73 -18.44,-19.44 -28.37,-29.17 -5.04,-4.95 -10.1,-9.9 -15.06,-14.95 -3.73,-3.79 -6.71,-6.3 -9.65,-8.78 -3.88,-3.27 -7.73,-6.51 -12.4,-11.44 -3.67,-3.87 -6.2,-6.92 -8.52,-9.71 -2.88,-3.46 -5.38,-6.47 -10.89,-11.43l-340.58 -339.95c-9.95,-8.77 -18.63,-17.55 -27.6,-26.64 -5.6,-5.67 -11.34,-11.49 -17.63,-17.5 -37.72,-36.11 -83.31,-83.05 -129.71,-130.82 -58.89,-60.63 -119.12,-122.62 -165.9,-165.21 -6.44,-5.86 -10.11,-10.19 -13.94,-14.71 -2.6,-3.06 -5.28,-6.23 -8.86,-9.85l-171.63 -169.38c-4.07,-4.31 -6.46,-7.22 -8.65,-9.9 -2.87,-3.51 -5.4,-6.6 -10.65,-11.37 -60.88,-55.44 -157.49,-154.93 -232.22,-231.88 -23.86,-24.57 -45.5,-46.85 -62.9,-64.54l-17.7 -17.99 598.52 -0.07 0 95.5c0.06,80.59 0.13,161.2 -0.32,241.76 -0.14,25.99 3.59,29.15 12.75,36.9 3.45,2.91 7.47,6.32 12.37,11.23l103.19 102.48 0.02 -1979.9 2333.59 0 1.84 305.97 125.92 0.07c5.61,-48.2 3.57,-129.8 1.85,-198.63 -0.76,-30.39 -1.46,-58.39 -1.46,-78.16 0,-9.2 0.55,-20.3 1.13,-31.86 1.74,-35.06 3.72,-74.8 -10.34,-95.57 -20.27,-29.97 -44.41,-29.93 -94.74,-29.85l-2281.94 0.01 0 0.04c-7.92,0 -26.12,-0.11 -42.98,-0.21 -90.92,-0.53 -133.17,-0.78 -149.92,26.9 -15.68,25.9 -14.64,78.2 -12.7,175.86 0.8,40.35 1.75,88.11 1.75,141.17l0 1148.27 -439.56 -0c-36.04,0 -74.3,-1.07 -112.31,-2.12 -214.42,-5.95 -420.47,-11.67 -542.26,186.63 -63.94,104.11 -63.42,174.02 -62.46,301.77 0.14,19.54 0.3,40.17 0.3,53.26l0 2135.41c0,21.23 -0.4,45.78 -0.78,69.64 -1.84,114.53 -3.42,212.85 46.26,302.68 24.7,44.65 56.99,85.99 96.93,120.16 36.41,31.16 79.18,56.37 128.31,72.73 82.67,27.52 204.94,24.77 313.78,22.32 30.8,-0.69 60.58,-1.36 85.6,-1.36 175.06,0 365.56,0.85 556.22,1.69 383.79,1.69 768.34,3.39 1150.12,-2.14 185.3,-2.68 372.69,-1.64 559.64,-0.6 98.16,0.54 196.21,1.09 293.72,1.1l853.23 -0.01 0 -0.04c29.74,0 62.09,0.73 94.09,1.44 211.1,4.72 406.86,9.1 530.55,-215.25 49.88,-90.48 48.21,-190.79 46.28,-306.6 -0.38,-22.8 -0.77,-46.21 -0.78,-70.42l0.01 -2130.75 -0.04 0c0,-10.7 0.13,-30.54 0.25,-49.58 0.83,-131.04 1.3,-205.46 -64.09,-308.14 -124.84,-196.03 -326.23,-190.25 -541.18,-184.08 -39.13,1.12 -78.71,2.26 -116.37,2.26l-413.71 0 0.94 466.9c14.78,-14.6 29.28,-29.38 43.84,-44.22 20.61,-21 41.34,-42.13 63.27,-63.19 3.2,-3.08 5.91,-5.37 8.36,-7.44 7.29,-6.18 11.44,-9.69 12.02,-26.89l-0.4 -197.24 449.27 1.69 -17.68 17.9c-35.31,35.74 -71.14,71.32 -106.99,106.93 -57.05,56.66 -114.17,113.38 -170.37,171.95 -9.39,9.79 -19.65,19.49 -29.88,29.17 -13.62,12.89 -27.22,25.75 -39.83,40.16 -18.92,21.61 -57.43,59.04 -97.51,97.98 -41.68,40.5 -85.08,82.67 -109.31,109.85l-0.96 0.91c-4.91,4.29 -10.07,9.24 -14.61,14.3 -3.65,4.07 -6.93,8.28 -9.38,12.34l-5.18 4.35c-5.03,2 -10.39,6.01 -15.5,10.86 -6.84,6.5 -13.05,14.39 -17.6,21.28l-0.79 1 -8.04 -6.84z"/>
 </g>
</svg>
