<?xml version="1.0" encoding="UTF-8"?>
<!DOCTYPE svg PUBLIC "-//W3C//DTD SVG 1.1//EN" "http://www.w3.org/Graphics/SVG/1.1/DTD/svg11.dtd">
<!-- Creator: CorelDRAW 2020 (64-Bit) -->
<svg xmlns="http://www.w3.org/2000/svg" xml:space="preserve" width="6.00694in" height="6.32809in" version="1.1" style="shape-rendering:geometricPrecision; text-rendering:geometricPrecision; image-rendering:optimizeQuality; fill-rule:evenodd; clip-rule:evenodd"
viewBox="0 0 6395.61 6737.53"
 xmlns:xlink="http://www.w3.org/1999/xlink"
 xmlns:xodm="http://www.corel.com/coreldraw/odm/2003">
 <defs>
  <style type="text/css">
   <![CDATA[
    .fil0 {fill:red;fill-rule:nonzero}
   ]]>
  </style>
 </defs>
 <g id="Layer_x0020_1">
  <metadata id="CorelCorpID_0Corel-Layer"/>
  <path id="Shape" class="fil0" d="M5837.47 562.88l457.48 0c6.75,0 13.36,0.66 19.73,1.91 6.51,1.28 12.83,3.2 18.86,5.69 6.12,2.53 11.93,5.67 17.37,9.31 5.48,3.68 10.59,7.91 15.21,12.58 4.64,4.62 8.86,9.76 12.57,15.3 3.66,5.47 6.81,11.3 9.34,17.37 2.48,6.01 4.4,12.29 5.67,18.79 1.24,6.36 1.91,12.95 1.91,19.7 0,6.75 -0.66,13.35 -1.91,19.71 -1.28,6.51 -3.2,12.8 -5.68,18.77 -2.53,6.1 -5.67,11.92 -9.31,17.37 -3.69,5.52 -7.92,10.65 -12.57,15.31 -4.63,4.65 -9.77,8.87 -15.31,12.58 -5.47,3.67 -11.3,6.81 -17.38,9.34 -6.01,2.48 -12.29,4.4 -18.79,5.67 -6.36,1.24 -12.95,1.91 -19.7,1.91l-516.2 0 -3.15 3.17c-250.78,251.78 -501.82,503.39 -752.82,754.96 -157.65,163.28 -322.95,323.76 -483.49,484.7l20.12 22.56c26.79,30.04 52.69,60.84 77.65,92.33 25,31.53 49.07,63.76 72.16,96.61 23.08,32.83 45.24,66.39 66.44,100.59 21.23,34.24 41.42,69.01 60.54,104.25 19.12,35.24 37.27,71.13 54.41,107.59 17.07,36.33 33.06,73.06 47.92,110.11 14.86,37.05 28.67,74.61 41.39,112.62 12.68,37.89 24.28,76.16 34.74,114.74 6.07,22.4 11.74,44.78 17.01,67.11 5.22,22.13 10.1,44.5 14.63,67.05 4.54,22.62 8.69,45.17 12.42,67.63 3.76,22.61 7.14,45.3 10.15,68.04 2.99,22.64 5.63,45.46 7.89,68.39 2.26,22.97 4.16,45.96 5.65,68.9 3,45.73 4.5,92 4.5,138.67 0,138.89 -13.67,274.64 -39.73,405.96 -26.75,134.78 -66.56,264.92 -118.04,389.01 -52.52,126.6 -117.23,246.98 -192.66,359.65 -76.21,113.84 -163.31,219.76 -259.77,316.23 -96.47,96.47 -202.4,183.58 -316.24,259.78 -112.66,75.41 -233.04,140.13 -359.64,192.65 -124.09,51.49 -254.24,91.3 -389.01,118.05 -131.32,26.06 -267.07,39.73 -405.95,39.73 -138.88,0 -274.63,-13.67 -405.95,-39.73 -134.78,-26.75 -264.92,-66.56 -389.02,-118.05 -126.59,-52.52 -246.97,-117.23 -359.64,-192.66 -113.84,-76.21 -219.77,-163.31 -316.24,-259.78 -96.46,-96.46 -183.57,-202.39 -259.78,-316.24 -75.43,-112.67 -140.14,-233.05 -192.66,-359.64 -51.49,-124.09 -91.3,-254.24 -118.04,-389.01 -26.06,-131.32 -39.73,-267.07 -39.73,-405.95 0,-138.88 13.67,-274.63 39.73,-405.95 26.75,-134.78 66.56,-264.92 118.04,-389.01 52.52,-126.6 117.24,-246.99 192.66,-359.65 76.2,-113.84 163.3,-219.76 259.77,-316.23 96.47,-96.47 202.39,-183.57 316.23,-259.78 112.67,-75.42 233.04,-140.13 359.64,-192.65 124.1,-51.49 254.24,-91.3 389.02,-118.05 131.32,-26.06 267.07,-39.73 405.95,-39.73 62.99,0 125.62,2.79 187.73,8.29 62.25,5.5 123.99,13.79 185.03,24.77 61.29,11.03 121.86,24.78 181.56,41.18 59.85,16.44 118.87,35.57 176.85,57.29 58,21.73 114.99,46.09 170.8,72.98 55.78,26.88 110.44,56.32 163.78,88.24 53.17,31.82 105.07,66.13 155.55,102.87 50.2,36.51 99,75.46 146.22,116.73l22.63 19.8 511.37 -512.77 -25.08 -22.64c-64.25,-57.97 -130.7,-112.64 -199.12,-163.9 -68.73,-51.5 -139.61,-99.67 -212.4,-144.41 -73,-44.86 -147.84,-86.23 -224.27,-124 -76.56,-37.82 -154.83,-72.09 -234.57,-102.69 -79.59,-30.55 -160.67,-57.44 -243,-80.57 -82.17,-23.1 -165.57,-42.47 -249.96,-57.99 -84.14,-15.49 -169.24,-27.19 -255.05,-34.99 -85.25,-7.75 -171.35,-11.67 -258.09,-11.67 -187.12,0 -370.05,18.43 -547.02,53.57 -181.65,36.06 -357.07,89.73 -524.35,159.13 -170.72,70.82 -332.97,158.02 -484.75,259.61 -153.32,102.62 -296.04,219.99 -426.1,350.04 -130.06,130.06 -247.43,272.78 -350.05,426.09 -101.59,151.77 -188.79,314.02 -259.62,484.73 -69.4,167.28 -123.07,342.69 -159.13,524.34 -35.14,176.98 -53.57,359.9 -53.57,547.02 0,187.13 18.43,370.06 53.57,547.04 36.06,181.65 89.73,357.06 159.13,524.34 70.82,170.72 158.03,332.98 259.62,484.75 102.62,153.31 219.98,296.03 350.04,426.08 130.06,130.06 272.78,247.43 426.09,350.05 151.78,101.59 314.03,188.79 484.75,259.62 167.28,69.4 342.69,123.07 524.35,159.13 176.98,35.14 359.91,53.57 547.04,53.57 187.12,0 370.04,-18.43 547.01,-53.57 181.65,-36.06 357.07,-89.73 524.35,-159.13 170.71,-70.83 332.97,-158.03 484.74,-259.63 153.31,-102.62 296.03,-219.99 426.09,-350.05 130.06,-130.06 247.43,-272.77 350.05,-426.09 101.6,-151.78 188.8,-314.03 259.63,-484.75 69.4,-167.28 123.07,-342.69 159.13,-524.34 35.14,-176.98 53.57,-359.89 53.57,-547.02 0,-53.21 -1.46,-106.14 -4.36,-158.75 -2.92,-52.73 -7.29,-105.24 -13.11,-157.48 -5.8,-52.12 -13.07,-103.98 -21.78,-155.52 -8.73,-51.65 -18.9,-102.99 -30.51,-153.96 -11.61,-50.97 -24.65,-101.52 -39.09,-151.6 -14.46,-50.14 -30.37,-99.97 -47.72,-149.42 -17.3,-49.29 -36.05,-98.25 -56.24,-146.82 -20.18,-48.56 -41.76,-96.63 -64.7,-144.16 -2.92,-6.06 -5.19,-12.27 -6.82,-18.54 -1.68,-6.46 -2.69,-12.98 -3.06,-19.45 -0.37,-6.63 -0.09,-13.25 0.82,-19.73 0.91,-6.53 2.49,-12.99 4.65,-19.24 2.17,-6.25 4.97,-12.29 8.34,-18.01 3.33,-5.66 7.23,-11.01 11.63,-15.9 4.33,-4.85 9.18,-9.34 14.5,-13.34 5.14,-3.87 10.75,-7.31 16.78,-10.23l0.18 -0.1c6.06,-2.92 12.28,-5.18 18.55,-6.81 6.44,-1.67 12.94,-2.68 19.39,-3.05 6.62,-0.38 13.23,-0.1 19.71,0.81 6.54,0.92 13,2.49 19.23,4.65 6.18,2.15 12.19,4.94 17.89,8.3 5.65,3.33 11.03,7.24 16,11.67 4.86,4.32 9.35,9.18 13.36,14.5 3.89,5.16 7.35,10.8 10.28,16.87 24.69,51.16 47.84,102.73 69.43,154.67 21.6,51.94 41.7,104.41 60.27,157.33 18.56,52.87 35.62,106.25 51.14,160.06 15.53,53.81 29.5,107.94 41.89,162.34 12.41,54.51 23.3,109.43 32.63,164.71 9.32,55.24 17.11,110.87 23.34,166.84 6.21,55.83 10.88,112.07 13.99,168.66 3.11,56.62 4.67,113.52 4.67,170.67 0,99.66 -4.82,198.66 -14.35,296.68 -9.58,98.6 -23.92,196.1 -42.89,292.19 -19.07,96.62 -42.84,191.92 -71.15,285.6 -28.37,93.83 -61.35,186.13 -98.82,276.6 -37.42,90.37 -79.36,178.93 -125.66,265.37 -46.23,86.3 -96.81,170.48 -151.61,252.24 -54.55,81.38 -113.34,160.43 -176.23,236.86 -62.59,76.06 -129.19,149.47 -199.67,219.94 -10.57,10.57 -21.56,21.4 -32.92,32.44 -11.11,10.8 -21.99,21.23 -32.62,31.25 -10.92,10.29 -22.04,20.62 -33.35,30.97 -11.05,10.12 -22.07,20.05 -33.02,29.77 -11.09,9.85 -22.3,19.64 -33.57,29.33 -11.57,9.95 -23.24,19.85 -34.99,29.66 -11.47,9.59 -23.19,19.24 -35.15,28.93 -12.14,9.83 -24.13,19.42 -35.95,28.72l-28.48 22.4 121.19 121.3c100.73,100.84 248.94,249.21 378.15,378.2 129.17,128.95 239.39,238.58 264.21,261.99l2.77 2.61 -1.14 1.13c8.34,8.97 14.75,19.13 19.2,29.91 5.09,12.32 7.65,25.46 7.65,38.57 0,6.6 -0.65,13.21 -1.93,19.7 -1.27,6.43 -3.19,12.76 -5.73,18.87 -2.49,5.99 -5.6,11.83 -9.34,17.38 -3.63,5.4 -7.83,10.52 -12.59,15.25 -2.47,2.47 -4.97,4.75 -7.47,6.82 -2.5,2.07 -5.12,4.03 -7.82,5.83 -2.77,1.85 -5.57,3.55 -8.38,5.05 -2.88,1.55 -5.83,2.95 -8.77,4.17 -3.05,1.25 -6.13,2.36 -9.23,3.28 -3.16,0.95 -6.4,1.75 -9.65,2.38 -3.15,0.62 -6.45,1.09 -9.83,1.42 -3.4,0.32 -6.75,0.49 -10.03,0.49 -3.27,0 -6.63,-0.17 -10.03,-0.49 -3.39,-0.33 -6.68,-0.8 -9.83,-1.42 -3.24,-0.63 -6.48,-1.43 -9.65,-2.38 -3.09,-0.92 -6.18,-2.02 -9.21,-3.28 -2.95,-1.22 -5.89,-2.62 -8.78,-4.17 -2.82,-1.5 -5.62,-3.19 -8.38,-5.05 -2.65,-1.78 -5.27,-3.73 -7.83,-5.85 -2.55,-2.11 -5.05,-4.38 -7.47,-6.8l-786.3 -786.32 -21.83 14.26c-60.42,39.4 -122.21,76.57 -185.22,111.44 -63.13,34.93 -127.35,67.49 -192.52,97.6 -65.29,30.16 -131.68,57.96 -199.01,83.32 -67.26,25.33 -135.46,48.23 -204.47,68.63 -68.95,20.38 -138.74,38.3 -209.22,53.69 -70.27,15.34 -141.31,28.19 -212.97,38.48 -71.35,10.26 -143.35,17.99 -215.87,23.15 -72.22,5.13 -144.96,7.73 -218.1,7.73 -72.78,0 -145.16,-2.57 -217.04,-7.65 -72.17,-5.11 -143.84,-12.77 -214.84,-22.92 -71.35,-10.21 -142.08,-22.94 -212.04,-38.13 -70.13,-15.23 -139.58,-32.97 -208.19,-53.15 -68.73,-20.21 -136.68,-42.91 -203.71,-68.01 -67.05,-25.11 -133.15,-52.64 -198.16,-82.5 -65.06,-29.89 -129.01,-62.12 -191.72,-96.63 -62.64,-34.46 -124.21,-71.29 -184.58,-110.42l-21.89 -14.2 -781.6 781.62c-2.49,2.46 -4.98,4.75 -7.47,6.81 -2.5,2.07 -5.12,4.03 -7.82,5.83 -2.77,1.85 -5.57,3.55 -8.38,5.05 -2.88,1.55 -5.83,2.95 -8.77,4.17 -3.05,1.25 -6.14,2.36 -9.23,3.28 -3.16,0.95 -6.4,1.75 -9.65,2.39 -3.15,0.62 -6.45,1.09 -9.83,1.42 -3.39,0.32 -6.74,0.49 -10.01,0.49 -3.27,0 -6.63,-0.17 -10.04,-0.49 -3.39,-0.33 -6.69,-0.8 -9.83,-1.42 -3.26,-0.64 -6.49,-1.44 -9.67,-2.39 -3.09,-0.93 -6.18,-2.02 -9.22,-3.28 -2.97,-1.23 -5.94,-2.63 -8.85,-4.19 -2.87,-1.53 -5.68,-3.22 -8.39,-5.04 -2.7,-1.81 -5.31,-3.75 -7.81,-5.81 -2.47,-2.05 -4.95,-4.3 -7.39,-6.74 -4.75,-4.74 -8.95,-9.88 -12.59,-15.31 -3.71,-5.53 -6.81,-11.34 -9.27,-17.31 -2.54,-6.13 -4.44,-12.47 -5.7,-18.89 -1.28,-6.51 -1.93,-13.15 -1.93,-19.79 0,-6.61 0.65,-13.24 1.92,-19.74 1.27,-6.43 3.18,-12.77 5.71,-18.93 2.48,-5.99 5.58,-11.8 9.28,-17.31 3.61,-5.37 7.81,-10.48 12.57,-15.19l757.29 -757.35 -28.65 -22.39c-12.34,-9.65 -24.49,-19.31 -36.41,-28.93 -11.75,-9.48 -23.62,-19.21 -35.59,-29.17 -11.95,-9.95 -23.73,-19.91 -35.31,-29.86 -11.63,-9.99 -23.38,-20.24 -35.21,-30.71 -11.44,-10.12 -22.9,-20.43 -34.38,-30.92 -11.37,-10.37 -22.82,-21 -34.34,-31.84 -11.22,-10.57 -22.51,-21.36 -33.82,-32.36 -11.13,-10.81 -22.11,-21.66 -32.91,-32.5 -70.48,-70.46 -137.07,-143.87 -199.65,-219.92 -62.9,-76.44 -121.69,-155.5 -176.24,-236.88 -54.79,-81.75 -105.37,-165.93 -151.59,-252.21 -46.31,-86.45 -88.25,-175.02 -125.68,-265.41 -37.47,-90.47 -70.45,-182.77 -98.82,-276.6 -28.32,-93.68 -52.08,-188.98 -71.15,-285.6 -18.98,-96.09 -33.31,-193.58 -42.89,-292.18 -9.53,-98.04 -14.35,-197.02 -14.35,-296.68 0,-99.65 4.82,-198.64 14.35,-296.67 9.58,-98.59 23.92,-196.09 42.89,-292.18 19.07,-96.62 42.84,-191.92 71.15,-285.59 28.36,-93.83 61.35,-186.13 98.82,-276.61 37.43,-90.38 79.37,-178.95 125.67,-265.4 46.22,-86.29 96.8,-170.47 151.59,-252.22 54.55,-81.38 113.34,-160.44 176.24,-236.87 62.59,-76.05 129.19,-149.47 199.66,-219.94 70.48,-70.48 143.89,-137.08 219.95,-199.67 76.43,-62.89 155.48,-121.68 236.85,-176.22 81.76,-54.79 165.94,-105.38 252.24,-151.61 86.44,-46.31 175.01,-88.24 265.38,-125.67 90.47,-37.47 182.77,-70.45 276.6,-98.81 93.68,-28.32 188.98,-52.08 285.61,-71.15 96.09,-18.97 193.59,-33.31 292.18,-42.89 98.02,-9.52 197.02,-14.35 296.67,-14.35 93.56,0 186.54,4.25 278.69,12.66 92.63,8.45 184.3,21.11 274.78,37.86 90.98,16.85 180.82,37.84 269.25,62.86 88.66,25.09 176.02,54.26 261.84,87.41 85.88,33.18 170.13,70.33 252.52,111.33 82.28,40.95 162.85,85.82 241.42,134.49 78.25,48.47 154.48,100.7 228.43,156.56 73.64,55.63 145.1,114.92 214.14,177.76l22.67 20.65 576.92 -578.44 2.65 -3.96 6.06 -14.55 0.96 -4.68 0 -507.67c0,-6.77 0.66,-13.39 1.91,-19.77 1.27,-6.52 3.2,-12.83 5.68,-18.83 2.51,-6.08 5.63,-11.89 9.28,-17.34 3.69,-5.52 7.92,-10.67 12.59,-15.37 4.63,-4.64 9.74,-8.84 15.23,-12.5 5.43,-3.63 11.26,-6.75 17.37,-9.27 6,-2.47 12.3,-4.39 18.81,-5.66 6.37,-1.24 12.98,-1.91 19.76,-1.91 6.77,0 13.37,0.66 19.74,1.91 6.51,1.27 12.8,3.19 18.8,5.68 6.12,2.53 11.95,5.65 17.42,9.31 5.51,3.68 10.65,7.91 15.31,12.58 4.64,4.62 8.86,9.75 12.55,15.28 3.64,5.43 6.76,11.24 9.26,17.32 2.47,6 4.39,12.31 5.66,18.83 1.24,6.37 1.91,12.98 1.91,19.75l0 462.22zm-372.52 1160.55c1.24,6.37 1.91,12.98 1.91,19.75 0,6.75 -0.66,13.35 -1.91,19.71 -1.28,6.51 -3.2,12.8 -5.68,18.8 -2.52,6.1 -5.65,11.93 -9.31,17.41 -3.68,5.52 -7.89,10.66 -12.53,15.32 -4.67,4.66 -9.8,8.87 -15.32,12.56 -5.45,3.64 -11.28,6.77 -17.38,9.28 -5.99,2.48 -12.29,4.4 -18.8,5.68 -6.38,1.24 -12.99,1.91 -19.75,1.91 -6.75,0 -13.35,-0.66 -19.71,-1.91 -6.5,-1.27 -12.8,-3.2 -18.79,-5.68 -6.11,-2.53 -11.95,-5.65 -17.4,-9.3 -5.52,-3.68 -10.67,-7.9 -15.33,-12.54 -4.66,-4.67 -8.87,-9.8 -12.55,-15.31 -3.64,-5.45 -6.77,-11.28 -9.29,-17.38 -2.48,-6 -4.4,-12.29 -5.67,-18.8 -1.24,-6.38 -1.91,-12.99 -1.91,-19.76 0,-6.77 0.66,-13.38 1.91,-19.76 1.27,-6.51 3.19,-12.8 5.66,-18.8 2.51,-6.09 5.63,-11.89 9.27,-17.32 3.68,-5.5 7.9,-10.63 12.56,-15.28 4.64,-4.65 9.78,-8.88 15.32,-12.59 5.45,-3.65 11.27,-6.78 17.35,-9.29 6,-2.49 12.31,-4.41 18.82,-5.69 6.38,-1.25 12.99,-1.91 19.76,-1.91 6.76,0 13.36,0.66 19.73,1.91 6.51,1.27 12.81,3.2 18.8,5.68 6.12,2.54 11.97,5.67 17.44,9.33 5.51,3.68 10.64,7.9 15.3,12.57 4.64,4.62 8.86,9.75 12.57,15.29 3.63,5.43 6.76,11.24 9.26,17.32 2.48,5.99 4.39,12.29 5.67,18.8zm-629.39 1258.08c-4.74,-20.16 -9.82,-40.24 -15.22,-60.19 -9.25,-34.15 -19.49,-68 -30.66,-101.48 -11.26,-33.74 -23.5,-67.16 -36.67,-100.2 -13.15,-32.98 -27.28,-65.68 -42.34,-98.01 -15.06,-32.31 -31,-64.11 -47.78,-95.33 -16.83,-31.3 -34.56,-62.16 -53.16,-92.49 -18.6,-30.35 -38.11,-60.23 -58.46,-89.57 -20.32,-29.29 -41.49,-58.03 -63.44,-86.14 -21.93,-28.07 -44.69,-55.57 -68.25,-82.46l-22.65 -25.82 -592.23 593.86 17.83 22.37c18.18,22.85 35.46,46.54 51.77,70.97 16.24,24.33 31.47,49.33 45.61,74.91 14.07,25.46 27.13,51.6 39.11,78.35 11.85,26.47 22.62,53.51 32.25,81.03 9.52,27.25 17.97,55.08 25.26,83.39 7.2,28 13.27,56.43 18.13,85.2 4.82,28.5 8.48,57.4 10.91,86.6 2.41,28.88 3.64,58.14 3.64,87.72 0,69.62 -6.85,137.68 -19.91,203.51 -13.41,67.56 -33.36,132.81 -59.17,195.01 -26.32,63.44 -58.77,123.79 -96.59,180.29 -38.22,57.09 -81.89,110.2 -130.25,158.55 -48.35,48.36 -101.46,92.03 -158.56,130.25 -56.49,37.82 -116.84,70.27 -180.29,96.59 -62.2,25.8 -127.45,45.77 -195.01,59.17 -65.83,13.06 -133.89,19.91 -203.52,19.91 -69.62,0 -137.68,-6.86 -203.5,-19.91 -67.57,-13.41 -132.81,-33.36 -195.02,-59.16 -63.45,-26.32 -123.79,-58.77 -180.28,-96.59 -57.1,-38.22 -110.21,-81.9 -158.55,-130.25 -48.34,-48.34 -92.02,-101.46 -130.24,-158.55 -37.82,-56.49 -70.27,-116.84 -96.59,-180.28 -25.8,-62.21 -45.76,-127.46 -59.17,-195.04 -13.06,-65.82 -19.91,-133.88 -19.91,-203.5 0,-69.62 6.85,-137.68 19.91,-203.51 13.41,-67.56 33.36,-132.81 59.17,-195.02 26.32,-63.44 58.76,-123.79 96.59,-180.28 38.22,-57.1 81.89,-110.21 130.24,-158.56 48.35,-48.35 101.46,-92.02 158.55,-130.24 56.49,-37.82 116.84,-70.27 180.28,-96.59 62.21,-25.8 127.45,-45.76 195.02,-59.17 65.82,-13.06 133.88,-19.91 203.5,-19.91 28.75,0 57.2,1.17 85.29,3.44 28.36,2.29 56.44,5.75 84.15,10.3 28.04,4.6 55.7,10.32 82.89,17.11 27.55,6.88 54.69,14.87 81.32,23.9 26.86,9.1 53.29,19.3 79.24,30.54 26.11,11.3 51.64,23.63 76.52,36.91 25.1,13.4 49.58,27.8 73.35,43.1 23.96,15.42 47.29,31.83 69.92,49.13l22.33 17.09 592.79 -594.37 -26.3 -22.56c-42.34,-36.3 -86.1,-70.58 -131.12,-102.76 -45.25,-32.34 -91.75,-62.56 -139.33,-90.56 -47.75,-28.1 -96.67,-54.03 -146.61,-77.72 -49.9,-23.67 -100.8,-45.1 -152.55,-64.2 -51.8,-19.12 -104.48,-35.95 -157.91,-50.42 -53.27,-14.43 -107.31,-26.53 -161.95,-36.23 -54.43,-9.66 -109.51,-16.96 -165.08,-21.84 -55.23,-4.85 -110.93,-7.3 -166.95,-7.3 -125.4,0 -248,12.36 -366.62,35.91 -121.75,24.17 -239.32,60.15 -351.44,106.66 -114.43,47.47 -223.17,105.92 -324.89,174 -102.75,68.77 -198.41,147.44 -285.59,234.62 -87.18,87.18 -165.85,182.84 -234.62,285.59 -68.08,101.72 -126.53,210.46 -174,324.89 -46.51,112.12 -82.49,229.71 -106.66,351.46 -23.55,118.61 -35.91,241.21 -35.91,366.61 0,125.4 12.36,248.01 35.91,366.63 24.17,121.75 60.15,239.33 106.66,351.45 47.47,114.43 105.92,223.18 174,324.89 68.77,102.75 147.44,198.41 234.62,285.59 87.17,87.18 182.82,165.84 285.56,234.61 101.72,68.09 210.48,126.54 324.91,174.02 112.13,46.51 229.71,82.49 351.46,106.66 118.61,23.55 241.21,35.91 366.61,35.91 125.41,0 248.02,-12.36 366.64,-35.91 121.76,-24.17 239.33,-60.15 351.45,-106.66 114.43,-47.48 223.19,-105.92 324.9,-174 102.74,-68.77 198.39,-147.43 285.57,-234.61 87.18,-87.18 165.85,-182.84 234.62,-285.58 68.09,-101.72 126.53,-210.47 174.01,-324.9 46.52,-112.12 82.49,-229.69 106.66,-351.44 23.55,-118.62 35.91,-241.23 35.91,-366.64 0,-20.81 -0.35,-41.48 -1.03,-62 -0.68,-20.69 -1.73,-41.58 -3.11,-62.62 -1.37,-20.81 -3.09,-41.54 -5.13,-62.15 -2.06,-20.75 -4.47,-41.55 -7.22,-62.35 -2.75,-20.83 -5.84,-41.52 -9.23,-62.01 -3.36,-20.31 -7.09,-40.66 -11.17,-61.02 -4.07,-20.33 -8.47,-40.52 -13.18,-60.55zm-1875.66 480.64c-2.57,-2.11 -5.06,-4.36 -7.44,-6.73 -4.75,-4.73 -8.94,-9.85 -12.55,-15.25 -3.72,-5.54 -6.83,-11.36 -9.31,-17.34 -2.54,-6.12 -4.48,-12.47 -5.77,-18.93 -1.3,-6.5 -1.97,-13.08 -1.97,-19.62 -0,-6.62 0.63,-13.25 1.91,-19.72 1.27,-6.41 3.18,-12.76 5.72,-18.93 2.48,-6 5.58,-11.83 9.28,-17.37 3.61,-5.41 7.81,-10.54 12.55,-15.3l565.72 -567.25 -31.33 -21.91c-17.52,-12.24 -35.58,-23.87 -54.12,-34.84 -18.37,-10.87 -37.16,-21.05 -56.27,-30.47 -19.09,-9.41 -38.61,-18.14 -58.49,-26.11 -19.66,-7.9 -39.72,-15.08 -60.11,-21.49 -20.25,-6.37 -40.82,-12.01 -61.66,-16.85 -20.56,-4.78 -41.45,-8.82 -62.62,-12.06 -20.96,-3.21 -42.16,-5.65 -63.53,-7.27 -21.13,-1.6 -42.5,-2.42 -64.05,-2.42 -56.16,0 -111.07,5.54 -164.2,16.09 -54.53,10.83 -107.2,26.95 -157.43,47.79 -51.28,21.27 -100,47.45 -145.55,77.94 -45.99,30.78 -88.84,66.01 -127.89,105.07 -39.05,39.05 -74.29,81.9 -105.07,127.89 -30.48,45.55 -56.66,94.26 -77.94,145.54 -20.84,50.23 -36.96,102.9 -47.79,157.44 -10.55,53.13 -16.09,108.04 -16.09,164.19 0,56.16 5.54,111.07 16.09,164.2 10.83,54.54 26.95,107.22 47.79,157.45 21.27,51.27 47.45,99.99 77.93,145.53 30.78,45.99 66.02,88.84 105.07,127.89 39.05,39.05 81.89,74.29 127.89,105.07 45.55,30.48 94.26,56.66 145.54,77.93 50.23,20.84 102.9,36.96 157.44,47.79 53.13,10.55 108.05,16.09 164.2,16.09 56.17,0 111.09,-5.54 164.22,-16.09 54.54,-10.83 107.22,-26.95 157.44,-47.78 103.02,-42.73 195.78,-105.36 273.42,-182.99 39.05,-39.05 74.29,-81.9 105.07,-127.89 30.48,-45.55 56.66,-94.26 77.93,-145.54 20.83,-50.23 36.95,-102.9 47.78,-157.44 10.55,-53.13 16.09,-108.05 16.09,-164.22 0,-22.31 -0.89,-44.48 -2.63,-66.46 -1.77,-22.35 -4.42,-44.45 -7.88,-66.2 -3.51,-22.04 -7.88,-43.78 -13.05,-65.16 -5.22,-21.58 -11.29,-42.87 -18.16,-63.79 -6.92,-21.1 -14.69,-41.88 -23.23,-62.27 -8.61,-20.56 -18.02,-40.71 -28.16,-60.38 -10.21,-19.81 -21.19,-39.16 -32.86,-57.98 -11.73,-18.92 -24.22,-37.38 -37.41,-55.31l-22.2 -30.18 -567.3 568.84c-2.33,2.34 -4.78,4.57 -7.31,6.65 -2.49,2.07 -5.15,4.05 -7.91,5.91 -2.69,1.8 -5.5,3.48 -8.39,5.03 -2.98,1.59 -5.99,3.03 -8.98,4.28 -3.07,1.26 -6.16,2.36 -9.26,3.29 -3.15,0.95 -6.37,1.75 -9.6,2.39 -3.15,0.62 -6.44,1.1 -9.83,1.43 -3.4,0.33 -6.74,0.49 -10.01,0.49 -3.27,0 -6.62,-0.17 -10.02,-0.49 -3.37,-0.32 -6.65,-0.8 -9.79,-1.41 -3.24,-0.63 -6.45,-1.43 -9.61,-2.37 -3.09,-0.93 -6.17,-2.02 -9.2,-3.27 -2.96,-1.22 -5.91,-2.61 -8.81,-4.16 -2.88,-1.54 -5.7,-3.24 -8.42,-5.06 -2.69,-1.79 -5.33,-3.76 -7.88,-5.86z"/>
 </g>
</svg>
