<?xml version="1.0" encoding="UTF-8"?>
<!DOCTYPE svg PUBLIC "-//W3C//DTD SVG 1.1//EN" "http://www.w3.org/Graphics/SVG/1.1/DTD/svg11.dtd">
<!-- Creator: CorelDRAW 2020 (64-Bit) -->
<svg xmlns="http://www.w3.org/2000/svg" xml:space="preserve" width="5.96359in" height="6in" version="1.1" style="shape-rendering:geometricPrecision; text-rendering:geometricPrecision; image-rendering:optimizeQuality; fill-rule:evenodd; clip-rule:evenodd"
viewBox="0 0 6579.93 6620.11"
 xmlns:xlink="http://www.w3.org/1999/xlink"
 xmlns:xodm="http://www.corel.com/coreldraw/odm/2003">
 <defs>
  <style type="text/css">
   <![CDATA[
    .fil0 {fill:red}
    .fil1 {fill:red;fill-rule:nonzero}
   ]]>
  </style>
 </defs>
 <g id="Layer_x0020_1">
  <metadata id="CorelCorpID_0Corel-Layer"/>
  <path class="fil0" d="M765.53 4667.03c0.24,-72.82 14.7,-85.87 66.14,-85.71 8.6,0.03 16.48,0.53 25.55,1.12 11.26,0.71 24.5,1.57 37.72,1.79 141.63,2.34 486.7,0.82 867.93,-0.86 631.14,-2.77 1361.2,-5.99 1437.9,7.42l24.26 4.25 1.98 964.32 -28.4 1.06c-126.89,4.71 -839.05,7.59 -1456.24,6.52 -482.69,-0.83 -907.8,-4.12 -951.73,-10.89l-25 -3.85 -0.1 -885.17zm3406.93 -2187.58l412.97 0c31.5,0 56.03,-10.73 72.6,-27.07 8.5,-8.36 15.02,-18.22 19.4,-28.81 4.43,-10.73 6.72,-22.25 6.72,-33.74l-0.12 0c0,-21.74 -8.12,-43.77 -25.36,-61.28 -36.64,-37.21 -135.83,-34.09 -223.06,-31.34l-0.11 0c-23.77,0.74 -46.91,1.47 -63.22,1.47 -17.68,0 -40.59,-0.76 -63.66,-1.54 -86.14,-2.88 -174.74,-5.82 -212.43,38.95 -16.44,19.53 -23.92,40.49 -23.92,60.11 0,11.39 2.55,22.4 7.29,32.38l0 0.11c4.86,10.22 12.01,19.48 21.08,27.11 17.25,14.53 41.81,23.65 71.81,23.65zm0 -599.47l426.28 0c38.76,0 63.07,-21.97 73.57,-50.25 4.48,-12.04 6.67,-25.31 6.62,-38.66 -0.04,-13.18 -2.42,-26.55 -7.02,-39.02 -10.92,-29.58 -35.58,-52.84 -73.18,-52.84l-439.61 0c-38.43,0 -64.79,23.39 -76.57,53.17 -4.86,12.28 -7.4,25.41 -7.43,38.29 -0.03,12.91 2.34,25.82 7.27,37.67 12.09,29.04 41.19,51.64 90.06,51.64zm13.32 -599.47l386.32 0c28.34,0 54.63,-9.61 74.75,-25.13 11.73,-9.05 21.33,-20.07 27.93,-32.29 6.27,-11.61 9.82,-24.41 9.82,-37.65l0.12 0c0,-17.14 -6.11,-35.49 -20.09,-53.61 -32.61,-42.27 -136.24,-37.9 -224.58,-34.17 -25.13,1.06 -49.23,2.08 -67.76,2.08 -18.68,0 -42.77,-0.86 -67.21,-1.72 -90.64,-3.21 -187.27,-6.62 -216.59,39.57 -10.7,16.87 -15.59,33.98 -15.59,50.11 0,14.58 4,28.58 11.25,41l0 0.11c7.44,12.75 18.44,24.01 32.23,32.76 18.66,11.84 42.38,18.93 69.42,18.93zm-3553.96 509.08c0,26.07 9,48.96 23.47,65.24 13.9,15.63 32.94,25.15 53.59,25.15l2864.12 0c45.42,0 75.39,-17.21 91.07,-40.98 7.74,-11.72 12.25,-25.17 13.59,-38.94 1.37,-14 -0.51,-28.37 -5.54,-41.71 -9.81,-26.03 -32,-48.12 -65.88,-55.91l-2697.54 -3.35 0 0.12c-16.69,0 -39.36,-0.7 -61.92,-1.36 -18.57,-0.56 -37.15,-1.13 -60.33,-1.13 -83.32,0 -154.63,11.66 -154.63,92.88zm117.02 -509.08l2837.48 0c43.64,0 71.09,-24.14 82.94,-54.63 4.77,-12.32 7.22,-25.6 7.32,-38.77 0.1,-13.29 -2.1,-26.48 -6.58,-38.43 -10.33,-27.62 -33.93,-48.93 -70.36,-48.93l-2890.76 0c-33.59,0 -59.67,23.48 -71.87,53.38 -4.99,12.24 -7.71,25.3 -7.75,38.06 -0.03,12.64 2.4,25.16 7.7,36.51 13.85,29.71 48.72,52.82 111.87,52.82zm-48.34 1024.07c-31.3,9.5 -51.63,27.53 -62.23,48.5 -7.18,14.19 -10.07,29.96 -9.03,45.41 1.05,15.51 6.05,30.61 14.58,43.4 11.88,17.79 30.85,31.42 55.92,35.96l2087.28 1.72 0 -0.12c30.78,0 97.47,1.27 177.72,2.79 231.17,4.39 580.37,11.04 650.48,-6.12 24.27,-5.94 41.81,-20.86 52.08,-39.55 7.61,-13.84 11.4,-29.74 11.19,-45.67 -0.22,-15.9 -4.44,-31.85 -12.8,-45.84 -11.94,-19.94 -32.77,-36.1 -63.14,-42.79 -46.43,-10.23 -779.19,-6.16 -1101.19,-4.38l-140.64 0.79c-43,0 -154.36,-1.39 -295.41,-3.12 -469.2,-5.79 -1282.79,-15.86 -1364.84,9.03zm3796.08 2902.7l1.08 -1.23c17.13,-19.6 260.11,-297.83 265.76,-325.58 2.73,-13.38 8.47,-18.21 14.37,-22.6l13.89 -15.46 20.13 10.13c49.29,24.82 100.77,67.79 150.76,109.5 25.76,21.5 51.14,42.69 74.19,59.74 64.37,66.85 1088.33,833.26 1098.98,833.26 9.4,7.18 22.12,16.18 36.32,26.21 28.69,20.26 63.46,44.83 97.43,73.69 110.62,94.05 208.04,228.02 67.6,393.21 -167.93,197.52 -354.21,45.74 -488.08,-63.35 -17.57,-14.31 -34.13,-27.81 -50.71,-40.34 -33.7,-25.47 -64.59,-48.66 -107.37,-80.76 -312.9,-234.83 -1136.9,-853.24 -1194.11,-917.7l-17.1 -19.27 16.87 -19.46zm281.9 -349.91l0.21 -0.16 -0.21 0.16zm-2289.03 -476.76c-11.35,-159.66 -7.13,-287.54 15.95,-403.24 23.22,-116.36 65.38,-219.9 129.73,-330.32 52.12,-89.42 113.68,-168.23 182.39,-236.37 184.39,-182.85 420.16,-288.79 663.99,-317.37 243.64,-28.57 495.49,20.12 712.23,146.46 82.33,47.98 159.62,107.19 229.45,177.61 165.89,167.27 283.13,394.71 318.59,644.5 31.94,224.97 -2.43,468.12 -127.28,701.85 -51.7,96.8 -115.31,182.27 -189.35,256.8 -76.34,76.89 -163.67,142.15 -260.33,196.28 -116.95,65.5 -216.69,101.7 -328.96,119.84 -110.87,17.92 -232.83,17.85 -395.73,10.99l-23.94 -1 -3.95 -23.54c-16.09,-95.61 -10.15,-220.12 -4.09,-347.2 9.67,-202.68 19.67,-412.28 -59.72,-498.77 -68.9,-75.05 -164.49,-73.31 -289.19,-71.03 -26.28,0.47 -53.84,0.99 -72.39,0.99 -29.26,0 -85.57,-0.36 -142.7,-0.74 -108.35,-0.7 -217.37,-1.41 -324.51,1.55l-28.2 0.79 -1.99 -28.1zm2857.31 1753.3c84.84,52.11 170.83,119.71 254.45,185.46 29.56,23.24 58.87,46.29 84.47,65.88 19.76,15.12 38.61,30.14 57.75,45.39 88.56,70.58 183.59,146.29 293.18,175.13 71.7,18.87 142.24,18.41 207.43,2.75 77.65,-18.65 147.99,-58.95 204.05,-113.9 56.06,-54.95 97.74,-124.48 118.04,-201.62 17.04,-64.78 19.04,-135 1.87,-206.47 -37.76,-157.13 -109.84,-211.75 -218.06,-293.72l-26.85 -20.45 -1021.17 -770.98 0 -4210.9c0,-54.16 1.74,-112.75 3.42,-169.61 8.52,-287.41 15.62,-526.9 -238.68,-598.19 -109.21,-30.62 -545.53,-23.01 -829.86,-18.06 -85.81,1.49 -158.52,2.76 -197.57,2.76 -288.9,0 -492.03,0.42 -693.59,0.83 -470.59,0.96 -941.39,1.93 -1411.45,-1.09l-6.54 -0.04c-74.39,-0.51 -143.63,-0.98 -168.26,39.01 -4.56,7.4 -8.08,15.41 -10.59,23.73 -6.28,20.79 -5.38,42.44 1.32,61.44 6.54,18.57 18.57,34.53 34.72,44.49l0.05 -0.08c5.43,3.34 11.26,6.02 17.38,7.86 41.77,12.6 1709.46,7.84 2608.29,5.28 251.29,-0.71 442.62,-1.26 521.86,-1.19 166.95,0.16 195.71,85.98 195.6,210.46 -0.03,28.37 -1.6,57.32 -3.24,87.7 -1.78,32.84 -3.66,67.46 -3.66,104.89l0 3676.72c0,52.76 0.99,101.79 2.01,152.46 2.6,129.75 5.42,269.77 -5.62,379.91l-5.29 52.75 -41.97 -32.36c-5.86,-4.52 -19.68,-14.82 -35.13,-26.34 -53.12,-39.6 -129.04,-96.17 -161.55,-134.3l-11.14 -13.05 5.84 -16.11c48.39,-133.62 67.63,-288.41 62.72,-441.91 -5.23,-163.38 -37.87,-325.02 -91.86,-458.01 -105.9,-260.87 -277.1,-467.49 -495.57,-608.69 -219.27,-141.73 -486.6,-218 -783.82,-217.6l-2717.75 -0.53c-12.81,-0.03 -25.03,-0.3 -37.18,-0.54 -65.27,-1.38 -128.77,-2.69 -157.1,32.88 -6.77,8.51 -11.61,17.89 -14.66,27.59 -5.8,18.5 -5.39,38.41 -0.03,56.52 5.27,17.78 15.27,33.6 28.74,44.32 6.23,4.96 13.2,8.8 20.75,11.17 27.98,8.78 401.68,12.91 831.55,13.84 560.49,1.22 1214.5,-3.48 1327.3,-10.36l61.36 -3.74 -35.66 50.19c-18.17,25.56 -47.37,50.02 -84.81,81.4 -69,57.8 -167.86,140.6 -265.44,289.02l-8.97 13.64 -16.27 -0.39c-323.27,-7.7 -667.53,-5.29 -1010.5,-2.9 -229.15,1.6 -457.74,3.21 -679.17,1.79l-19.67 -0.19c-70.49,-0.78 -124.22,-1.39 -144.3,47.14 -26.95,65.12 -4.98,97.83 33.5,113.75 55.98,23.17 143.47,19.98 194.61,18.1 13.15,-0.48 24.25,-0.89 29.31,-0.89l0 0.12c149.18,-0.01 307.91,1.3 469.38,2.63 341.15,2.8 694.72,5.72 995.17,-3.52l33.79 -1.03 -3.71 33.64c-6.56,59.45 -21.64,107.32 -37.83,158.7 -33.25,105.55 -71.47,226.89 -42.11,497.6l3.49 32.19 -32.53 0.31c-62.69,0.6 -202.62,-0.33 -373.88,-1.47 -437.64,-2.92 -1080.87,-7.22 -1154.46,8.87 -180.24,39.43 -173.87,231.11 -167.07,435.8 1.41,42.57 2.85,85.62 2.85,123.66l-0.12 0 -0.01 386.32c-0.03,166.32 3.89,265.13 47.05,317.65 42.4,51.61 130.31,65.97 299.94,65.94 60.42,-0.02 191.8,0.56 362.94,1.31 656.05,2.88 1897.92,8.34 1955.3,-6.49 93.47,-24.17 118.15,-89.18 135.48,-134.9 13.83,-36.45 24.48,-64.5 57.25,-72.35l6.79 -0.8c37.76,0.12 72.11,0.76 104.6,1.36 132.69,2.46 234.35,4.35 374.75,-32.85 62.39,-16.52 149.89,-44.41 224.64,-76.23 54.03,-23 100.66,-47.6 124.17,-70.41l15.09 -14.64 18.68 9.46c36.28,18.39 193.79,141.36 360.92,271.85 183.58,143.33 378.98,295.88 429.64,323.13l15.56 8.38 0 17.55c0,56.64 0.57,95.3 1.06,129.23 2.14,146.39 3.22,220.27 -39.74,263.75 -43.8,44.33 -119.68,43.47 -272.78,41.72 -29.85,-0.34 -63.53,-0.73 -117.69,-0.73l-4063.04 0c-55.8,0 -93.22,0.52 -126.26,0.97 -149.69,2.05 -226.06,3.1 -271.39,-40.76 -47.04,-45.53 -46.43,-125.96 -45.18,-290.09 0.17,-22.41 0.36,-46.68 0.36,-99.27 0,-179.9 -0.46,-424.52 -1.07,-747.45 -2.97,-1574.95 -9.24,-4886.26 11.2,-4942.72 43.34,-119.74 247.36,-105.85 444.04,-92.46 121.82,8.3 240.6,16.39 303.48,-7.51 19.71,-7.49 34.33,-21.92 43.23,-39.33 7.69,-15.06 11.2,-32.43 10.17,-49.64 -1,-16.85 -6.45,-33.42 -16.62,-47.29 -11.82,-16.12 -30.39,-28.91 -56.34,-34.76 -49.41,-11.15 -201.47,-7.91 -310.95,-5.57 -39.71,0.84 -74.3,1.59 -91.24,1.59l0 -0.12 -27.41 -0.05c-192.84,-0.53 -411.48,-1.13 -476.64,245.32 -26.26,99.31 -17.65,1550.06 -14.01,2164.31 0.81,135.68 1.39,233.57 1.39,251.97l0 3250.44c0,33.42 -0.72,76.01 -1.38,116.62 -3.82,230.2 -6.51,392.55 160.36,498.11 104.62,66.18 378.42,58.08 591.14,51.8 58.35,-1.72 112.36,-3.33 152.87,-3.33l3250.44 0c77.76,0 170.4,1.47 264.22,2.96 185.09,2.94 375.18,5.96 547.24,-3.17 137.58,-7.31 220.14,-55 267.8,-128.14 48.99,-75.19 63.53,-179.16 63.53,-295.07l0 -52.66 44.83 27.53z"/>
  <path class="fil1" d="M1117.91 5190.27l117.33 -11.65c7.07,39.25 21.22,67.96 42.71,86.4 21.49,18.44 50.48,27.6 86.95,27.6 38.56,0 67.68,-8.18 87.23,-24.55 19.55,-16.37 29.4,-35.5 29.4,-57.42 0,-14.14 -4.16,-26.07 -12.34,-36.05 -8.18,-9.85 -22.61,-18.45 -43.13,-25.66 -14.01,-4.99 -45.91,-13.59 -95.83,-26.07 -64.21,-16.09 -109.28,-35.78 -135.22,-59.22 -36.47,-32.87 -54.64,-72.95 -54.64,-120.24 0,-30.37 8.6,-58.94 25.66,-85.43 17.19,-26.49 41.88,-46.6 74.19,-60.47 32.31,-13.87 71.14,-20.8 116.91,-20.8 74.48,0 130.64,16.51 168.23,49.65 37.72,33.14 57.41,77.25 59.36,132.58l-120.66 4.16c-5.13,-30.79 -16.09,-52.84 -32.87,-66.29 -16.78,-13.45 -42.02,-20.25 -75.58,-20.25 -34.67,0 -61.85,7.21 -81.4,21.63 -12.62,9.29 -19,21.64 -19,37.17 0,14.14 5.96,26.21 17.89,36.19 15.12,12.9 51.87,26.21 110.25,40.08 58.39,13.73 101.52,28.15 129.39,42.85 28.01,14.84 49.93,34.95 65.74,60.6 15.81,25.66 23.71,57.28 23.71,94.86 0,34.11 -9.43,66.15 -28.43,95.97 -19,29.82 -45.77,52.01 -80.44,66.43 -34.67,14.56 -77.94,21.77 -129.67,21.77 -75.31,0 -133.14,-17.34 -173.49,-52.14 -40.36,-34.67 -64.35,-85.29 -72.26,-151.72zm586.63 193.05l0 -595.78 441.01 0 0 100.68 -320.36 0 0 132.3 297.89 0 0 100.68 -297.89 0 0 161.43 332 0 0 100.68 -452.66 0zm553.34 0l0 -595.78 180.71 0 106.79 406.34 105.54 -406.34 181.12 0 0 595.78 -111.5 0 -0.42 -469.02 -117.46 469.02 -115.94 0 -116.91 -469.02 -0.42 469.02 -111.5 0z"/>
 </g>
</svg>
