<?xml version="1.0" encoding="UTF-8"?>
<!DOCTYPE svg PUBLIC "-//W3C//DTD SVG 1.1//EN" "http://www.w3.org/Graphics/SVG/1.1/DTD/svg11.dtd">
<!-- Creator: CorelDRAW 2020 (64-Bit) -->
<svg xmlns="http://www.w3.org/2000/svg" xml:space="preserve" width="6in" height="5.70186in" version="1.1" style="shape-rendering:geometricPrecision; text-rendering:geometricPrecision; image-rendering:optimizeQuality; fill-rule:evenodd; clip-rule:evenodd"
viewBox="0 0 6556.39 6230.61"
 xmlns:xlink="http://www.w3.org/1999/xlink"
 xmlns:xodm="http://www.corel.com/coreldraw/odm/2003">
 <defs>
  <style type="text/css">
   <![CDATA[
    .fil0 {fill:red}
   ]]>
  </style>
 </defs>
 <g id="Layer_x0020_1">
  <metadata id="CorelCorpID_0Corel-Layer"/>
  <path class="fil0" d="M4469.84 6075.58l-2425.08 0.87 23.39 -55.93c35.16,-84.32 50.55,-121.19 113.25,-138.53 42.05,-11.62 102.91,-10.44 211.06,-8.32 52.92,1.02 118.06,2.31 209.03,2.31l0 0.12 1666.53 -0.65c168.06,-0.19 176.97,23.23 217.2,129.18 2.99,7.88 6.25,16.46 11.95,30.89l15.84 40.06 -43.16 0.01zm-2466.14 -4285.9l116.68 -11.58c7.03,39.03 21.11,67.58 42.49,85.92 21.37,18.34 50.2,27.45 86.48,27.45 38.34,0 67.3,-8.14 86.75,-24.41 19.45,-16.27 29.25,-35.31 29.25,-57.1 0,-14.07 -4.14,-25.93 -12.28,-35.86 -8.14,-9.79 -22.48,-18.34 -42.9,-25.51 -13.92,-4.96 -45.65,-13.52 -95.3,-25.93 -63.86,-16 -108.68,-35.58 -134.48,-58.9 -36.27,-32.68 -54.34,-72.55 -54.34,-119.58 0,-30.2 8.56,-58.61 25.52,-84.96 17.1,-26.35 41.65,-46.34 73.79,-60.13 32.14,-13.79 70.76,-20.7 116.27,-20.7 74.07,0 129.93,16.42 167.3,49.38 37.52,32.97 57.1,76.83 59.04,131.86l-119.99 4.13c-5.11,-30.62 -16,-52.55 -32.69,-65.92 -16.69,-13.38 -41.79,-20.14 -75.17,-20.14 -34.48,0 -61.51,7.17 -80.96,21.52 -12.55,9.24 -18.9,21.51 -18.9,36.96 0,14.06 5.93,26.07 17.8,36 15.03,12.82 51.58,26.06 109.65,39.85 58.07,13.66 100.96,28.01 128.68,42.63 27.86,14.76 49.65,34.76 65.38,60.27 15.72,25.51 23.58,56.96 23.58,94.34 0,33.92 -9.38,65.78 -28.27,95.44 -18.9,29.65 -45.52,51.72 -80,66.07 -34.48,14.48 -77.52,21.65 -128.96,21.65 -74.9,0 -132.41,-17.24 -172.55,-51.86 -40.13,-34.48 -63.99,-84.82 -71.85,-150.89zm583.42 192l0 -592.52 438.6 0 0 100.13 -318.6 0 0 131.58 296.26 0 0 100.13 -296.26 0 0 160.55 330.19 0 0 100.14 -450.19 0zm527.15 -292.68c0,-60.41 9.11,-111.17 27.17,-152.27 13.38,-30.2 31.86,-57.37 55.17,-81.37 23.31,-24 48.82,-41.79 76.55,-53.52 36.96,-15.58 79.58,-23.45 127.85,-23.45 87.44,0 157.24,27.17 209.78,81.39 52.42,54.34 78.63,129.78 78.63,226.47 0,95.86 -26.07,170.89 -78.07,224.96 -52,54.2 -121.65,81.24 -208.68,81.24 -88.14,0 -158.34,-26.89 -210.34,-80.82 -52,-53.8 -78.07,-128 -78.07,-222.61zm123.31 -4.01c0,67.17 15.59,118.07 46.62,152.82 31.03,34.62 70.48,52 118.2,52 47.86,0 87.03,-17.24 117.79,-51.58 30.62,-34.48 45.92,-86.06 45.92,-154.88 0,-68 -14.9,-118.76 -44.82,-152.14 -29.79,-33.51 -69.38,-50.21 -118.89,-50.21 -49.38,0 -89.24,16.97 -119.44,50.76 -30.21,33.93 -45.38,84.96 -45.38,153.23zm-54.64 2808.06c14.72,0 36.55,0.66 59.17,1.33 64.18,1.94 136.62,4.13 183.84,-11.22 34.29,-11.15 53.44,-35.21 37.27,-84.95 -17.66,-54.35 -85.83,-52.24 -149.48,-50.27 -12.09,0.37 -24.07,0.75 -36.55,0.77 -12.33,0.03 -24.33,-0.15 -36.1,-0.34 -67.34,-1.03 -127.13,-1.94 -146,41.41 -6.09,13.99 -8.85,26.6 -8.85,37.76 0,12.72 3.78,23.5 10.31,32.18 7.14,9.51 17.79,17.19 30.7,22.81 15.89,6.91 35.11,10.53 55.69,10.53zm-548.62 -3915.63c-0.82,-80.33 -35.95,-106.95 -87.7,-104.75 -68,2.89 -162.97,45.22 -255.37,90.83 -358.02,176.72 -572.89,451.13 -666.13,751.82 -67.15,216.53 -71.43,446.91 -20.86,664.47 50.55,217.48 155.98,422.06 308.24,587.06 213.06,230.87 518.1,384.23 893.09,386.83 351.3,2.44 656.15,-128.77 879.37,-342.05 232.02,-221.68 376.04,-532.15 392.62,-873.48 7.2,-148.13 -13.38,-286.2 -54.02,-412.61 -84.25,-261.96 -254.74,-474.38 -443.34,-623.23 -187.83,-148.27 -392.62,-233.08 -547,-240.57 -37.16,-1.81 -71.08,0.92 -100.73,8.38 -23.94,85.57 -4.54,112.8 37.46,125.95 19.75,6.19 44.96,10.61 72.9,15.5 43.76,7.67 93.94,16.47 147.2,35.99 71.83,26.33 131.94,53.88 187.86,86.13 56.05,32.34 107.07,68.9 160.67,113.26 242.06,200.28 366.65,464.79 392.47,734.64 14.42,150.76 -2.05,303.14 -46.13,446.8 -44.11,143.75 -115.85,278.86 -211.9,394.95 -170.74,206.35 -418.25,352.98 -724.2,382.24 -340.9,32.62 -631.75,-72.67 -846.1,-255.33 -111.26,-94.81 -201.85,-210.48 -268.05,-338.5 -66.16,-127.92 -107.99,-268.34 -121.8,-412.73 -26.8,-280.03 51.85,-574.75 262.79,-822.29 195.52,-229.43 368.6,-287.81 506.09,-334.16 58.62,-19.76 110.37,-37.22 152.57,-65.16zm191.03 4438.19l934.49 -3.46 -0.34 29.61c-0.42,36.52 -2.13,69.44 -3.77,101.47 -6.84,132.59 -12.87,249.66 81.89,417.06 8.49,15.01 17.89,28.84 27.11,42.41 22.08,32.5 43.33,63.74 51.46,104l7.09 35.1 -1293.27 -2.75 8.2 -35.75c8.06,-35.17 25.85,-59.6 46.09,-87.38 9.55,-13.13 19.77,-27.15 29.32,-43.38 14.21,-24.14 25.53,-47.78 35.35,-72.11 9.71,-24.04 18.14,-49.58 26.56,-77.38 38.61,-127.46 33.86,-191.01 25.89,-297.56 -1.71,-22.77 -3.57,-47.66 -5.36,-78.97l-1.78 -30.77 31.06 -0.12zm1430.93 -1202.28c67.43,-89.01 200.37,-214.9 332.13,-339.69 135.34,-128.17 269.5,-255.21 325.65,-335.39l12.04 -17.2 20.11 5.83c37.48,10.86 91.86,56.89 143.05,107.34 49.61,48.9 96.2,101.3 120.23,128.63l17.22 19.59 -17.57 19.45c-32.69,36.18 -69.61,71.91 -106.17,107.3 -66.06,63.94 -131.03,126.83 -158.18,178.88 -18.63,35.7 -15.81,66.73 27.45,89.29 53.84,28.09 136.36,-62.19 212.06,-145.02 49.08,-53.71 95.67,-104.68 138.11,-126.55l16.84 -8.67 14.86 11.77c44.84,35.55 139.59,123.45 217.7,209.76 55.47,61.29 103.03,122.46 120.08,165.56 92.34,233.46 -42.89,368.9 -145.54,471.7 -13.25,13.27 -25.95,25.98 -37.84,38.75 -50.08,53.77 -115.12,120.83 -197.25,163.23 -84.87,43.82 -186.01,60.73 -303.96,9.91 -50.36,-21.69 -130.31,-83.28 -204.1,-150.96 -75.71,-69.45 -146.24,-146.55 -172.68,-194.57l-9.05 -16.43 11.23 -15.15c31.22,-42.12 64.91,-74.19 99.34,-106.99 19.39,-18.46 39.05,-37.18 58.47,-58.05 20.04,-21.54 29.65,-46.97 29.65,-70.19 0,-9.83 -1.69,-19.07 -4.96,-27.21 -3.13,-7.75 -7.75,-14.7 -13.81,-20.33 -10.66,-9.92 -26.39,-16.09 -46.98,-16.09 -36.66,0 -97.53,62.85 -150.46,117.51 -32.43,33.48 -62.22,64.23 -87.06,80.43l-21.93 14.3 -16.66 -20.16c-24.54,-29.68 -57.11,-58.81 -89.87,-88.1 -53.5,-47.83 -107.54,-96.16 -135.02,-151.82l-8.04 -16.27 10.9 -14.39zm-612.66 -616.09c36.46,-35.88 82.5,-64.39 128.26,-92.71 28.27,-17.49 56.47,-34.94 81.83,-54.13 85.82,-64.92 182.21,-156.08 268.03,-255.26 77.55,-89.62 146.4,-185.67 190.78,-274.52l16.39 -32.81 28.39 23.17c59.23,48.35 108.87,101.29 159.67,155.49 28.02,29.88 56.41,60.16 86.28,89.56 18.72,18.42 41.43,39.59 65.14,61.69 61.54,57.36 129.82,121.01 169.53,175.93l15.52 21.48 -19.76 17.56c-54.11,48.08 -168.43,164.73 -289.25,288.01 -172.27,175.79 -357.68,364.98 -407.37,394.16l-19.84 11.65 -494.38 -508.81 20.77 -20.45zm-996.71 -3045.63c216.37,-32.57 425.62,-7.61 613.1,49 232.89,70.31 432.48,189.65 570.38,308.04 335.11,287.72 506.98,659.03 542.11,1035.05 20.1,215.17 -4.56,431.69 -69,634.8 -64.48,203.24 -168.85,393.35 -308.1,555.54 -238.71,278.02 -579.8,473.77 -998.17,512.86 -450.4,42.09 -844.9,-87.9 -1143.61,-324.67 -318.39,-252.34 -527.75,-625.97 -579.89,-1041.78 -40.59,-323.62 21.37,-622.94 152.14,-879.07 143.44,-280.94 369.73,-509.82 634.24,-661.66 91.83,-52.72 175.7,-90.31 268.51,-119.54 92.25,-29.06 192.72,-49.66 318.3,-68.56zm-2112.76 1041.16l654.83 -1.77 -4.08 32.93c-6.14,49.59 -16.56,100.91 -27.19,153.23 -17.41,85.81 -35.43,174.58 -35.43,269.52 0,318.04 68.88,590.82 182.65,819.71 130.02,261.6 318.72,466.24 530.19,615.85l0.05 -0.08c169.7,120.03 375.4,215.88 593.66,270.44 200.89,50.2 412.21,65.41 615.57,32.27 74.59,-12.14 152.1,-34.3 224.43,-54.96 70.45,-20.13 136.13,-38.9 193.04,-46.6l13.27 -1.79 10.05 8.91c114.35,101.47 223.33,216.08 331.29,329.61 51.16,53.81 102.14,107.41 153.07,158.98l49.39 50c-1170.94,-2.75 -2341.89,-5.73 -3512.83,-8.18 -7.34,-875.46 -1,-1752.34 -1.26,-2627.98l29.29 -0.09zm3873.91 1139.02c9.74,-43.88 22.71,-83.52 35.89,-123.79 14.08,-43.08 28.45,-86.95 38.5,-134.68 68.16,-323.34 41.02,-477.1 -5.35,-739.84 -5.51,-31.23 -11.34,-64.24 -18.78,-108.15l-5.82 -34.27c532.75,2.52 1065.5,5.03 1598.23,7.73 0,875.84 0.24,1751.67 -0.03,2627.5l-231.08 2.81 -7.78 -17.93c-46.76,-107.68 -179.44,-233.97 -277.14,-326.97 -19.03,-18.11 -36.8,-35.02 -52.61,-50.55 -86.32,-84.73 -479.66,-472.53 -764.28,-759.46 -161.29,-162.58 -288.03,-293.33 -305.62,-319.9l-6.84 -10.33 2.71 -12.19zm-27.4 -1304.99c-10.63,-33.88 -22,-56.1 -33.26,-78.15 -11.73,-22.96 -23.4,-45.8 -34.31,-78.97l-12.54 -38.14 40.34 -0.21c294.52,-1.52 589.29,-1.18 883.96,-0.84 74.15,0.08 148.3,0.17 378.15,0.17 78.3,0 145.72,-0.95 213.78,-1.88 140.55,-1.94 283.32,-3.92 416.91,1.22 63.46,2.44 106.7,18.42 135.66,50.46 28.5,31.54 40.61,76.2 42.45,136.82 9.18,300.54 5.79,687.35 2.62,1049.17 -1.45,166.8 -2.87,327.97 -2.87,491.68 0,133.58 1.88,260.22 3.76,388.62 4.22,286.09 8.57,580.73 -5.96,851.39l-1.5 27.85 -216.58 -0.43 -1.39 -27.85c-12.6,-252.47 -9.12,-524.01 -5.72,-789.89 1.47,-115.72 2.94,-230.29 2.94,-355.4l0 -1147.18c0,-51.36 2,-104.73 3.86,-154.63 6.29,-168.07 10.93,-292.44 -71.81,-302.82l-1732.05 -0.43 -6.44 -20.56zm-4235.48 -8.72c0,-187.73 107.32,-187.55 267.88,-187.29 312.72,0.28 625.92,4.17 938.68,6.35l-98.89 210.34 -489.98 0c-25.91,0 -58.22,-1.81 -92.66,-3.73 -116.12,-6.48 -259.34,-14.46 -295.17,44.07 -17.85,48.18 -13.1,967.72 -9.16,1728.5 2.39,461.71 4.47,865.21 0.53,983.54l-0.95 28.25 -218.71 0.89 -1.45 -2810.93 -0.12 0zm1277.71 -332.04l-832.88 0 -68.5 -0.4c-251.63,-1.54 -435.7,-2.65 -502.93,213.32 -25.49,81.89 -18.71,1803.76 -14.39,2901.63 1.53,388.78 2.75,699.47 2.07,832.12 -0.38,77.45 3.51,135.44 17.5,182.85 13.33,45.24 36.51,81.74 75.05,118.31 82.91,78.69 157.2,78.56 306.97,78.33l11.35 -0.02c24.84,-0.03 53.96,0.49 85.45,1.06 105.64,1.9 238.69,4.32 306.55,-12.24 26.64,-68.79 14.81,-102.28 -18.63,-116.62 -50.49,-21.66 -143.95,-15.2 -241.07,-8.49 -172.77,11.94 -356.07,24.61 -395.1,-112.64 -19.29,-67.84 -14.98,-356.95 -11.83,-567.92 1.24,-83.99 2.31,-155.48 1.66,-194.57l-0.53 -31.5 31.42 1.76c277.62,15.57 841.57,10.4 1306.69,6.13 195.21,-1.79 373.69,-3.43 491.15,-3.43l0 0.12 2027.04 -0.12 24.76 -0.24c88.06,-0.91 127.97,-1.34 175.25,27.86 36.71,22.66 72.76,61.43 138.68,132.27 29.74,31.97 65.29,70.18 101.01,107.51l4.92 5.15c99.62,104.13 355.51,371.57 459.83,428.86 110.46,60.68 220.04,73.79 320.33,56.67 122.18,-20.88 231.18,-86.45 311.92,-165.83 18.39,-18.07 39.86,-38.15 61.25,-58.15 129.36,-120.96 256.6,-239.92 259.18,-504.8l0.28 -29.11 554.21 1.08 0.22 29.11c0.77,105.77 0.4,209.59 0.03,312.48 -0.14,40.97 -0.29,83.62 -0.29,174.46l0 49.81c0.74,202.14 1.06,288.99 -121.96,327.33 -81.51,25.41 -218.61,21.94 -458.91,15.85 -151.3,-3.83 -344.1,-8.72 -589.1,-8.2l-3991.68 -0.26c-13.09,-0.07 -26.01,-0.68 -39.49,-1.3 -54.88,-2.53 -120.91,-5.58 -142.96,25.32 -30.16,42.27 -27.72,68.56 -5.94,84.1 76.99,54.92 317.64,40.84 459.77,32.52 39,-2.28 70.98,-4.16 90.19,-4.16 126.1,0 218.16,-0.49 310.39,-0.97 231.8,-1.22 464.45,-2.43 694.22,2.38l21.79 0.46 5.88 21.01c35.57,127.27 28.35,243.64 -3,345.28 -39.76,128.9 -118.35,233.66 -197.44,306.71 -66.88,61.77 -137.37,59.95 -209.94,58.08 -104.05,-2.69 -213.27,-5.52 -308.93,252.09 -48.89,131.67 -27.64,189.85 35.09,213.13 64.18,23.84 169.94,19.94 291.06,15.48 53.19,-1.95 109.2,-4.02 162.31,-4.02l1712.91 0c42.3,0 90.75,2.22 139.81,4.45 122.49,5.59 249.16,11.37 326.38,-18.96 64.32,-25.26 92.27,-82.24 45.27,-201.89l-11.08 -28.58c-37.77,-97.55 -62.07,-160.29 -149.7,-204.32 -53.38,-26.82 -113.33,-28.33 -169.02,-29.71 -70.97,-1.77 -135.99,-3.4 -186.63,-50.34 -75.44,-69.93 -146.82,-156.53 -190.06,-264.46 -43.47,-108.5 -58.25,-237.68 -19.9,-391.68l5.38 -21.63 22.29 -0.64c317.65,-9.09 703.41,-3 1086.81,3.05 462.03,7.29 920.7,14.52 1252,-5.08 68.7,-4.07 132.67,-35.05 181.28,-81.29 49.43,-47.02 82.77,-109.48 88.87,-175.15 14.67,-157.78 7.65,-1550.16 3.47,-2378.8 -1.37,-272.39 -2.46,-486.46 -2.46,-557.12l0 -581.44c0,-35.89 1.02,-75.37 1.94,-112.09 4.06,-159.1 6.69,-261.58 -97.66,-359.18 -92.5,-86.52 -231.28,-84.3 -388.43,-81.78 -31.19,0.49 -63.23,1.01 -84.25,1.01l-1797.29 0 -8.8 -12.75c-34.59,-50.07 -72.1,-97.51 -112.17,-142.15 -262.06,-292.01 -637.56,-471.6 -1033.97,-518.7 -396.49,-47.1 -813.51,38.45 -1158.45,276.67 -54.72,37.79 -107.56,79.34 -158.09,124.69 -31.04,27.86 -57.51,54 -83.13,79.29 -17.49,17.27 -34.63,34.19 -52.5,50.96 -17.11,16.06 -32.5,35.64 -47.31,54.49 -28.04,35.7 -54.39,69.24 -94.77,85.3l-10.79 2.19z"/>
 </g>
</svg>
