<?xml version="1.0" encoding="UTF-8"?>
<!DOCTYPE svg PUBLIC "-//W3C//DTD SVG 1.1//EN" "http://www.w3.org/Graphics/SVG/1.1/DTD/svg11.dtd">
<!-- Creator: CorelDRAW 2020 (64-Bit) -->
<svg xmlns="http://www.w3.org/2000/svg" xml:space="preserve" width="6in" height="5.99987in" version="1.1" style="shape-rendering:geometricPrecision; text-rendering:geometricPrecision; image-rendering:optimizeQuality; fill-rule:evenodd; clip-rule:evenodd"
viewBox="0 0 6070.25 6070.11"
 xmlns:xlink="http://www.w3.org/1999/xlink"
 xmlns:xodm="http://www.corel.com/coreldraw/odm/2003">
 <defs>
  <style type="text/css">
   <![CDATA[
    .fil0 {fill:red;fill-rule:nonzero}
   ]]>
  </style>
 </defs>
 <g id="Layer_x0020_1">
  <metadata id="CorelCorpID_0Corel-Layer"/>
  <path id="Shape" class="fil0" d="M5619.3 0l-1855.76 0c-124.33,0 -237.03,50.76 -318.6,132.72 -81.63,82 -132.18,195.32 -132.18,320.34l0 1515.64c0,125.01 50.56,238.33 132.18,320.34 81.57,81.96 194.27,132.72 318.6,132.72l548.15 0 313.72 400.34c7.99,10.22 18.28,18.41 29.89,24.07 11.47,5.6 24.24,8.62 37.37,8.62l0.23 0 0 0.14c13.12,-0.02 25.93,-3.1 37.47,-8.75 11.33,-5.56 21.56,-13.85 29.76,-24.4l311.1 -400.01 548.07 0c124.34,0 237.04,-50.77 318.62,-132.72 81.63,-82.01 132.2,-195.32 132.2,-320.34l0 -1515.64 0.14 0c-0.01,-124.91 -50.64,-238.25 -132.35,-320.34 -81.57,-81.95 -194.26,-132.72 -318.6,-132.72zm-146.18 618.77c-7.15,-10.77 -16.82,-19.41 -27.93,-25.33 -11.06,-5.89 -23.81,-9.11 -37.16,-9.11l-106.7 0 -21.18 -7.47c-30.39,-24.09 -64.73,-42.85 -101.29,-55.55 -36.15,-12.56 -74.79,-19.2 -114.2,-19.2 -79.23,0 -152.19,26.46 -210.21,70.84 -59.31,45.36 -103.09,109.32 -122.03,182.73l-9.89 38.34 -36.34 -15.43c-68.59,-29.1 -132.99,-66.06 -192.18,-110.2 -59.07,-44.06 -113.12,-95.35 -161.18,-153.27l0.08 -0.06c-8.03,-9.64 -18.23,-17.08 -29.59,-21.86 -11.24,-4.73 -23.81,-6.81 -36.72,-5.81 -12.65,0.94 -24.72,4.94 -35.2,11.38l-0.14 0c-10.4,6.39 -19.28,15.23 -25.66,25.93 -19.27,32.29 -33.99,66.88 -43.84,102.78 -9.82,35.76 -14.87,73.25 -14.87,111.44 0,27.05 2.53,53.54 7.43,79.14 5.06,26.42 12.52,51.94 22.19,76.2l8.59 21.57 -16.98 15.85c-7.59,7.09 -13.61,15.61 -17.68,24.94 -3.97,9.09 -6.11,19.17 -6.11,29.68l0 4.28c0,66.07 16.06,134.65 44.99,198.41 28.97,63.85 70.67,122.64 121.9,169.07l54.7 49.59 -73.21 9.29c-18.69,2.37 -37.58,3.64 -56.71,3.76 -19.26,0.13 -38.45,-0.84 -57.61,-2.93 -18.09,-1.98 -35.64,2.25 -50.09,11.16 -14.41,8.89 -25.86,22.37 -31.81,38.88 -5.92,16.45 -5.68,33.87 -0.23,49.52 5.48,15.71 16.25,29.69 31.34,39.21 66.89,42.16 139.17,74.41 214.72,96.14 75.46,21.72 154.19,32.88 234.03,32.88 122.46,0 238.53,-23.75 343.1,-69.03 104.5,-45.26 197.93,-112.08 275.2,-198.24 67.8,-75.63 121.19,-163.61 157.62,-257.5 36.31,-93.57 55.73,-193.14 55.73,-292.22l0.13 0 -0.25 -11.1 2.93 -14.65 68.31 -152.57c5.15,-11.53 7.18,-24.1 6.15,-36.52 -1.02,-12.32 -5.1,-24.38 -12.13,-34.98zm-214.49 185.71c-2.3,5.14 -4,10.41 -5.06,15.66 -1.07,5.35 -1.55,10.89 -1.43,16.46l0.76 33.2c-0.35,152.72 -64.54,339.44 -200.43,475.78 -107.82,108.18 -260.37,184.95 -461.34,188.57l-19.18 -62.48c7.36,-4.82 13.79,-9.19 19.29,-13.1 6.11,-4.34 12.46,-9.06 18.97,-14.06 12.87,-9.91 21.86,-23.31 26.26,-37.97 4.45,-14.77 4.35,-30.83 -0.95,-45.94 -5.33,-15.24 -15.32,-28 -28.03,-36.91 -12.79,-8.97 -28.54,-14.12 -45.33,-14.12 -45.16,0 -86.39,-16.03 -122.21,-42.07 -38.61,-28.06 -70.87,-68.04 -94.63,-111.71l-28.32 -52.04 63.81 1.96c17.34,0.43 33.8,-4.81 47.21,-14.21 13.24,-9.28 23.53,-22.71 28.69,-38.77 5.12,-15.89 4.54,-32.6 -0.86,-47.68 -5.39,-15.05 -15.67,-28.46 -29.96,-37.81 -30.88,-20.23 -56.93,-46.12 -77.13,-75.87 -20.41,-30.07 -34.69,-63.78 -41.77,-99.27l55.02 -33.04c61.91,50.61 128.77,93.97 199.6,129.46 70.67,35.41 145.92,63.36 224.81,83.24 17.88,4.49 36.19,2.41 52.05,-4.86 15.85,-7.27 29.32,-19.78 37.45,-36.09 3.86,-7.74 6.32,-15.94 7.32,-24.24 1.03,-8.54 0.63,-17.14 -1.25,-25.4 -1.69,-7.49 -2.92,-14.59 -3.7,-21.37l0 -0.14c-0.84,-7.48 -1.27,-14.57 -1.27,-21.37 0,-51.04 21.14,-97.37 55.27,-130.92 33.97,-33.41 80.79,-54.13 132.31,-54.13 25.64,0 50.95,5.32 74.31,15.25 23.28,9.89 44.55,24.46 62.2,42.96 5.64,5.92 12.24,10.88 19.45,14.75 7.35,3.94 15.2,6.7 23.22,8.15l42.73 7.72 -27.88 62.41zm-3607.83 42.99l40.8 0c25.8,0 48.99,-9.56 65.59,-25.02 15.96,-14.85 25.83,-35.27 25.83,-57.73 0,-22.42 -9.88,-42.83 -25.83,-57.68 -16.6,-15.43 -39.77,-25.01 -65.58,-25.01l-40.8 0c-101.02,0 -192.44,38.08 -258.5,99.56 -65.4,60.87 -105.92,144.8 -105.92,237.24l0 128.74 -32.11 1.99c-24.28,1.51 -45.93,11.57 -61.38,26.92 -14.69,14.61 -23.7,34.13 -23.7,55.55 0,21.43 9.02,40.97 23.7,55.56 15.44,15.34 37.1,25.38 61.38,26.87l32.11 1.97 0 383.89c0,22.42 9.87,42.83 25.83,57.67 16.59,15.44 39.78,25.01 65.57,25.01 25.8,0 48.99,-9.56 65.6,-25.01 15.96,-14.85 25.83,-35.25 25.83,-57.68l0 -385.57 184.77 0c25.78,0 48.96,-9.56 65.56,-25.02 15.94,-14.85 25.82,-35.26 25.82,-57.69 0,-22.42 -9.88,-42.83 -25.83,-57.68 -16.59,-15.44 -39.77,-25.01 -65.55,-25.01l-184.77 0 0 -130.51c0,-47.66 20.74,-90.79 54.18,-121.91 32.8,-30.54 77.91,-49.45 127.41,-49.45zm68.89 4608.8c-17.62,0 -33.5,7.02 -44.91,18.35 -11.37,11.3 -18.41,26.98 -18.41,44.32l0 1.3c0,17.37 7.05,33.05 18.41,44.34 11.41,11.34 27.29,18.36 44.92,18.36 17.63,0 33.52,-7.03 44.92,-18.35 11.37,-11.29 18.41,-26.98 18.41,-44.34l0 -1.3c0,-17.34 -7.04,-33.02 -18.42,-44.32 -11.4,-11.34 -27.28,-18.35 -44.91,-18.35zm3278.66 -814.79c0,-75.47 -23.54,-145.47 -63.57,-202.93 -41.23,-59.18 -99.86,-105.1 -168.24,-130.08l-35.73 -13.05 16.81 -33.98c11.87,-23.99 21.16,-49.63 27.43,-76.5 6.03,-25.83 9.24,-52.89 9.24,-80.83 0,-97.71 -39.39,-186.26 -102.97,-250.29 -63.54,-64.02 -151.35,-103.67 -248.19,-103.67l-821.66 0 118.66 -354.83c24.25,-72.55 33.46,-147.64 27.92,-221.66 -5.54,-74.06 -25.83,-146.89 -60.59,-214.9 -34.82,-68.17 -81.84,-127.15 -138.3,-174.6 -56.41,-47.41 -122.37,-83.41 -195.1,-105.67l-144.32 -44.19c-21.48,-6.58 -43.68,-4.11 -62.39,5.33 -18.78,9.47 -34.1,25.93 -41.75,47.25l-226.8 631.43c-32.09,89.37 -79.76,171.15 -140.07,241.88 -60.36,70.81 -133.41,130.65 -216.16,176.05l-178.38 97.84 -15.1 -33.71c-6.75,-15.07 -17.71,-27.85 -31.37,-36.74 -13.05,-8.51 -28.72,-13.45 -45.68,-13.45l-1105.82 0c-23.36,0 -44.49,9.51 -59.73,24.86 -15.28,15.38 -24.74,36.76 -24.74,60.46l0 2149.26c0,23.7 9.47,45.09 24.74,60.48 15.24,15.35 36.37,24.86 59.73,24.86l1105.87 0c21.88,0 41.8,-8.35 56.7,-22.03 15.26,-14 25.45,-33.46 27.45,-55.2l4.15 -45.3 87.35 34.48c74.2,29.31 150.06,51.36 227.01,66.02 77.01,14.66 155.7,22.05 235.48,22.05l1346.93 0c96.83,0 184.61,-39.66 248.15,-103.68 63.58,-64.05 102.96,-152.6 102.96,-250.32 0,-28.32 -3.29,-55.77 -9.5,-81.98 -6.47,-27.33 -15.96,-53.26 -28.06,-77.36l-16.84 -33.56 35.09 -13.46c67.13,-25.74 124.48,-71.66 164.68,-130.31 39.05,-56.99 61.96,-126.13 61.96,-200.65 0,-29.37 -3.48,-57.62 -10,-84.34 -6.74,-27.58 -16.88,-54.17 -29.93,-79.28l-16.96 -32.62 34.01 -14.4c64.16,-27.16 118.78,-73.11 157.04,-131.02 36.99,-55.98 58.57,-123.27 58.57,-195.65zm-2854.84 1257.95l-902.81 0 0 -1978.61 432.78 0 0 1253.39c0,23.7 9.46,45.09 24.74,60.47 15.24,15.35 36.36,24.85 59.74,24.85 23.35,0 44.48,-9.5 59.71,-24.85 15.27,-15.38 24.72,-36.78 24.72,-60.47l0 -1253.39 335.23 0 0 1978.61 -34.11 0zm2503.65 -1074.62l-755.59 0c-23.38,0 -44.51,9.5 -59.75,24.84 -15.27,15.38 -24.73,36.76 -24.73,60.46 0,23.7 9.46,45.08 24.73,60.46 15.24,15.35 36.38,24.85 59.75,24.85l562.88 0c50.2,0 95.78,20.61 128.82,53.88 32.99,33.23 53.44,79.04 53.44,129.44 0,50.42 -20.45,96.24 -53.44,129.48 -33.02,33.27 -78.61,53.89 -128.82,53.89l-562.88 0c-23.37,0 -44.5,9.5 -59.74,24.86 -15.28,15.39 -24.74,36.78 -24.74,60.48 0,23.7 9.47,45.09 24.74,60.48 15.24,15.35 36.37,24.85 59.74,24.85l355.6 0c50.2,0 95.76,20.6 128.78,53.88 32.98,33.23 53.43,79.03 53.43,129.44 0,50.43 -20.43,96.22 -53.42,129.45 -33.02,33.27 -78.59,53.88 -128.79,53.88l-1346.93 0c-68.56,0 -136.7,-6.45 -203.91,-19.25 -67.3,-12.81 -133.15,-31.91 -197.04,-57.14l-152.76 -60.34 0 -1730.06 266.67 -146.28c101.03,-55.43 190.15,-128.4 263.73,-214.72 73.66,-86.38 131.82,-186.11 170.91,-294.96l199.47 -555.38 67.63 20.74c50.51,15.47 96.46,40.6 135.91,73.76 39.35,33.08 72.09,74.1 96.27,121.42 24.26,47.48 38.42,98.12 42.25,149.39 3.84,51.31 -2.61,103.5 -19.52,154.07l-156.28 467.46c-4.33,12.97 -5.42,26.75 -3.43,40.14 1.98,13.27 7.03,26.05 14.95,37.18 7.93,11.11 18.29,19.98 30.08,26.07 11.65,6.02 24.83,9.3 38.51,9.3l939.45 0c50.21,0 95.78,20.62 128.78,53.88 33,33.23 53.43,79.03 53.43,129.45 0,50.4 -20.44,96.21 -53.43,129.45 -33.02,33.25 -78.57,53.88 -128.78,53.88l-541.59 0c-23.35,0 -44.48,9.5 -59.72,24.85 -15.27,15.39 -24.73,36.76 -24.73,60.45 0,23.72 9.46,45.09 24.73,60.5 15.24,15.35 36.37,24.87 59.72,24.87l0 0.14 755.63 0.04 0 -0.14c50.2,0 95.78,20.6 128.81,53.88 33,33.23 53.43,79.02 53.43,129.44l-0.14 0c-0.02,50.49 -20.41,96.3 -53.32,129.45 -33.02,33.26 -78.6,53.88 -128.78,53.88zm-1975.42 -4002.89c23.71,0 45.12,-9.6 60.55,-25.09 15.48,-15.56 25.07,-37.15 25.07,-61.07l0 -282.71c0,-125.02 -50.56,-238.33 -132.18,-320.34 -81.57,-81.96 -194.27,-132.72 -318.6,-132.72l-1855.76 0c-124.34,0 -237.04,50.77 -318.61,132.72 -81.63,82 -132.2,195.32 -132.2,320.34l0 1515.64c0,125.01 50.57,238.33 132.2,320.34 81.57,81.95 194.28,132.72 318.61,132.72l548.11 0 313.72 400.34c8.01,10.22 18.3,18.4 29.93,24.08 11.47,5.59 24.24,8.61 37.38,8.61l0.23 0 0 0.14c13.12,-0.02 25.93,-3.1 37.47,-8.75 11.33,-5.56 21.56,-13.85 29.76,-24.4l311.08 -400.01 548.1 0c124.33,0 237.03,-50.76 318.6,-132.72 81.63,-82.01 132.18,-195.32 132.18,-320.34l0 -269.67c0,-23.93 -9.58,-45.51 -25.06,-61.07 -15.43,-15.5 -36.85,-25.09 -60.56,-25.09 -23.7,0 -45.12,9.6 -60.55,25.1 -15.49,15.55 -25.07,37.14 -25.07,61.06l0 269.67c0,77.27 -31.36,147.41 -81.96,198.26 -50.67,50.9 -120.57,82.43 -197.58,82.43l-589.83 0c-13.37,0 -26.2,3.01 -37.56,8.57 -11.38,5.58 -21.64,13.88 -29.87,24.45l-269.53 346.6 -271.87 -346.93c-8,-10.22 -18.28,-18.4 -29.9,-24.07 -11.48,-5.6 -24.25,-8.62 -37.39,-8.62l-589.85 0c-77.01,0 -146.92,-31.52 -197.59,-82.43 -50.6,-50.84 -81.96,-120.97 -81.96,-198.26l0 -1515.61c0,-77.29 31.36,-147.43 81.96,-198.29 50.67,-50.89 120.57,-82.44 197.59,-82.44l1855.8 0c77.02,0 146.92,31.54 197.58,82.44 50.6,50.85 81.96,120.99 81.96,198.29l0 282.68c0,23.91 9.59,45.5 25.08,61.06 15.43,15.5 36.85,25.1 60.54,25.1zm67.07 365.81c-5.99,-5.98 -12.99,-10.65 -20.45,-13.73l-0.14 0c-7.56,-3.13 -15.8,-4.82 -24.18,-4.82 -8.44,0 -16.7,1.66 -24.22,4.76 -7.6,3.2 -14.65,7.86 -20.57,13.79l-0.07 -0.06c-5.89,5.92 -10.54,12.95 -13.67,20.53 -3.12,7.55 -4.8,15.84 -4.8,24.33 0,8.46 1.67,16.71 4.75,24.22 3.26,7.74 7.88,14.79 13.65,20.56l0.13 0c5.93,5.93 12.98,10.59 20.59,13.74 7.51,3.14 15.77,4.81 24.21,4.81 8.37,0 16.62,-1.68 24.18,-4.82l0.14 0c7.45,-3.09 14.46,-7.75 20.45,-13.73 5.99,-5.99 10.65,-13 13.73,-20.45l0 -0.14c3.13,-7.56 4.81,-15.8 4.81,-24.2 0,-8.44 -1.66,-16.69 -4.76,-24.19 -3.25,-7.72 -7.89,-14.82 -13.73,-20.67l-0.06 0.06zm2880.48 1061.66l-589.81 0c-13.38,0 -26.22,3.01 -37.58,8.57 -11.38,5.58 -21.65,13.88 -29.87,24.45l-269.54 346.6 -271.86 -346.93c-8.01,-10.23 -18.29,-18.41 -29.9,-24.08 -11.47,-5.59 -24.24,-8.61 -37.37,-8.61l-589.84 0c-77.02,0 -146.92,-31.52 -197.59,-82.42 -50.61,-50.84 -81.96,-120.99 -81.96,-198.27l0 -1515.61c0,-77.3 31.36,-147.44 81.96,-198.29 50.66,-50.9 120.56,-82.44 197.58,-82.44l1855.76 0c77.02,0 146.92,31.53 197.6,82.44 50.6,50.85 81.96,120.99 81.96,198.29l0 1515.61c0,77.27 -31.36,147.41 -81.97,198.26 -50.67,50.9 -120.58,82.43 -197.59,82.43z"/>
 </g>
</svg>
