<?xml version="1.0" encoding="UTF-8"?>
<!DOCTYPE svg PUBLIC "-//W3C//DTD SVG 1.1//EN" "http://www.w3.org/Graphics/SVG/1.1/DTD/svg11.dtd">
<!-- Creator: CorelDRAW 2020 (64-Bit) -->
<svg xmlns="http://www.w3.org/2000/svg" xml:space="preserve" width="6in" height="6.00938in" version="1.1" style="shape-rendering:geometricPrecision; text-rendering:geometricPrecision; image-rendering:optimizeQuality; fill-rule:evenodd; clip-rule:evenodd"
viewBox="0 0 6200.49 6210.18"
 xmlns:xlink="http://www.w3.org/1999/xlink"
 xmlns:xodm="http://www.corel.com/coreldraw/odm/2003">
 <defs>
  <style type="text/css">
   <![CDATA[
    .fil0 {fill:red}
   ]]>
  </style>
 </defs>
 <g id="Layer_x0020_1">
  <metadata id="CorelCorpID_0Corel-Layer"/>
  <path class="fil0" d="M14.91 3796.23c0,-193.47 -20.01,-173.39 153.05,-264.03l2.84 70.13c-48.91,50.33 -130.68,65.61 -117.22,226.31 3.82,45.64 33.42,90.65 55.58,114.47 57.71,62.05 64.05,-3.03 59.36,112.46 -54.88,-14.74 -97.52,-36.19 -134.65,-77.46 -35.39,-39.31 -18.96,-122.75 -18.96,-181.88zm3178.47 -424.12l12.57 -17.41c9.63,-34.79 112.98,-438.66 136.87,-474.86 132.16,-0.18 317.64,27.27 337.42,-63.35 34.22,-156.7 -194.26,-99.96 -294.33,-113.65 20.73,-69.39 35.97,-133.95 56.68,-204.66l54.14 -188.34c36.63,-81.57 320.13,54.45 353.05,-83.2 35.18,-147.15 -171.38,-110.88 -296.92,-110.88 4.19,-68.55 99.46,-326.09 92.1,-375.87 -6.03,-40.8 -39.65,-74.71 -84.58,-76.04 -86.42,-2.56 -98.78,106.75 -122.71,199.69 -21.85,84.89 -43.87,172.73 -70.47,252.23l-538.31 -0.27c20.02,-48.11 50.12,-179.48 67.43,-243.95 8.62,-32.08 31.96,-98.97 27.58,-135.08 -9.97,-82.02 -136.83,-110.35 -171.64,-1.24l-69.68 253.85c-11.12,43.25 -27.54,87.11 -34.6,126.7 -78.1,0 -156.2,0.02 -234.3,0 -81.21,-0.02 -160.98,-10.2 -181.9,61.05 -23.38,79.6 40.85,112.9 125.26,112.88 77.18,-0.02 163.94,3.16 240,-1.82 -0.98,31.21 -42.96,163.36 -54.69,207.26 -15.13,56.6 -50.63,155.83 -55.96,210.41 -80.8,0 -161.59,0.02 -242.38,0 -85.37,-0.02 -160.9,-8.16 -181.83,61.42 -25.4,84.46 43.91,113.42 116.82,113.33 82.5,-0.1 172.08,2.73 253.67,-1.87 -12.33,75.5 -107,389.82 -134.49,495.99 -16.62,64.21 24.81,115.5 82.99,115.2 94.37,-0.48 105.07,-140.15 143.19,-277.9 31.48,-113.78 58.46,-220.6 91.28,-331.57l538.25 -0.32c-14.23,71.69 -37.42,142.29 -56.7,210.42 -19.3,68.21 -36.84,131.5 -56.06,202.38 -18.38,67.79 -49.14,146.46 13.98,185.12 76.68,46.96 141.35,-28.11 138.22,-105.63zm-589.74 -2272.24c21.25,42.98 18.94,26.77 53.89,53.35 30.58,23.25 33.09,27.71 73.87,40.12 41.04,12.51 136.16,30.41 180.11,2.63 296.09,-29.08 377.51,-529.39 35.32,-639.14 -255.92,-82.09 -471.2,137.39 -439.18,357.9 9.84,67.77 45.66,166.72 95.99,185.14zm76.68 -236.38c0,-186.15 320.53,-211.81 315.96,16.2 -3.99,199.12 -315.96,212.36 -315.96,-16.2zm-1703.87 24.24c-28.27,-187.85 292.47,-252.74 320.03,-29.69 23.96,194.01 -286.24,254.24 -320.03,29.69zm102.23 -342.6c-453.37,108.35 -299.32,731.87 121.89,656.25 156.97,-28.18 299.44,-182.8 264.57,-391.17 -25.37,-151.6 -196.92,-310.37 -386.46,-265.08zm901.65 171.34c86.27,-10.34 157.68,61.79 166.06,140.18 22.95,214.34 -303.62,236.9 -315.77,31.23 -6.14,-104.07 53.57,-159.88 149.71,-171.41zm-50.5 -170.36c-99.06,22.14 -162.51,62.69 -208.94,125.25 -46.1,62.12 -81.31,163.34 -62.16,260.34 85.11,431.11 729.73,321.69 657.72,-116.12 -25.53,-155.22 -185.87,-314.33 -386.62,-269.47zm3100.05 4281.29c162.12,-40.36 300.34,82.76 327.67,209.94 36.58,170.24 -81.47,300.02 -210.26,329.22 -244.51,55.44 -429.5,-223.3 -284.44,-430.01 38.33,-54.6 88.64,-89.63 167.03,-109.15zm8.1 -178.45c-477.73,85.32 -486.23,600.98 -240.52,794.66 77.07,60.75 202.51,121.37 342.34,101.06 404.96,-58.8 533.32,-536.85 237.36,-793.42 -70.08,-60.76 -207.68,-125.78 -339.18,-102.3zm-1676.37 -117.52c-35.85,-161.95 102.89,-296.44 230.75,-316.11 160.87,-24.75 298.89,93.43 315.21,227.87 43.79,361.07 -465.66,451.03 -545.96,88.24zm724.48 -16.16l0 -40.4c0,-243.91 -210.28,-436.41 -452.45,-436.51 -250.44,-0.11 -440.72,193.55 -449.11,437.7 -14.02,407.6 480.47,603.06 754.27,344.36 64.95,-61.38 147.29,-175.25 147.29,-305.15zm-3285.06 -1723.81c372.27,-279.93 -13.9,-850.99 368.66,-876.9 73.08,-4.96 129.98,5.04 135.52,-74.84 5.38,-77.61 -46.36,-89.08 -119.69,-87.87 -628.05,10.36 -161.87,796.03 -531.64,939.32 -52.14,20.21 -102.7,31.24 -95.29,109.07 12.44,130.7 147.77,43.32 219.03,192.17 138.44,289.21 -143.52,815.37 416.69,841.72 69.71,3.28 124.82,-11.61 121.95,-86.3 -6.44,-167.31 -317.82,52.79 -332.38,-298.82 -5.99,-144.65 8.71,-256.87 -22.26,-398.18 -32.52,-148.34 -77.61,-177.28 -160.59,-259.38zm1863.13 -85.91c43.77,-133.33 72.92,-277.49 117.02,-416.17l537.73 -0.32 -113.45 416.48 -541.31 0zm2076.35 1454.25c36.25,16.36 129.19,194.29 167.23,244.87 44.71,59.44 82.03,33.66 155.65,29.9 294.73,-15.03 387.14,165.53 484.51,120.58 57.95,-26.75 210.2,-146.46 259.05,-152.36 14.84,3.9 147.63,220.06 169.98,257.52 18.18,30.45 44.97,58.82 48.11,99.71 -71.94,54.09 -167.61,102.7 -244.85,156.49 -84.2,58.63 7.77,111.76 -51.52,344.83 -28.17,110.77 -54.18,132.74 -96.06,210.56 -16.03,29.79 -16.52,52.57 -2.52,84.23 24.84,56.19 148.13,209.17 151,259.9 -5.92,20.49 -225.4,149.61 -257.56,169.28 -30.03,18.37 -55.83,45.86 -97.86,48.86 -23.89,-29.13 -55.67,-83.7 -78.78,-121.8 -169.28,-278.98 -81.29,-95.25 -423.03,-174.77 -52.5,-12.21 -103.22,-34.63 -145.17,-56.65 -126.96,-66.63 -90.26,-84.73 -270.32,32.36 -32.96,21.43 -100.14,67.3 -131.43,78.48 -36.23,-18.64 -166.27,-241.05 -209.7,-307.6 -37.14,-56.89 7.77,-67.42 50.7,-94.07 362.88,-225.29 143.42,-102.1 227.38,-450.92 32.91,-136.68 97.19,-201.17 106.86,-241.49 13.04,-54.39 -23.13,-86.95 -43.81,-119.59 -24.89,-39.25 -42.95,-74 -67.8,-110.49 -76.29,-112.02 -69.56,-81.79 76.59,-175.57 40.01,-25.67 189.63,-125.82 223.34,-132.24zm-485.44 1002.03c-31.3,14.04 -31.98,33.01 -64.24,17.51 -12.5,-6.01 -133.47,-114.17 -171.29,-121.5 -45.36,-8.79 -111.12,31.92 -145.12,45.78 -102.02,41.6 -238.08,56.78 -347.93,35.77 -142.77,-27.3 -115.36,10.86 -225.39,142.29 -106.92,127.74 -50.04,156.97 -261.61,-10.55 -42.47,-33.62 -126.04,-87.12 -158.19,-125.69 4.65,-40.07 88.57,-135.94 124.16,-183.96 88.82,-119.88 74.89,-83.45 25.01,-206.54 -133.31,-328.89 20.61,-429.5 -65.13,-508.47 -32.06,-29.54 -84.3,-61.45 -120.88,-89.41 -38.46,-29.4 -81.44,-58.63 -115.66,-93.06 12.43,-34.58 226.2,-314.29 250.46,-331.98 41.43,7.57 171.21,124.26 235.98,167.8 107.04,71.98 187.15,-111.87 504.91,-68.72 65.64,8.92 111.49,33.36 157.66,-16.72 39.11,-42.44 143.71,-211.79 184.05,-228.86 19.85,-1.89 148.14,101.26 171.33,120.23 43.83,35.84 135.48,91.46 159.24,130.88 -29.95,67.29 -181.54,219.61 -187.96,274.95 -8.82,76.15 66.22,112.49 43.67,169.15 -58.4,146.8 -28.78,165.86 71.57,323.96 57.62,90.78 44.72,54.8 2.95,155.26 -52.48,126.2 -76.12,236.6 -67.59,401.88zm-475.98 -1502.94c-89.1,4.27 -109.27,-22.56 -271.95,2.6 -85.58,13.23 -164.49,38.33 -228.95,70.12 -35.71,-37.94 -91.67,-74.35 -135.75,-106.82 -230.79,-170.09 -307.46,6.82 -427.57,157.83 -35.83,45.06 -69.61,89.44 -104.51,137.72 -95.55,132.2 -61.63,228.58 59.08,322.91 36.58,28.58 104.05,84.87 140.15,102.37 -2.46,110.13 -17.8,179.09 4.12,294.81 27.07,142.95 79.98,182.81 39.3,232.87 -32.35,39.8 -112.74,140.86 -131.68,183.88 -80.39,182.48 118.87,281.63 230.32,366.58 44.64,34.03 132.29,110.34 185.27,129.54 219.75,79.68 304.96,-223.72 367.48,-238.17 100.84,0.52 154.37,13.29 263.94,-2.64 86.03,-12.5 144.21,-39.24 220.81,-64.88l58.11 41.17c-33.48,49.78 -55.26,46.37 -69.6,128.47 -20,114.57 109.07,259.91 191.12,396.77 49.33,82.27 100.44,165.93 234.66,149.67 94.95,-11.5 182.06,-109.1 264.37,-140.29 33.65,12.74 64.82,32.38 99.6,46.41 144.71,58.39 227.89,59.04 385.78,60.26l119.75 193.49c39.03,52.53 115.43,106.79 217.71,79.19 47.25,-12.74 348.33,-204.05 391.87,-238.52 176.47,-139.71 -0.33,-325.43 -55.43,-419.35 -28.35,-48.34 28.18,-86.11 66.48,-223.8 24.78,-89.03 31.06,-186.35 26.5,-288.79 41.03,-16.06 105.91,-65 145.45,-88.74 54.79,-32.91 96.38,-61.37 120.93,-121.5 49.51,-121.26 -42.23,-224.06 -114.25,-337.38 -31.05,-48.86 -61.44,-101.05 -93.08,-149.88 -35.16,-54.28 -66.88,-88.34 -140.02,-102.63 -129.58,-25.33 -236.64,94.8 -331.06,138.74 -21.67,-6.54 -77.42,-35.83 -100.91,-45.84 -115.12,-49.1 -254.37,-75.2 -383.84,-60.21 -94.67,-165.5 -195.06,-381.5 -419.36,-233.65 -30.9,20.37 -256.55,181.07 -199.49,85.15 68.45,-115.06 311.56,-274.51 32.26,-476.95 -97.55,-70.69 -252.28,-211.25 -338.23,-227.36 -56.54,-10.59 -118.96,10.3 -151.18,35.3 -37.5,29.08 -140.26,162.94 -168.19,211.58zm-3708.8 -2086.62c-116.87,-123.98 93.11,-138.09 97.27,-38.35 -11.49,-5.32 -120.71,-121.68 -103.84,8.2 37.03,21.87 27.76,19.13 68.69,3.02 5.62,39.44 -25.92,34.36 -62.13,27.13zm247.68 -1560.73c-383.1,86.82 -312.91,446.54 -312.91,763.1l0.03 3239.74c0.22,158.97 -23.22,375.09 36.56,497.56 52.34,107.26 167.46,213.39 319.79,221.39 170.53,8.96 367.96,0.1 541.48,0.1 124.68,0 1439.81,10.75 1480.4,-6.66 27.8,-11.92 50.65,-47.17 46.81,-89.88 -7.93,-88.16 -107.02,-75.4 -194.16,-75.53l-1349.22 0.04c-123.51,0 -434.45,14.86 -533.78,-5.14 -198.3,-39.95 -175.13,-234.23 -175.14,-364.12l-0.24 -3781.39c1.1,-203.53 150.03,-234.02 305.2,-233.95l4863.64 0c111.06,0 440.08,-14.11 519.67,13.43 184.52,63.86 146.78,251.34 146.77,398.61 -0.01,1163.45 8.73,2347.15 0.27,3506.36 -0.67,91.54 -15.71,182.46 73.23,196.86 109.13,17.67 100.45,-103.91 100.31,-156.46l-0.02 -3514.44c0,-222.84 32.2,-459.19 -225.23,-582.52 -73.99,-35.45 -146.13,-35.32 -243.37,-35.41l-4322.34 0c-159.92,0 -991.71,-11.17 -1077.77,8.33z"/>
 </g>
</svg>
